{"glyphs":{"0":{"ha":764,"x_min":-50,"x_max":595,"o":"m 345 806 q 534 728 472 806 q 595 519 595 651 q 582 387 595 462 q 448 100 549 214 q 203 -14 347 -14 q 13 67 76 -14 q -50 281 -50 148 q -38 405 -50 344 q 97 692 -3 578 q 345 806 198 806 m 203 78 q 385 174 314 78 q 481 405 455 269 q 493 521 493 474 q 457 661 493 608 q 342 714 422 714 q 161 619 231 714 q 64 387 92 524 q 52 273 52 321 q 88 132 52 186 q 203 78 123 78 z "},"1":{"ha":469,"x_min":-122,"x_max":274,"o":"m 274 87 l 257 0 l -122 0 l -104 87 l 28 87 l 146 694 l 14 646 l -9 729 l 151 792 l 267 792 l 130 87 l 274 87 z "},"2":{"ha":620,"x_min":-102,"x_max":483,"o":"m 5 731 q 137 787 78 767 q 278 807 196 807 q 421 759 359 807 q 483 618 483 710 q 477 568 483 594 q 405 416 460 483 q 224 240 349 349 l 61 95 l 391 95 l 372 0 l -102 0 l -101 78 q 92 253 -54 123 q 222 372 186 335 q 339 490 309 448 q 378 585 368 531 q 380 611 380 594 q 348 681 380 656 q 257 707 316 707 q 161 693 201 707 q 68 653 120 679 l 33 637 l 5 731 z "},"3":{"ha":672,"x_min":-120,"x_max":497,"o":"m 280 809 q 438 766 380 809 q 497 642 497 724 q 451 503 497 566 q 337 406 406 441 q 427 349 392 387 q 462 252 462 311 q 457 207 462 231 q 350 48 434 104 q 142 -9 266 -9 q 9 9 64 -9 q -120 61 -47 26 l -69 156 q 40 109 -10 125 q 141 94 90 94 q 351 229 323 94 q 354 257 354 250 q 296 335 354 314 q 111 356 238 356 l 127 453 q 385 602 356 462 q 387 628 387 611 q 355 691 387 674 q 266 708 323 708 q 174 694 215 708 q 47 646 132 681 l 21 741 q 158 793 97 776 q 280 809 219 809 z "},"4":{"ha":689,"x_min":-101,"x_max":536,"o":"m 536 286 l 517 189 l 380 189 l 344 -2 l 241 -2 l 278 189 l -101 189 l -101 267 l 352 792 l 498 792 l 399 286 l 536 286 m 38 286 l 297 286 l 377 684 l 38 286 z "},"5":{"ha":637,"x_min":-125,"x_max":507,"o":"m 155 415 q 9 403 97 415 l -19 411 l 56 792 l 507 792 l 488 700 l 141 700 l 101 505 q 200 510 144 510 q 389 454 325 510 q 453 304 453 398 q 446 245 453 286 q 319 48 420 108 q 83 -12 219 -12 q -21 -2 35 -12 q -125 28 -76 9 l -85 123 q 87 90 14 90 q 264 131 200 90 q 345 260 328 172 q 351 304 351 285 q 305 389 351 363 q 155 415 259 415 z "},"6":{"ha":668,"x_min":-68,"x_max":488,"o":"m 267 493 q 424 443 363 493 q 486 297 486 392 q 481 238 486 269 q 382 61 462 134 q 175 -12 302 -12 q -8 57 52 -12 q -68 243 -68 127 q -57 351 -68 297 q 128 680 -14 569 q 488 790 269 790 l 486 694 q 217 631 321 700 q 73 448 113 563 q 267 493 158 493 m 385 295 q 255 396 385 396 q 135 378 184 396 q 36 325 87 359 q 30 255 30 276 q 69 131 30 174 q 182 89 109 89 q 331 149 276 89 q 385 295 385 210 z "},"7":{"ha":592,"x_min":-36,"x_max":514,"o":"m 80 0 l -36 0 l 378 696 l -16 696 l 3 793 l 514 793 l 514 724 l 80 0 z "},"8":{"ha":660,"x_min":-94,"x_max":498,"o":"m 293 807 q 444 768 389 807 q 498 655 498 729 q 349 432 498 531 q 435 359 401 408 q 469 252 469 311 q 464 207 469 231 q 359 43 441 104 q 151 -19 276 -19 q -30 38 33 -19 q -94 182 -94 95 q -36 335 -94 267 q 106 439 21 403 q 78 468 101 446 q 41 521 56 490 q 26 590 26 552 q 31 634 26 611 q 121 759 47 710 q 293 807 194 807 m 285 710 q 180 675 226 710 q 134 589 134 641 q 158 525 134 554 q 231 469 182 497 q 336 536 292 500 q 391 622 380 573 q 392 639 392 627 q 361 693 392 675 q 285 710 330 710 m 156 83 q 306 133 252 83 q 361 257 361 182 q 219 389 361 354 q 84 325 141 368 q 14 214 28 281 q 12 191 12 207 q 50 114 12 144 q 156 83 89 83 z "},"9":{"ha":672,"x_min":-31,"x_max":519,"o":"m 286 790 q 461 720 403 790 q 519 530 519 649 q 507 410 519 469 q -24 -12 424 -12 l -24 83 q 237 144 137 78 q 382 326 337 210 q 194 285 295 285 q 33 337 97 285 q -31 493 -31 389 q 3 635 -31 568 q 109 747 38 703 q 286 790 181 790 m 73 503 q 103 415 73 444 q 207 385 134 385 q 321 404 274 385 q 415 455 368 422 q 422 531 422 491 q 385 650 422 609 q 280 691 349 691 q 125 633 177 691 q 73 503 73 575 z "}," ":{"ha":382,"x_min":0,"x_max":0,"o":""},"A":{"ha":856,"x_min":-36,"x_max":766,"o":"m 476 955 l -36 0 l 95 0 l 240 280 l 604 280 l 641 0 l 766 0 l 623 955 l 476 955 m 292 378 l 530 835 l 590 378 l 292 378 z "},"Á":{"ha":856,"x_min":-36,"x_max":766,"o":"m 0 0 m 476 955 l -36 0 l 95 0 l 240 280 l 604 280 l 641 0 l 766 0 l 623 955 l 476 955 m 292 378 l 530 835 l 590 378 l 292 378 m 446 1017 l 420 1089 l 733 1224 l 762 1132 l 446 1017 z "},"Ă":{"ha":856,"x_min":-36,"x_max":814,"o":"m 0 0 m 476 955 l -36 0 l 95 0 l 240 280 l 604 280 l 641 0 l 766 0 l 623 955 l 476 955 m 292 378 l 530 835 l 590 378 l 292 378 m 583 1038 q 391 1167 458 1038 l 464 1208 q 521 1143 493 1165 q 587 1122 549 1122 q 667 1146 628 1122 q 750 1215 705 1170 l 814 1160 q 707 1070 767 1102 q 583 1038 648 1038 z "},"Â":{"ha":856,"x_min":-36,"x_max":792,"o":"m 0 0 m 476 955 l -36 0 l 95 0 l 240 280 l 604 280 l 641 0 l 766 0 l 623 955 l 476 955 m 292 378 l 530 835 l 590 378 l 292 378 m 731 1021 l 587 1142 l 406 1023 l 356 1090 l 594 1250 l 792 1080 l 731 1021 z "},"Ä":{"ha":856,"x_min":-36,"x_max":793,"o":"m 0 0 m 476 955 l -36 0 l 95 0 l 240 280 l 604 280 l 641 0 l 766 0 l 623 955 l 476 955 m 292 378 l 530 835 l 590 378 l 292 378 m 450 1068 q 408 1085 425 1068 q 391 1127 391 1102 q 392 1141 391 1135 q 417 1180 396 1163 q 460 1196 438 1196 q 503 1179 486 1196 q 519 1135 519 1161 q 498 1089 519 1111 q 450 1068 477 1068 m 724 1068 q 682 1085 700 1068 q 665 1127 665 1102 q 667 1141 665 1135 q 691 1180 670 1163 q 734 1196 712 1196 q 777 1179 760 1196 q 793 1135 793 1161 q 773 1089 793 1111 q 724 1068 752 1068 z "},"À":{"ha":856,"x_min":-36,"x_max":766,"o":"m 0 0 m 476 955 l -36 0 l 95 0 l 240 280 l 604 280 l 641 0 l 766 0 l 623 955 l 476 955 m 292 378 l 530 835 l 590 378 l 292 378 m 762 1089 l 714 1017 l 439 1132 l 498 1224 l 762 1089 z "},"Ā":{"ha":856,"x_min":-36,"x_max":802,"o":"m 0 0 m 476 955 l -36 0 l 95 0 l 240 280 l 604 280 l 641 0 l 766 0 l 623 955 l 476 955 m 292 378 l 530 835 l 590 378 l 292 378 m 785 1071 l 370 1071 l 387 1158 l 802 1158 l 785 1071 z "},"Ą":{"ha":858,"x_min":-36,"x_max":764,"o":"m 240 280 l 95 0 l -36 0 l 476 955 l 623 955 l 764 17 l 632 -69 q 503 -231 503 -155 q 556 -276 503 -276 q 679 -234 604 -276 l 708 -300 q 612 -348 661 -332 q 523 -365 563 -365 q 437 -335 469 -365 q 405 -253 405 -306 q 456 -114 405 -179 q 639 23 507 -49 l 604 280 l 240 280 m 590 378 l 530 835 l 292 378 l 590 378 z "},"Å":{"ha":854,"x_min":-38,"x_max":764,"o":"m 602 280 l 238 280 l 94 0 l -38 0 l 464 936 q 411 991 431 957 q 391 1068 391 1026 q 419 1161 391 1116 q 496 1234 448 1207 q 595 1262 543 1262 q 707 1219 663 1262 q 750 1113 750 1175 q 716 1010 750 1057 q 625 936 682 962 l 764 0 l 639 0 l 602 280 m 467 1080 q 465 1059 465 1073 q 485 1009 465 1028 q 540 990 505 990 q 623 1021 585 990 q 670 1097 661 1052 q 672 1115 672 1102 q 649 1166 672 1144 q 594 1188 627 1188 q 511 1157 547 1188 q 467 1080 476 1127 m 290 378 l 589 378 l 528 835 l 290 378 z "},"Ã":{"ha":856,"x_min":-36,"x_max":837,"o":"m 0 0 m 476 955 l -36 0 l 95 0 l 240 280 l 604 280 l 641 0 l 766 0 l 623 955 l 476 955 m 292 378 l 530 835 l 590 378 l 292 378 m 512 1193 q 558 1181 538 1193 q 608 1149 578 1170 q 674 1115 649 1115 q 721 1135 701 1115 q 760 1196 741 1156 l 837 1165 q 769 1067 811 1102 q 670 1031 727 1031 q 616 1043 639 1031 q 563 1078 594 1054 q 535 1097 549 1089 q 509 1106 521 1106 q 463 1086 483 1106 q 424 1026 443 1066 l 349 1057 q 418 1157 377 1122 q 512 1193 460 1193 z "},"Æ":{"ha":1193,"x_min":-36,"x_max":1224,"o":"m 788 858 l 727 543 l 1108 543 l 1089 444 l 708 444 l 641 101 l 1057 101 l 1038 0 l 516 0 l 569 280 l 238 280 l 78 0 l -36 0 l 523 955 l 1224 955 l 1205 858 l 788 858 m 575 858 l 297 378 l 589 378 l 682 858 l 575 858 z "},"B":{"ha":875,"x_min":52,"x_max":802,"o":"m 630 510 q 760 615 719 550 q 802 760 802 681 q 742 901 802 847 q 578 955 682 955 l 238 955 l 52 0 l 359 0 q 605 43 507 0 q 750 157 703 87 q 797 311 797 227 q 753 444 797 398 q 630 510 708 490 m 274 557 l 333 856 l 514 856 q 686 747 686 856 q 620 610 686 663 q 406 557 554 557 l 274 557 m 186 101 l 257 462 l 420 462 q 604 426 533 462 q 675 309 675 391 q 638 203 675 250 q 531 128 601 156 q 368 101 462 101 l 186 101 z "},"C":{"ha":899,"x_min":99,"x_max":953,"o":"m 953 920 q 814 960 866 951 q 675 969 762 969 q 382 895 514 969 q 174 689 250 821 q 99 387 99 557 q 154 178 99 269 q 303 36 208 87 q 514 -16 398 -16 q 654 -3 592 -16 q 792 35 715 9 l 781 144 q 656 110 707 122 q 552 99 606 99 q 314 174 406 99 q 222 394 222 248 q 266 613 215 503 q 422 793 318 722 q 674 865 526 865 q 787 855 741 865 q 892 823 833 845 l 953 920 z "},"Ć":{"ha":899,"x_min":99,"x_max":953,"o":"m 99 0 m 953 920 q 814 960 866 951 q 675 969 762 969 q 382 895 514 969 q 174 689 250 821 q 99 387 99 557 q 154 178 99 269 q 303 36 208 87 q 514 -16 398 -16 q 654 -3 592 -16 q 792 35 715 9 l 781 144 q 656 110 707 122 q 552 99 606 99 q 314 174 406 99 q 222 394 222 248 q 266 613 215 503 q 422 793 318 722 q 674 865 526 865 q 787 855 741 865 q 892 823 833 845 l 953 920 m 563 1017 l 536 1089 l 849 1224 l 878 1132 l 563 1017 z "},"Č":{"ha":899,"x_min":99,"x_max":953,"o":"m 99 0 m 953 920 q 814 960 866 951 q 675 969 762 969 q 382 895 514 969 q 174 689 250 821 q 99 387 99 557 q 154 178 99 269 q 303 36 208 87 q 514 -16 398 -16 q 654 -3 592 -16 q 792 35 715 9 l 781 144 q 656 110 707 122 q 552 99 606 99 q 314 174 406 99 q 222 394 222 248 q 266 613 215 503 q 422 793 318 722 q 674 865 526 865 q 787 855 741 865 q 892 823 833 845 l 953 920 m 491 1198 l 552 1257 l 696 1135 l 877 1255 l 927 1188 l 689 1028 l 491 1198 z "},"Ç":{"ha":899,"x_min":99,"x_max":953,"o":"m 674 865 q 422 793 526 865 q 266 613 318 722 q 222 394 215 503 q 314 174 222 248 q 552 99 406 99 q 656 110 606 99 q 781 144 707 122 l 792 35 q 654 -3 715 9 q 514 -16 592 -16 l 507 -16 l 470 -90 q 575 -138 540 -109 q 609 -224 609 -167 q 604 -267 609 -245 q 543 -357 594 -321 q 425 -392 491 -392 q 357 -385 389 -392 q 293 -369 325 -378 q 250 -356 262 -359 l 290 -266 q 332 -280 304 -271 q 383 -294 361 -290 q 424 -299 405 -299 q 507 -245 498 -299 q 450 -182 517 -198 l 337 -158 l 406 -3 q 184 134 269 28 q 99 387 99 240 q 174 689 99 557 q 382 895 250 821 q 675 969 514 969 q 814 960 762 969 q 953 920 866 951 l 892 823 q 787 855 833 845 q 674 865 741 865 z "},"Ĉ":{"ha":899,"x_min":99,"x_max":953,"o":"m 99 0 m 953 920 q 814 960 866 951 q 675 969 762 969 q 382 895 514 969 q 174 689 250 821 q 99 387 99 557 q 154 178 99 269 q 303 36 208 87 q 514 -16 398 -16 q 654 -3 592 -16 q 792 35 715 9 l 781 144 q 656 110 707 122 q 552 99 606 99 q 314 174 406 99 q 222 394 222 248 q 266 613 215 503 q 422 793 318 722 q 674 865 526 865 q 787 855 741 865 q 892 823 833 845 l 953 920 m 847 1021 l 703 1142 l 523 1023 l 472 1090 l 710 1250 l 908 1080 l 847 1021 z "},"Ċ":{"ha":899,"x_min":99,"x_max":953,"o":"m 99 0 m 953 920 q 814 960 866 951 q 675 969 762 969 q 382 895 514 969 q 174 689 250 821 q 99 387 99 557 q 154 178 99 269 q 303 36 208 87 q 514 -16 398 -16 q 654 -3 592 -16 q 792 35 715 9 l 781 144 q 656 110 707 122 q 552 99 606 99 q 314 174 406 99 q 222 394 222 248 q 266 613 215 503 q 422 793 318 722 q 674 865 526 865 q 787 855 741 865 q 892 823 833 845 l 953 920 m 703 1075 q 657 1093 675 1075 q 639 1139 639 1111 q 641 1156 639 1149 q 668 1201 644 1182 q 719 1220 691 1220 q 766 1202 748 1220 q 785 1155 785 1184 q 760 1099 785 1123 q 703 1075 734 1075 z "},"D":{"ha":981,"x_min":52,"x_max":946,"o":"m 385 0 q 716 92 590 0 q 894 310 842 184 q 946 547 946 436 q 857 844 946 733 q 578 955 767 955 l 238 955 l 52 0 l 385 0 m 543 856 q 753 779 691 856 q 814 552 814 701 q 776 345 814 448 q 645 171 738 241 q 403 101 552 101 l 186 101 l 333 856 l 543 856 z "},"Ð":{"ha":1031,"x_min":45,"x_max":1009,"o":"m 641 955 q 919 844 830 955 q 1009 547 1009 733 q 957 310 1009 436 q 779 92 905 184 q 448 0 653 0 l 115 0 l 201 444 l 45 444 l 63 535 l 219 535 l 300 955 l 641 955 m 465 101 q 707 171 615 101 q 839 345 800 241 q 877 552 877 448 q 815 779 877 701 q 606 856 753 856 l 396 856 l 333 535 l 594 535 l 575 444 l 316 444 l 248 101 l 465 101 z "},"Ď":{"ha":981,"x_min":52,"x_max":946,"o":"m 52 0 m 385 0 q 716 92 590 0 q 894 310 842 184 q 946 547 946 436 q 857 844 946 733 q 578 955 767 955 l 238 955 l 52 0 l 385 0 m 543 856 q 753 779 691 856 q 814 552 814 701 q 776 345 814 448 q 645 171 738 241 q 403 101 552 101 l 186 101 l 333 856 l 543 856 m 318 1198 l 378 1257 l 523 1135 l 703 1255 l 753 1188 l 516 1028 l 318 1198 z "},"Đ":{"ha":1031,"x_min":45,"x_max":1009,"o":"m 45 0 m 641 955 q 919 844 830 955 q 1009 547 1009 733 q 957 310 1009 436 q 779 92 905 184 q 448 0 653 0 l 115 0 l 201 444 l 45 444 l 63 535 l 219 535 l 300 955 l 641 955 m 465 101 q 707 171 615 101 q 839 345 800 241 q 877 552 877 448 q 815 779 877 701 q 606 856 753 856 l 396 856 l 333 535 l 594 535 l 575 444 l 316 444 l 248 101 l 465 101 z "},"E":{"ha":767,"x_min":52,"x_max":797,"o":"m 630 101 l 186 101 l 253 444 l 663 444 l 682 543 l 273 543 l 333 858 l 778 858 l 797 955 l 238 955 l 52 0 l 611 0 l 630 101 z "},"É":{"ha":767,"x_min":52,"x_max":797,"o":"m 52 0 m 630 101 l 186 101 l 253 444 l 663 444 l 682 543 l 273 543 l 333 858 l 778 858 l 797 955 l 238 955 l 52 0 l 611 0 l 630 101 m 405 1017 l 378 1089 l 691 1224 l 720 1132 l 405 1017 z "},"Ĕ":{"ha":767,"x_min":52,"x_max":797,"o":"m 52 0 m 630 101 l 186 101 l 253 444 l 663 444 l 682 543 l 273 543 l 333 858 l 778 858 l 797 955 l 238 955 l 52 0 l 611 0 l 630 101 m 542 1038 q 349 1167 417 1038 l 422 1208 q 479 1143 451 1165 q 545 1122 507 1122 q 625 1146 587 1122 q 708 1215 663 1170 l 773 1160 q 666 1070 726 1102 q 542 1038 606 1038 z "},"Ě":{"ha":767,"x_min":52,"x_max":797,"o":"m 52 0 m 630 101 l 186 101 l 253 444 l 663 444 l 682 543 l 273 543 l 333 858 l 778 858 l 797 955 l 238 955 l 52 0 l 611 0 l 630 101 m 333 1198 l 394 1257 l 538 1135 l 719 1255 l 769 1188 l 531 1028 l 333 1198 z "},"Ê":{"ha":767,"x_min":52,"x_max":797,"o":"m 52 0 m 630 101 l 186 101 l 253 444 l 663 444 l 682 543 l 273 543 l 333 858 l 778 858 l 797 955 l 238 955 l 52 0 l 611 0 l 630 101 m 689 1021 l 545 1142 l 365 1023 l 314 1090 l 552 1250 l 750 1080 l 689 1021 z "},"Ë":{"ha":767,"x_min":52,"x_max":797,"o":"m 52 0 m 630 101 l 186 101 l 253 444 l 663 444 l 682 543 l 273 543 l 333 858 l 778 858 l 797 955 l 238 955 l 52 0 l 611 0 l 630 101 m 408 1068 q 366 1085 384 1068 q 349 1127 349 1102 q 351 1141 349 1135 q 375 1180 354 1163 q 418 1196 396 1196 q 461 1179 444 1196 q 477 1135 477 1161 q 457 1089 477 1111 q 408 1068 436 1068 m 682 1068 q 641 1085 658 1068 q 623 1127 623 1102 q 625 1141 623 1135 q 649 1180 628 1163 q 693 1196 670 1196 q 735 1179 719 1196 q 752 1135 752 1161 q 731 1089 752 1111 q 682 1068 710 1068 z "},"Ė":{"ha":767,"x_min":52,"x_max":797,"o":"m 52 0 m 630 101 l 186 101 l 253 444 l 663 444 l 682 543 l 273 543 l 333 858 l 778 858 l 797 955 l 238 955 l 52 0 l 611 0 l 630 101 m 545 1075 q 499 1093 517 1075 q 481 1139 481 1111 q 483 1156 481 1149 q 510 1201 486 1182 q 561 1220 533 1220 q 609 1202 590 1220 q 627 1155 627 1184 q 602 1099 627 1123 q 545 1075 576 1075 z "},"È":{"ha":767,"x_min":52,"x_max":797,"o":"m 52 0 m 630 101 l 186 101 l 253 444 l 663 444 l 682 543 l 273 543 l 333 858 l 778 858 l 797 955 l 238 955 l 52 0 l 611 0 l 630 101 m 720 1089 l 672 1017 l 398 1132 l 457 1224 l 720 1089 z "},"Ē":{"ha":767,"x_min":52,"x_max":797,"o":"m 52 0 m 630 101 l 186 101 l 253 444 l 663 444 l 682 543 l 273 543 l 333 858 l 778 858 l 797 955 l 238 955 l 52 0 l 611 0 l 630 101 m 743 1071 l 328 1071 l 345 1158 l 760 1158 l 743 1071 z "},"Ę":{"ha":774,"x_min":52,"x_max":797,"o":"m 354 -231 q 405 -276 354 -276 q 528 -234 450 -276 l 559 -302 q 372 -365 464 -365 q 286 -336 318 -365 q 255 -255 255 -307 q 259 -215 255 -229 q 319 -105 271 -160 q 438 -9 366 -50 l 455 0 l 52 0 l 238 955 l 797 955 l 778 858 l 333 858 l 273 543 l 681 543 l 661 444 l 253 444 l 186 101 l 630 101 l 616 17 l 486 -68 q 354 -231 354 -151 z "},"F":{"ha":736,"x_min":52,"x_max":793,"o":"m 793 955 l 238 955 l 52 0 l 167 0 l 253 444 l 655 444 l 674 543 l 273 543 l 333 858 l 774 858 l 793 955 z "},"G":{"ha":976,"x_min":99,"x_max":953,"o":"m 842 56 q 680 3 757 21 q 514 -16 602 -16 q 303 36 398 -16 q 154 178 208 87 q 99 387 99 269 q 174 689 99 557 q 382 895 250 821 q 675 969 514 969 q 814 960 762 969 q 953 920 866 951 l 892 823 q 787 855 833 845 q 674 865 741 865 q 422 793 526 865 q 266 613 318 722 q 222 394 215 503 q 315 170 222 248 q 552 92 408 92 q 748 123 648 92 l 802 411 l 533 411 l 552 505 l 932 505 l 842 56 z "},"Ğ":{"ha":976,"x_min":99,"x_max":953,"o":"m 99 0 m 842 56 q 680 3 757 21 q 514 -16 602 -16 q 303 36 398 -16 q 154 178 208 87 q 99 387 99 269 q 174 689 99 557 q 382 895 250 821 q 675 969 514 969 q 814 960 762 969 q 953 920 866 951 l 892 823 q 787 855 833 845 q 674 865 741 865 q 422 793 526 865 q 266 613 318 722 q 222 394 215 503 q 315 170 222 248 q 552 92 408 92 q 748 123 648 92 l 802 411 l 533 411 l 552 505 l 932 505 l 842 56 m 700 1038 q 507 1167 575 1038 l 580 1208 q 637 1143 609 1165 q 703 1122 665 1122 q 783 1146 745 1122 q 866 1215 821 1170 l 931 1160 q 824 1070 884 1102 q 700 1038 764 1038 z "},"Ĝ":{"ha":976,"x_min":99,"x_max":953,"o":"m 99 0 m 842 56 q 680 3 757 21 q 514 -16 602 -16 q 303 36 398 -16 q 154 178 208 87 q 99 387 99 269 q 174 689 99 557 q 382 895 250 821 q 675 969 514 969 q 814 960 762 969 q 953 920 866 951 l 892 823 q 787 855 833 845 q 674 865 741 865 q 422 793 526 865 q 266 613 318 722 q 222 394 215 503 q 315 170 222 248 q 552 92 408 92 q 748 123 648 92 l 802 411 l 533 411 l 552 505 l 932 505 l 842 56 m 847 1021 l 703 1142 l 523 1023 l 472 1090 l 710 1250 l 908 1080 l 847 1021 z "},"Ģ":{"ha":976,"x_min":99,"x_max":953,"o":"m 99 0 m 842 56 q 680 3 757 21 q 514 -16 602 -16 q 303 36 398 -16 q 154 178 208 87 q 99 387 99 269 q 174 689 99 557 q 382 895 250 821 q 675 969 514 969 q 814 960 762 969 q 953 920 866 951 l 892 823 q 787 855 833 845 q 674 865 741 865 q 422 793 526 865 q 266 613 318 722 q 222 394 215 503 q 315 170 222 248 q 552 92 408 92 q 748 123 648 92 l 802 411 l 533 411 l 552 505 l 932 505 l 842 56 m 378 -345 l 281 -345 l 446 -83 l 568 -83 l 378 -345 z "},"Ġ":{"ha":976,"x_min":99,"x_max":953,"o":"m 99 0 m 842 56 q 680 3 757 21 q 514 -16 602 -16 q 303 36 398 -16 q 154 178 208 87 q 99 387 99 269 q 174 689 99 557 q 382 895 250 821 q 675 969 514 969 q 814 960 762 969 q 953 920 866 951 l 892 823 q 787 855 833 845 q 674 865 741 865 q 422 793 526 865 q 266 613 318 722 q 222 394 215 503 q 315 170 222 248 q 552 92 408 92 q 748 123 648 92 l 802 411 l 533 411 l 552 505 l 932 505 l 842 56 m 703 1075 q 657 1093 675 1075 q 639 1139 639 1111 q 641 1156 639 1149 q 668 1201 644 1182 q 719 1220 691 1220 q 766 1202 748 1220 q 785 1155 785 1184 q 760 1099 785 1123 q 703 1075 734 1075 z "},"H":{"ha":993,"x_min":52,"x_max":998,"o":"m 271 533 l 352 955 l 238 955 l 52 0 l 167 0 l 250 429 l 781 429 l 698 0 l 813 0 l 998 955 l 884 955 l 802 533 l 271 533 z "},"I":{"ha":356,"x_min":57,"x_max":356,"o":"m 170 0 l 356 955 l 243 955 l 57 0 l 170 0 z "},"Ĳ":{"ha":858,"x_min":57,"x_max":873,"o":"m 170 0 l 356 955 l 243 955 l 57 0 l 170 0 m 642 347 q 593 197 620 250 q 522 120 566 144 q 401 95 477 95 q 306 108 354 95 l 260 2 q 384 -12 314 -12 q 632 63 549 -12 q 745 290 715 137 l 873 955 l 760 955 l 642 347 z "},"Í":{"ha":356,"x_min":57,"x_max":502,"o":"m 57 0 m 170 0 l 356 955 l 243 955 l 57 0 l 170 0 m 186 1017 l 160 1089 l 472 1224 l 502 1132 l 186 1017 z "},"Ĭ":{"ha":356,"x_min":57,"x_max":554,"o":"m 57 0 m 170 0 l 356 955 l 243 955 l 57 0 l 170 0 m 323 1038 q 130 1167 198 1038 l 203 1208 q 260 1143 233 1165 q 326 1122 288 1122 q 406 1146 368 1122 q 490 1215 444 1170 l 554 1160 q 447 1070 507 1102 q 323 1038 387 1038 z "},"Î":{"ha":356,"x_min":57,"x_max":531,"o":"m 57 0 m 170 0 l 356 955 l 243 955 l 57 0 l 170 0 m 470 1021 l 326 1142 l 146 1023 l 95 1090 l 333 1250 l 531 1080 l 470 1021 z "},"Ï":{"ha":356,"x_min":57,"x_max":533,"o":"m 57 0 m 170 0 l 356 955 l 243 955 l 57 0 l 170 0 m 189 1068 q 148 1085 165 1068 q 130 1127 130 1102 q 132 1141 130 1135 q 156 1180 135 1163 q 200 1196 177 1196 q 242 1179 226 1196 q 259 1135 259 1161 q 238 1089 259 1111 q 189 1068 217 1068 m 464 1068 q 422 1085 439 1068 q 405 1127 405 1102 q 406 1141 405 1135 q 431 1180 410 1163 q 474 1196 451 1196 q 516 1179 500 1196 q 533 1135 533 1161 q 512 1089 533 1111 q 464 1068 491 1068 z "},"İ":{"ha":356,"x_min":57,"x_max":408,"o":"m 57 0 m 170 0 l 356 955 l 243 955 l 57 0 l 170 0 m 326 1075 q 280 1093 299 1075 q 262 1139 262 1111 q 264 1156 262 1149 q 291 1201 267 1182 q 342 1220 314 1220 q 390 1202 372 1220 q 408 1155 408 1184 q 383 1099 408 1123 q 326 1075 358 1075 z "},"Ì":{"ha":356,"x_min":57,"x_max":502,"o":"m 57 0 m 170 0 l 356 955 l 243 955 l 57 0 l 170 0 m 502 1089 l 453 1017 l 179 1132 l 238 1224 l 502 1089 z "},"Ī":{"ha":356,"x_min":57,"x_max":542,"o":"m 57 0 m 170 0 l 356 955 l 243 955 l 57 0 l 170 0 m 524 1071 l 109 1071 l 127 1158 l 542 1158 l 524 1071 z "},"Į":{"ha":363,"x_min":-186,"x_max":358,"o":"m 358 955 l 177 17 l 43 -68 q -89 -231 -89 -151 q -36 -276 -89 -276 q 20 -266 -9 -276 q 89 -234 49 -255 l 118 -302 q 22 -349 71 -333 q -69 -365 -28 -365 q -155 -335 -123 -365 q -186 -253 -186 -306 q -135 -121 -186 -187 q -2 -7 -85 -54 l 59 28 l 241 955 l 358 955 z "},"Ĩ":{"ha":356,"x_min":57,"x_max":576,"o":"m 57 0 m 170 0 l 356 955 l 243 955 l 57 0 l 170 0 m 252 1193 q 298 1181 278 1193 q 347 1149 318 1170 q 413 1115 389 1115 q 461 1135 441 1115 q 500 1196 481 1156 l 576 1165 q 509 1067 550 1102 q 410 1031 467 1031 q 356 1043 378 1031 q 302 1078 333 1054 q 274 1097 288 1089 q 248 1106 260 1106 q 202 1086 222 1106 q 163 1026 182 1066 l 89 1057 q 158 1157 116 1122 q 252 1193 200 1193 z "},"J":{"ha":549,"x_min":-49,"x_max":564,"o":"m 333 347 q 284 197 311 250 q 213 120 257 144 q 92 95 168 95 q -3 108 45 95 l -49 2 q 75 -12 5 -12 q 323 63 240 -12 q 436 290 406 137 l 564 955 l 451 955 l 333 347 z "},"Ĵ":{"ha":549,"x_min":-49,"x_max":740,"o":"m 0 0 m 333 347 q 284 197 311 250 q 213 120 257 144 q 92 95 168 95 q -3 108 45 95 l -49 2 q 75 -12 5 -12 q 323 63 240 -12 q 436 290 406 137 l 564 955 l 451 955 l 333 347 m 679 1021 l 535 1142 l 354 1023 l 304 1090 l 542 1250 l 740 1080 l 679 1021 z "},"K":{"ha":845,"x_min":52,"x_max":917,"o":"m 167 0 l 352 955 l 238 955 l 52 0 l 167 0 m 608 0 l 741 0 l 413 483 l 917 955 l 774 955 l 278 490 l 608 0 z "},"Ķ":{"ha":845,"x_min":52,"x_max":917,"o":"m 52 0 m 167 0 l 352 955 l 238 955 l 52 0 l 167 0 m 608 0 l 741 0 l 413 483 l 917 955 l 774 955 l 278 490 l 608 0 m 255 -345 l 158 -345 l 323 -83 l 444 -83 l 255 -345 z "},"L":{"ha":694,"x_min":52,"x_max":615,"o":"m 595 0 l 615 101 l 191 101 l 352 955 l 238 955 l 52 0 l 595 0 z "},"Ĺ":{"ha":694,"x_min":52,"x_max":630,"o":"m 52 0 m 595 0 l 615 101 l 191 101 l 352 955 l 238 955 l 52 0 l 595 0 m 314 1017 l 288 1089 l 601 1224 l 630 1132 l 314 1017 z "},"Ľ":{"ha":694,"x_min":52,"x_max":642,"o":"m 509 755 l 418 755 l 524 1017 l 642 1017 l 509 755 m 189 101 l 615 101 l 595 0 l 52 0 l 238 955 l 352 955 l 189 101 z "},"Ļ":{"ha":694,"x_min":52,"x_max":615,"o":"m 52 0 m 595 0 l 615 101 l 191 101 l 352 955 l 238 955 l 52 0 l 595 0 m 188 -345 l 90 -345 l 255 -83 l 377 -83 l 188 -345 z "},"Ł":{"ha":726,"x_min":9,"x_max":646,"o":"m 306 557 l 502 660 l 479 542 l 283 439 l 219 101 l 646 101 l 627 0 l 83 0 l 156 373 l 9 295 l 31 413 l 179 490 l 269 955 l 384 955 l 306 557 z "},"M":{"ha":1165,"x_min":52,"x_max":1170,"o":"m 167 0 l 319 793 l 512 274 l 628 274 l 1023 793 l 870 0 l 984 0 l 1170 955 l 1002 955 l 590 396 l 384 955 l 238 955 l 52 0 l 167 0 z "},"N":{"ha":1016,"x_min":52,"x_max":1021,"o":"m 167 0 l 321 804 l 670 0 l 814 0 l 1021 955 l 903 955 l 727 155 l 380 955 l 238 955 l 52 0 l 167 0 z "},"Ń":{"ha":1016,"x_min":52,"x_max":1021,"o":"m 52 0 m 167 0 l 321 804 l 670 0 l 814 0 l 1021 955 l 903 955 l 727 155 l 380 955 l 238 955 l 52 0 l 167 0 m 530 1017 l 503 1089 l 816 1224 l 845 1132 l 530 1017 z "},"Ň":{"ha":1016,"x_min":52,"x_max":1021,"o":"m 52 0 m 167 0 l 321 804 l 670 0 l 814 0 l 1021 955 l 903 955 l 727 155 l 380 955 l 238 955 l 52 0 l 167 0 m 458 1198 l 519 1257 l 663 1135 l 844 1255 l 894 1188 l 656 1028 l 458 1198 z "},"Ņ":{"ha":1016,"x_min":52,"x_max":1021,"o":"m 52 0 m 167 0 l 321 804 l 670 0 l 814 0 l 1021 955 l 903 955 l 727 155 l 380 955 l 238 955 l 52 0 l 167 0 m 290 -345 l 193 -345 l 358 -83 l 479 -83 l 290 -345 z "},"Ñ":{"ha":1016,"x_min":52,"x_max":1021,"o":"m 52 0 m 167 0 l 321 804 l 670 0 l 814 0 l 1021 955 l 903 955 l 727 155 l 380 955 l 238 955 l 52 0 l 167 0 m 595 1193 q 641 1181 622 1193 q 691 1149 661 1170 q 757 1115 733 1115 q 805 1135 785 1115 q 844 1196 825 1156 l 920 1165 q 852 1067 894 1102 q 753 1031 811 1031 q 700 1043 722 1031 q 646 1078 677 1054 q 618 1097 632 1089 q 592 1106 604 1106 q 546 1086 566 1106 q 507 1026 526 1066 l 432 1057 q 502 1157 460 1122 q 595 1193 543 1193 z "},"O":{"ha":1052,"x_min":101,"x_max":1007,"o":"m 1007 566 q 925 246 1007 377 q 721 51 844 115 q 476 -12 599 -12 q 288 32 373 -12 q 152 167 203 76 q 101 387 101 257 q 182 707 101 576 q 386 903 264 839 q 632 967 509 967 q 818 922 733 967 q 955 786 903 877 q 1007 566 1007 694 m 885 559 q 814 780 885 705 q 606 854 743 854 q 413 793 502 854 q 273 626 325 731 q 220 394 220 521 q 293 174 220 248 q 502 101 365 101 q 694 161 606 101 q 834 327 783 222 q 885 559 885 432 z "},"Ó":{"ha":1052,"x_min":101,"x_max":1007,"o":"m 101 0 m 1007 566 q 925 246 1007 377 q 721 51 844 115 q 476 -12 599 -12 q 288 32 373 -12 q 152 167 203 76 q 101 387 101 257 q 182 707 101 576 q 386 903 264 839 q 632 967 509 967 q 818 922 733 967 q 955 786 903 877 q 1007 566 1007 694 m 885 559 q 814 780 885 705 q 606 854 743 854 q 413 793 502 854 q 273 626 325 731 q 220 394 220 521 q 293 174 220 248 q 502 101 365 101 q 694 161 606 101 q 834 327 783 222 q 885 559 885 432 m 519 1017 l 493 1089 l 806 1224 l 835 1132 l 519 1017 z "},"Ŏ":{"ha":1052,"x_min":101,"x_max":1007,"o":"m 101 0 m 1007 566 q 925 246 1007 377 q 721 51 844 115 q 476 -12 599 -12 q 288 32 373 -12 q 152 167 203 76 q 101 387 101 257 q 182 707 101 576 q 386 903 264 839 q 632 967 509 967 q 818 922 733 967 q 955 786 903 877 q 1007 566 1007 694 m 885 559 q 814 780 885 705 q 606 854 743 854 q 413 793 502 854 q 273 626 325 731 q 220 394 220 521 q 293 174 220 248 q 502 101 365 101 q 694 161 606 101 q 834 327 783 222 q 885 559 885 432 m 656 1038 q 464 1167 531 1038 l 536 1208 q 594 1143 566 1165 q 660 1122 622 1122 q 740 1146 701 1122 q 823 1215 778 1170 l 887 1160 q 780 1070 840 1102 q 656 1038 720 1038 z "},"Ô":{"ha":1052,"x_min":101,"x_max":1007,"o":"m 101 0 m 1007 566 q 925 246 1007 377 q 721 51 844 115 q 476 -12 599 -12 q 288 32 373 -12 q 152 167 203 76 q 101 387 101 257 q 182 707 101 576 q 386 903 264 839 q 632 967 509 967 q 818 922 733 967 q 955 786 903 877 q 1007 566 1007 694 m 885 559 q 814 780 885 705 q 606 854 743 854 q 413 793 502 854 q 273 626 325 731 q 220 394 220 521 q 293 174 220 248 q 502 101 365 101 q 694 161 606 101 q 834 327 783 222 q 885 559 885 432 m 804 1021 l 660 1142 l 479 1023 l 429 1090 l 667 1250 l 865 1080 l 804 1021 z "},"Ö":{"ha":1052,"x_min":101,"x_max":1007,"o":"m 101 0 m 1007 566 q 925 246 1007 377 q 721 51 844 115 q 476 -12 599 -12 q 288 32 373 -12 q 152 167 203 76 q 101 387 101 257 q 182 707 101 576 q 386 903 264 839 q 632 967 509 967 q 818 922 733 967 q 955 786 903 877 q 1007 566 1007 694 m 885 559 q 814 780 885 705 q 606 854 743 854 q 413 793 502 854 q 273 626 325 731 q 220 394 220 521 q 293 174 220 248 q 502 101 365 101 q 694 161 606 101 q 834 327 783 222 q 885 559 885 432 m 523 1068 q 481 1085 498 1068 q 464 1127 464 1102 q 465 1141 464 1135 q 490 1180 469 1163 q 533 1196 510 1196 q 576 1179 559 1196 q 592 1135 592 1161 q 571 1089 592 1111 q 523 1068 550 1068 m 797 1068 q 755 1085 773 1068 q 738 1127 738 1102 q 740 1141 738 1135 q 764 1180 743 1163 q 807 1196 785 1196 q 850 1179 833 1196 q 866 1135 866 1161 q 845 1089 866 1111 q 797 1068 825 1068 z "},"Ò":{"ha":1052,"x_min":101,"x_max":1007,"o":"m 101 0 m 1007 566 q 925 246 1007 377 q 721 51 844 115 q 476 -12 599 -12 q 288 32 373 -12 q 152 167 203 76 q 101 387 101 257 q 182 707 101 576 q 386 903 264 839 q 632 967 509 967 q 818 922 733 967 q 955 786 903 877 q 1007 566 1007 694 m 885 559 q 814 780 885 705 q 606 854 743 854 q 413 793 502 854 q 273 626 325 731 q 220 394 220 521 q 293 174 220 248 q 502 101 365 101 q 694 161 606 101 q 834 327 783 222 q 885 559 885 432 m 835 1089 l 786 1017 l 512 1132 l 571 1224 l 835 1089 z "},"Ő":{"ha":1052,"x_min":101,"x_max":1108,"o":"m 427 1017 l 401 1089 l 714 1224 l 743 1132 l 427 1017 m 792 1017 l 766 1089 l 1078 1224 l 1108 1132 l 792 1017 m 1007 566 q 925 246 1007 377 q 721 51 844 115 q 476 -12 599 -12 q 288 32 373 -12 q 152 167 203 76 q 101 387 101 257 q 182 707 101 576 q 386 903 264 839 q 632 967 509 967 q 818 922 733 967 q 955 786 903 877 q 1007 566 1007 694 m 885 559 q 814 780 885 705 q 606 854 743 854 q 413 793 502 854 q 273 626 325 731 q 220 394 220 521 q 293 174 220 248 q 502 101 365 101 q 694 161 606 101 q 834 327 783 222 q 885 559 885 432 z "},"Ō":{"ha":1052,"x_min":101,"x_max":1007,"o":"m 101 0 m 1007 566 q 925 246 1007 377 q 721 51 844 115 q 476 -12 599 -12 q 288 32 373 -12 q 152 167 203 76 q 101 387 101 257 q 182 707 101 576 q 386 903 264 839 q 632 967 509 967 q 818 922 733 967 q 955 786 903 877 q 1007 566 1007 694 m 885 559 q 814 780 885 705 q 606 854 743 854 q 413 793 502 854 q 273 626 325 731 q 220 394 220 521 q 293 174 220 248 q 502 101 365 101 q 694 161 606 101 q 834 327 783 222 q 885 559 885 432 m 858 1071 l 443 1071 l 460 1158 l 875 1158 l 858 1071 z "},"Ø":{"ha":1123,"x_min":0,"x_max":1179,"o":"m 1009 750 q 1043 566 1043 670 q 962 246 1043 377 q 758 51 880 115 q 512 -12 635 -12 q 350 20 425 -12 q 222 116 274 52 l 63 -14 l 0 64 l 172 203 q 137 387 137 281 q 219 707 137 576 q 423 903 300 839 q 668 967 545 967 q 830 934 753 967 q 958 837 906 901 l 1118 965 l 1179 887 l 1009 750 m 257 394 q 271 281 257 333 l 866 762 q 642 854 795 854 q 450 793 538 854 q 309 626 361 731 q 257 394 257 521 m 922 559 q 908 670 922 618 l 314 189 q 538 101 385 101 q 731 161 642 101 q 871 327 819 222 q 922 559 922 432 z "},"Õ":{"ha":1052,"x_min":101,"x_max":1007,"o":"m 101 0 m 1007 566 q 925 246 1007 377 q 721 51 844 115 q 476 -12 599 -12 q 288 32 373 -12 q 152 167 203 76 q 101 387 101 257 q 182 707 101 576 q 386 903 264 839 q 632 967 509 967 q 818 922 733 967 q 955 786 903 877 q 1007 566 1007 694 m 885 559 q 814 780 885 705 q 606 854 743 854 q 413 793 502 854 q 273 626 325 731 q 220 394 220 521 q 293 174 220 248 q 502 101 365 101 q 694 161 606 101 q 834 327 783 222 q 885 559 885 432 m 585 1193 q 631 1181 611 1193 q 681 1149 651 1170 q 747 1115 722 1115 q 794 1135 774 1115 q 833 1196 814 1156 l 910 1165 q 842 1067 884 1102 q 743 1031 800 1031 q 689 1043 712 1031 q 635 1078 667 1054 q 608 1097 622 1089 q 582 1106 594 1106 q 536 1086 556 1106 q 497 1026 516 1066 l 422 1057 q 491 1157 450 1122 q 585 1193 533 1193 z "},"Œ":{"ha":1260,"x_min":92,"x_max":1292,"o":"m 1273 858 l 856 858 l 795 543 l 1175 543 l 1156 444 l 776 444 l 708 101 l 1125 101 l 1106 0 l 524 0 q 262 43 356 0 q 125 189 168 87 q 92 349 92 253 q 106 481 92 417 q 245 784 142 668 q 510 938 347 899 q 764 955 589 955 l 1292 955 l 1273 858 m 212 450 q 203 363 203 398 q 259 189 203 253 q 413 106 314 125 q 503 101 436 101 l 594 101 l 741 858 l 707 858 q 580 847 635 858 q 339 723 436 828 q 212 450 241 618 z "},"P":{"ha":807,"x_min":50,"x_max":823,"o":"m 816 665 q 726 494 788 552 q 576 416 663 436 q 363 396 490 396 q 247 399 286 396 l 165 0 l 50 0 l 236 955 l 524 955 q 743 903 663 955 q 823 736 823 851 q 816 665 823 700 m 380 497 q 602 534 521 497 q 705 689 682 571 q 708 727 708 703 q 675 813 708 781 q 585 852 642 845 q 460 858 563 858 l 332 858 l 259 502 q 380 497 328 497 z "},"Þ":{"ha":814,"x_min":52,"x_max":793,"o":"m 481 781 q 712 725 630 781 q 793 561 793 668 q 786 498 793 528 q 641 278 755 337 q 333 219 526 219 q 214 224 276 219 l 167 0 l 52 0 l 238 955 l 352 955 l 314 773 q 481 781 427 781 m 675 516 q 679 552 679 540 q 618 649 679 622 q 446 677 557 677 q 302 674 410 677 l 227 326 q 361 321 280 321 q 577 363 502 321 q 675 516 653 405 z "},"Q":{"ha":1057,"x_min":101,"x_max":1007,"o":"m 1007 566 q 965 330 1007 434 q 852 151 924 226 l 951 36 l 870 -38 l 767 80 q 624 11 700 35 q 476 -12 549 -12 q 288 32 373 -12 q 152 167 203 76 q 101 387 101 257 q 182 707 101 576 q 386 903 264 839 q 632 967 509 967 q 818 922 733 967 q 955 786 903 877 q 1007 566 1007 694 m 502 101 q 694 161 606 101 l 528 354 l 613 425 l 776 238 q 857 383 828 300 q 885 559 885 465 q 814 780 885 705 q 606 854 743 854 q 413 793 502 854 q 273 626 325 731 q 220 394 220 521 q 293 174 220 248 q 502 101 365 101 z "},"R":{"ha":859,"x_min":52,"x_max":825,"o":"m 243 396 l 167 0 l 52 0 l 238 955 l 552 955 q 754 898 684 955 q 825 729 825 840 q 755 534 825 623 q 550 410 686 444 l 738 0 l 611 0 l 436 396 l 243 396 m 373 497 q 630 555 550 497 q 710 729 710 613 q 678 818 710 790 q 598 852 646 845 q 462 858 550 858 l 333 858 l 260 497 l 373 497 z "},"Ŕ":{"ha":859,"x_min":52,"x_max":825,"o":"m 52 0 m 243 396 l 167 0 l 52 0 l 238 955 l 552 955 q 754 898 684 955 q 825 729 825 840 q 755 534 825 623 q 550 410 686 444 l 738 0 l 611 0 l 436 396 l 243 396 m 373 497 q 630 555 550 497 q 710 729 710 613 q 678 818 710 790 q 598 852 646 845 q 462 858 550 858 l 333 858 l 260 497 l 373 497 m 394 1017 l 368 1089 l 681 1224 l 710 1132 l 394 1017 z "},"Ř":{"ha":859,"x_min":52,"x_max":825,"o":"m 52 0 m 243 396 l 167 0 l 52 0 l 238 955 l 552 955 q 754 898 684 955 q 825 729 825 840 q 755 534 825 623 q 550 410 686 444 l 738 0 l 611 0 l 436 396 l 243 396 m 373 497 q 630 555 550 497 q 710 729 710 613 q 678 818 710 790 q 598 852 646 845 q 462 858 550 858 l 333 858 l 260 497 l 373 497 m 323 1198 l 384 1257 l 528 1135 l 708 1255 l 759 1188 l 521 1028 l 323 1198 z "},"Ŗ":{"ha":859,"x_min":52,"x_max":825,"o":"m 52 0 m 243 396 l 167 0 l 52 0 l 238 955 l 552 955 q 754 898 684 955 q 825 729 825 840 q 755 534 825 623 q 550 410 686 444 l 738 0 l 611 0 l 436 396 l 243 396 m 373 497 q 630 555 550 497 q 710 729 710 613 q 678 818 710 790 q 598 852 646 845 q 462 858 550 858 l 333 858 l 260 497 l 373 497 m 267 -345 l 170 -345 l 335 -83 l 457 -83 l 267 -345 z "},"S":{"ha":804,"x_min":16,"x_max":785,"o":"m 311 104 q 464 128 399 104 q 560 192 528 153 q 592 274 592 231 q 549 362 592 330 q 420 432 505 394 l 378 450 q 220 551 280 490 q 160 696 160 613 q 264 903 160 830 q 530 976 368 976 q 653 957 590 976 q 785 908 715 939 l 738 809 q 536 863 613 863 q 344 819 406 863 q 281 708 281 776 q 328 614 281 655 q 446 540 375 573 l 484 524 q 608 465 563 491 q 685 393 653 439 q 717 278 717 347 q 668 137 717 205 q 523 28 618 69 q 299 -14 427 -14 q 174 -1 226 -14 q 50 40 123 12 l 16 52 l 71 160 q 311 104 208 104 z "},"Ś":{"ha":804,"x_min":16,"x_max":785,"o":"m 16 0 m 311 104 q 464 128 399 104 q 560 192 528 153 q 592 274 592 231 q 549 362 592 330 q 420 432 505 394 l 378 450 q 220 551 280 490 q 160 696 160 613 q 264 903 160 830 q 530 976 368 976 q 653 957 590 976 q 785 908 715 939 l 738 809 q 536 863 613 863 q 344 819 406 863 q 281 708 281 776 q 328 614 281 655 q 446 540 375 573 l 484 524 q 608 465 563 491 q 685 393 653 439 q 717 278 717 347 q 668 137 717 205 q 523 28 618 69 q 299 -14 427 -14 q 174 -1 226 -14 q 50 40 123 12 l 16 52 l 71 160 q 311 104 208 104 m 410 1016 l 384 1087 l 696 1222 l 726 1130 l 410 1016 z "},"Š":{"ha":804,"x_min":16,"x_max":785,"o":"m 16 0 m 311 104 q 464 128 399 104 q 560 192 528 153 q 592 274 592 231 q 549 362 592 330 q 420 432 505 394 l 378 450 q 220 551 280 490 q 160 696 160 613 q 264 903 160 830 q 530 976 368 976 q 653 957 590 976 q 785 908 715 939 l 738 809 q 536 863 613 863 q 344 819 406 863 q 281 708 281 776 q 328 614 281 655 q 446 540 375 573 l 484 524 q 608 465 563 491 q 685 393 653 439 q 717 278 717 347 q 668 137 717 205 q 523 28 618 69 q 299 -14 427 -14 q 174 -1 226 -14 q 50 40 123 12 l 16 52 l 71 160 q 311 104 208 104 m 339 1196 l 399 1255 l 543 1134 l 724 1253 l 774 1186 l 536 1026 l 339 1196 z "},"Ş":{"ha":804,"x_min":16,"x_max":785,"o":"m 536 863 q 344 819 406 863 q 281 708 281 776 q 328 614 281 655 q 446 540 375 573 l 484 524 q 608 465 563 491 q 685 393 653 439 q 717 278 717 347 q 674 145 717 208 q 547 39 630 82 q 349 -12 464 -3 l 313 -87 q 417 -135 382 -106 q 451 -220 451 -163 q 446 -264 451 -240 q 385 -353 436 -318 q 267 -389 333 -389 q 199 -382 231 -389 q 135 -365 167 -375 q 92 -352 104 -356 l 132 -262 q 174 -277 146 -267 q 225 -291 203 -286 q 266 -295 247 -295 q 349 -241 340 -295 q 292 -179 359 -194 l 181 -153 l 243 -12 q 148 5 189 -7 q 68 32 106 17 q 16 52 30 47 l 71 160 q 311 104 208 104 q 464 128 399 104 q 560 192 528 153 q 592 274 592 231 q 549 362 592 330 q 420 432 505 394 l 378 450 q 220 551 280 490 q 160 696 160 613 q 264 903 160 830 q 530 976 368 976 q 653 957 590 976 q 785 908 715 939 l 738 809 q 536 863 613 863 z "},"Ș":{"ha":804,"x_min":16,"x_max":785,"o":"m 16 0 m 311 104 q 464 128 399 104 q 560 192 528 153 q 592 274 592 231 q 549 362 592 330 q 420 432 505 394 l 378 450 q 220 551 280 490 q 160 696 160 613 q 264 903 160 830 q 530 976 368 976 q 653 957 590 976 q 785 908 715 939 l 738 809 q 536 863 613 863 q 344 819 406 863 q 281 708 281 776 q 328 614 281 655 q 446 540 375 573 l 484 524 q 608 465 563 491 q 685 393 653 439 q 717 278 717 347 q 668 137 717 205 q 523 28 618 69 q 299 -14 427 -14 q 174 -1 226 -14 q 50 40 123 12 l 16 52 l 71 160 q 311 104 208 104 m 170 -342 l 73 -342 l 238 -80 l 359 -80 l 170 -342 z "},"T":{"ha":771,"x_min":118,"x_max":877,"o":"m 434 858 l 267 0 l 382 0 l 549 858 l 858 858 l 877 955 l 137 955 l 118 858 l 434 858 z "},"Ť":{"ha":771,"x_min":118,"x_max":877,"o":"m 118 0 m 434 858 l 267 0 l 382 0 l 549 858 l 858 858 l 877 955 l 137 955 l 118 858 l 434 858 m 325 1198 l 385 1257 l 530 1135 l 710 1255 l 760 1188 l 523 1028 l 325 1198 z "},"Ţ":{"ha":783,"x_min":118,"x_max":889,"o":"m 283 -297 q 375 -231 375 -297 q 318 -182 375 -196 l 201 -158 l 267 0 l 434 858 l 118 858 l 137 955 l 889 955 l 870 858 l 549 858 l 382 0 l 342 -90 l 359 -95 q 442 -138 410 -111 q 474 -219 474 -165 q 426 -339 474 -286 q 285 -392 378 -392 q 118 -356 217 -392 l 160 -266 q 283 -297 236 -297 z "},"Ț":{"ha":771,"x_min":83,"x_max":877,"o":"m 83 0 m 434 858 l 267 0 l 382 0 l 549 858 l 858 858 l 877 955 l 137 955 l 118 858 l 434 858 m 181 -345 l 83 -345 l 248 -83 l 370 -83 l 181 -345 z "},"U":{"ha":943,"x_min":101,"x_max":955,"o":"m 410 -16 q 176 49 252 -16 q 101 243 101 115 q 115 368 101 295 l 229 955 l 342 955 l 220 333 q 212 252 212 285 q 260 127 212 168 q 417 85 309 85 q 626 157 550 85 q 722 340 701 229 l 842 955 l 955 955 l 840 361 q 701 77 804 170 q 410 -16 599 -16 z "},"Ú":{"ha":943,"x_min":101,"x_max":955,"o":"m 101 0 m 410 -16 q 176 49 252 -16 q 101 243 101 115 q 115 368 101 295 l 229 955 l 342 955 l 220 333 q 212 252 212 285 q 260 127 212 168 q 417 85 309 85 q 626 157 550 85 q 722 340 701 229 l 842 955 l 955 955 l 840 361 q 701 77 804 170 q 410 -16 599 -16 m 451 1017 l 425 1089 l 738 1224 l 767 1132 l 451 1017 z "},"Ŭ":{"ha":943,"x_min":101,"x_max":955,"o":"m 101 0 m 410 -16 q 176 49 252 -16 q 101 243 101 115 q 115 368 101 295 l 229 955 l 342 955 l 220 333 q 212 252 212 285 q 260 127 212 168 q 417 85 309 85 q 626 157 550 85 q 722 340 701 229 l 842 955 l 955 955 l 840 361 q 701 77 804 170 q 410 -16 599 -16 m 589 1038 q 396 1167 464 1038 l 469 1208 q 526 1143 498 1165 q 592 1122 554 1122 q 672 1146 634 1122 q 755 1215 710 1170 l 819 1160 q 713 1070 773 1102 q 589 1038 653 1038 z "},"Û":{"ha":943,"x_min":101,"x_max":955,"o":"m 101 0 m 410 -16 q 176 49 252 -16 q 101 243 101 115 q 115 368 101 295 l 229 955 l 342 955 l 220 333 q 212 252 212 285 q 260 127 212 168 q 417 85 309 85 q 626 157 550 85 q 722 340 701 229 l 842 955 l 955 955 l 840 361 q 701 77 804 170 q 410 -16 599 -16 m 736 1021 l 592 1142 l 411 1023 l 361 1090 l 599 1250 l 797 1080 l 736 1021 z "},"Ü":{"ha":943,"x_min":101,"x_max":955,"o":"m 101 0 m 410 -16 q 176 49 252 -16 q 101 243 101 115 q 115 368 101 295 l 229 955 l 342 955 l 220 333 q 212 252 212 285 q 260 127 212 168 q 417 85 309 85 q 626 157 550 85 q 722 340 701 229 l 842 955 l 955 955 l 840 361 q 701 77 804 170 q 410 -16 599 -16 m 455 1068 q 413 1085 431 1068 q 396 1127 396 1102 q 398 1141 396 1135 q 422 1180 401 1163 q 465 1196 443 1196 q 508 1179 491 1196 q 524 1135 524 1161 q 503 1089 524 1111 q 455 1068 483 1068 m 729 1068 q 688 1085 705 1068 q 670 1127 670 1102 q 672 1141 670 1135 q 696 1180 675 1163 q 740 1196 717 1196 q 782 1179 766 1196 q 799 1135 799 1161 q 778 1089 799 1111 q 729 1068 757 1068 z "},"Ù":{"ha":943,"x_min":101,"x_max":955,"o":"m 101 0 m 410 -16 q 176 49 252 -16 q 101 243 101 115 q 115 368 101 295 l 229 955 l 342 955 l 220 333 q 212 252 212 285 q 260 127 212 168 q 417 85 309 85 q 626 157 550 85 q 722 340 701 229 l 842 955 l 955 955 l 840 361 q 701 77 804 170 q 410 -16 599 -16 m 767 1089 l 719 1017 l 444 1132 l 503 1224 l 767 1089 z "},"Ű":{"ha":943,"x_min":101,"x_max":1040,"o":"m 359 1017 l 333 1089 l 646 1224 l 675 1132 l 359 1017 m 724 1017 l 698 1089 l 1010 1224 l 1040 1132 l 724 1017 m 410 -16 q 176 49 252 -16 q 101 243 101 115 q 115 368 101 295 l 229 955 l 342 955 l 220 333 q 212 252 212 285 q 260 127 212 168 q 417 85 309 85 q 626 157 550 85 q 722 340 701 229 l 842 955 l 955 955 l 840 361 q 701 77 804 170 q 410 -16 599 -16 z "},"Ū":{"ha":943,"x_min":101,"x_max":955,"o":"m 101 0 m 410 -16 q 176 49 252 -16 q 101 243 101 115 q 115 368 101 295 l 229 955 l 342 955 l 220 333 q 212 252 212 285 q 260 127 212 168 q 417 85 309 85 q 626 157 550 85 q 722 340 701 229 l 842 955 l 955 955 l 840 361 q 701 77 804 170 q 410 -16 599 -16 m 790 1071 l 375 1071 l 392 1158 l 807 1158 l 790 1071 z "},"Ų":{"ha":941,"x_min":95,"x_max":955,"o":"m 372 -366 q 280 -334 314 -366 q 245 -252 245 -302 q 248 -220 245 -241 q 300 -113 262 -160 q 401 -16 339 -66 q 177 49 259 -17 q 95 233 95 115 q 99 276 95 245 l 115 363 l 127 425 l 229 955 l 344 955 l 222 333 q 212 240 212 276 q 234 151 212 189 q 417 85 286 85 q 584 128 509 85 q 691 247 660 170 q 722 340 712 283 l 842 955 l 955 955 l 830 313 q 756 133 807 198 q 613 21 705 68 q 345 -214 370 -90 q 344 -233 344 -220 q 392 -276 344 -276 q 531 -229 460 -276 l 563 -304 q 462 -351 514 -335 q 372 -366 410 -366 z "},"Ů":{"ha":943,"x_min":101,"x_max":955,"o":"m 101 0 m 410 -16 q 176 49 252 -16 q 101 243 101 115 q 115 368 101 295 l 229 955 l 342 955 l 220 333 q 212 252 212 285 q 260 127 212 168 q 417 85 309 85 q 626 157 550 85 q 722 340 701 229 l 842 955 l 955 955 l 840 361 q 701 77 804 170 q 410 -16 599 -16 m 455 1144 q 506 1266 455 1214 q 627 1319 557 1319 q 720 1283 684 1319 q 755 1193 755 1247 q 703 1070 755 1123 q 582 1017 651 1017 q 490 1053 524 1017 q 455 1144 455 1089 m 686 1179 q 674 1229 691 1207 q 627 1252 658 1252 q 552 1220 583 1252 q 521 1142 521 1188 q 536 1101 521 1116 q 580 1085 552 1085 q 648 1111 620 1085 q 686 1179 677 1137 z "},"Ũ":{"ha":943,"x_min":101,"x_max":955,"o":"m 101 0 m 410 -16 q 176 49 252 -16 q 101 243 101 115 q 115 368 101 295 l 229 955 l 342 955 l 220 333 q 212 252 212 285 q 260 127 212 168 q 417 85 309 85 q 626 157 550 85 q 722 340 701 229 l 842 955 l 955 955 l 840 361 q 701 77 804 170 q 410 -16 599 -16 m 517 1193 q 563 1181 543 1193 q 613 1149 583 1170 q 679 1115 655 1115 q 727 1135 707 1115 q 766 1196 747 1156 l 842 1165 q 774 1067 816 1102 q 675 1031 733 1031 q 622 1043 644 1031 q 568 1078 599 1054 q 540 1097 554 1089 q 514 1106 526 1106 q 468 1086 488 1106 q 429 1026 448 1066 l 354 1057 q 424 1157 382 1122 q 517 1193 465 1193 z "},"V":{"ha":833,"x_min":137,"x_max":939,"o":"m 427 0 l 939 955 l 807 955 l 373 120 l 262 955 l 137 955 l 280 0 l 427 0 z "},"W":{"ha":1283,"x_min":137,"x_max":1389,"o":"m 333 0 l 727 733 l 792 0 l 944 0 l 1389 955 l 1255 955 l 891 153 l 821 955 l 712 955 l 297 153 l 266 955 l 137 955 l 194 0 l 333 0 z "},"X":{"ha":839,"x_min":-49,"x_max":932,"o":"m 759 0 l 622 2 l 438 389 l 97 0 l -49 2 l 387 495 l 167 957 l 299 955 l 472 594 l 792 955 l 932 955 l 524 488 l 759 0 z "},"Y":{"ha":788,"x_min":137,"x_max":894,"o":"m 894 955 l 759 955 l 432 563 l 264 955 l 137 955 l 354 441 l 269 0 l 384 0 l 467 432 l 894 955 z "},"Ý":{"ha":788,"x_min":137,"x_max":894,"o":"m 137 0 m 894 955 l 759 955 l 432 563 l 264 955 l 137 955 l 354 441 l 269 0 l 384 0 l 467 432 l 894 955 m 394 1017 l 368 1089 l 681 1224 l 710 1132 l 394 1017 z "},"Ŷ":{"ha":788,"x_min":137,"x_max":894,"o":"m 137 0 m 894 955 l 759 955 l 432 563 l 264 955 l 137 955 l 354 441 l 269 0 l 384 0 l 467 432 l 894 955 m 679 1021 l 535 1142 l 354 1023 l 304 1090 l 542 1250 l 740 1080 l 679 1021 z "},"Ÿ":{"ha":788,"x_min":137,"x_max":894,"o":"m 137 0 m 894 955 l 759 955 l 432 563 l 264 955 l 137 955 l 354 441 l 269 0 l 384 0 l 467 432 l 894 955 m 398 1068 q 356 1085 373 1068 q 339 1127 339 1102 q 340 1141 339 1135 q 365 1180 344 1163 q 408 1196 385 1196 q 451 1179 434 1196 q 467 1135 467 1161 q 446 1089 467 1111 q 398 1068 425 1068 m 672 1068 q 630 1085 648 1068 q 613 1127 613 1102 q 615 1141 613 1135 q 639 1180 618 1163 q 682 1196 660 1196 q 725 1179 708 1196 q 741 1135 741 1161 q 720 1089 741 1111 q 672 1068 700 1068 z "},"Z":{"ha":825,"x_min":-2,"x_max":880,"o":"m 694 858 l 14 75 l -2 0 l 698 0 l 717 101 l 181 101 l 865 884 l 880 955 l 203 955 l 184 858 l 694 858 z "},"Ź":{"ha":825,"x_min":-2,"x_max":880,"o":"m 0 0 m 694 858 l 14 75 l -2 0 l 698 0 l 717 101 l 181 101 l 865 884 l 880 955 l 203 955 l 184 858 l 694 858 m 411 1017 l 385 1089 l 698 1224 l 727 1132 l 411 1017 z "},"Ž":{"ha":825,"x_min":-2,"x_max":880,"o":"m 0 0 m 694 858 l 14 75 l -2 0 l 698 0 l 717 101 l 181 101 l 865 884 l 880 955 l 203 955 l 184 858 l 694 858 m 340 1198 l 401 1257 l 545 1135 l 726 1255 l 776 1188 l 538 1028 l 340 1198 z "},"Ż":{"ha":825,"x_min":-2,"x_max":880,"o":"m 0 0 m 694 858 l 14 75 l -2 0 l 698 0 l 717 101 l 181 101 l 865 884 l 880 955 l 203 955 l 184 858 l 694 858 m 552 1075 q 506 1093 524 1075 q 488 1139 488 1111 q 490 1156 488 1149 q 516 1201 493 1182 q 568 1220 540 1220 q 615 1202 597 1220 q 634 1155 634 1184 q 609 1099 634 1123 q 552 1075 583 1075 z "},"a":{"ha":682,"x_min":31,"x_max":616,"o":"m 366 578 q 275 569 328 578 q 181 549 222 561 l 165 635 q 387 674 285 674 q 557 633 498 674 q 616 498 616 592 q 609 427 616 462 l 526 0 l 443 0 l 432 59 q 217 -17 321 -17 q 83 26 135 -17 q 31 139 31 69 q 90 287 31 227 q 229 366 149 347 q 491 391 319 387 q 505 484 505 450 q 474 556 505 535 q 366 578 443 578 m 236 73 q 444 153 344 73 l 477 309 q 300 293 363 307 q 192 251 231 280 q 142 170 153 222 q 141 151 141 163 q 168 94 141 115 q 236 73 196 73 z "},"á":{"ha":682,"x_min":31,"x_max":616,"o":"m 31 0 m 366 578 q 275 569 328 578 q 181 549 222 561 l 165 635 q 387 674 285 674 q 557 633 498 674 q 616 498 616 592 q 609 427 616 462 l 526 0 l 443 0 l 432 59 q 217 -17 321 -17 q 83 26 135 -17 q 31 139 31 69 q 90 287 31 227 q 229 366 149 347 q 491 391 319 387 q 505 484 505 450 q 474 556 505 535 q 366 578 443 578 m 236 73 q 444 153 344 73 l 477 309 q 300 293 363 307 q 192 251 231 280 q 142 170 153 222 q 141 151 141 163 q 168 94 141 115 q 236 73 196 73 m 592 955 l 292 741 l 241 813 l 536 1035 l 592 955 z "},"ă":{"ha":682,"x_min":31,"x_max":646,"o":"m 31 0 m 366 578 q 275 569 328 578 q 181 549 222 561 l 165 635 q 387 674 285 674 q 557 633 498 674 q 616 498 616 592 q 609 427 616 462 l 526 0 l 443 0 l 432 59 q 217 -17 321 -17 q 83 26 135 -17 q 31 139 31 69 q 90 287 31 227 q 229 366 149 347 q 491 391 319 387 q 505 484 505 450 q 474 556 505 535 q 366 578 443 578 m 236 73 q 444 153 344 73 l 477 309 q 300 293 363 307 q 192 251 231 280 q 142 170 153 222 q 141 151 141 163 q 168 94 141 115 q 236 73 196 73 m 418 837 q 506 867 470 837 q 573 948 542 898 l 646 906 q 550 798 609 842 q 415 753 491 753 q 293 801 335 753 q 238 915 250 849 l 313 941 q 350 864 328 891 q 418 837 372 837 z "},"ǎ":{"ha":682,"x_min":31,"x_max":644,"o":"m 31 0 m 366 578 q 275 569 328 578 q 181 549 222 561 l 165 635 q 387 674 285 674 q 557 633 498 674 q 616 498 616 592 q 609 427 616 462 l 526 0 l 443 0 l 432 59 q 217 -17 321 -17 q 83 26 135 -17 q 31 139 31 69 q 90 287 31 227 q 229 366 149 347 q 491 391 319 387 q 505 484 505 450 q 474 556 505 535 q 366 578 443 578 m 236 73 q 444 153 344 73 l 477 309 q 300 293 363 307 q 192 251 231 280 q 142 170 153 222 q 141 151 141 163 q 168 94 141 115 q 236 73 196 73 m 231 969 l 299 1028 l 415 884 l 585 1026 l 644 962 l 403 750 l 231 969 z "},"â":{"ha":682,"x_min":31,"x_max":630,"o":"m 31 0 m 366 578 q 275 569 328 578 q 181 549 222 561 l 165 635 q 387 674 285 674 q 557 633 498 674 q 616 498 616 592 q 609 427 616 462 l 526 0 l 443 0 l 432 59 q 217 -17 321 -17 q 83 26 135 -17 q 31 139 31 69 q 90 287 31 227 q 229 366 149 347 q 491 391 319 387 q 505 484 505 450 q 474 556 505 535 q 366 578 443 578 m 236 73 q 444 153 344 73 l 477 309 q 300 293 363 307 q 192 251 231 280 q 142 170 153 222 q 141 151 141 163 q 168 94 141 115 q 236 73 196 73 m 563 750 l 446 894 l 276 752 l 217 816 l 458 1028 l 630 809 l 563 750 z "},"ä":{"ha":682,"x_min":31,"x_max":620,"o":"m 31 0 m 366 578 q 275 569 328 578 q 181 549 222 561 l 165 635 q 387 674 285 674 q 557 633 498 674 q 616 498 616 592 q 609 427 616 462 l 526 0 l 443 0 l 432 59 q 217 -17 321 -17 q 83 26 135 -17 q 31 139 31 69 q 90 287 31 227 q 229 366 149 347 q 491 391 319 387 q 505 484 505 450 q 474 556 505 535 q 366 578 443 578 m 236 73 q 444 153 344 73 l 477 309 q 300 293 363 307 q 192 251 231 280 q 142 170 153 222 q 141 151 141 163 q 168 94 141 115 q 236 73 196 73 m 306 807 q 265 824 281 807 q 248 865 248 840 q 250 880 248 875 q 274 919 253 903 q 318 936 295 936 q 364 914 347 936 q 375 863 380 892 q 349 824 370 840 q 306 807 328 807 m 545 807 q 504 824 521 807 q 488 865 488 840 q 490 880 488 875 q 514 919 493 903 q 557 936 535 936 q 603 914 587 936 q 615 863 620 892 q 589 824 609 840 q 545 807 568 807 z "},"à":{"ha":682,"x_min":31,"x_max":616,"o":"m 31 0 m 366 578 q 275 569 328 578 q 181 549 222 561 l 165 635 q 387 674 285 674 q 557 633 498 674 q 616 498 616 592 q 609 427 616 462 l 526 0 l 443 0 l 432 59 q 217 -17 321 -17 q 83 26 135 -17 q 31 139 31 69 q 90 287 31 227 q 229 366 149 347 q 491 391 319 387 q 505 484 505 450 q 474 556 505 535 q 366 578 443 578 m 236 73 q 444 153 344 73 l 477 309 q 300 293 363 307 q 192 251 231 280 q 142 170 153 222 q 141 151 141 163 q 168 94 141 115 q 236 73 196 73 m 495 741 l 274 955 l 347 1030 l 563 807 l 495 741 z "},"ā":{"ha":682,"x_min":31,"x_max":616,"o":"m 31 0 m 366 578 q 275 569 328 578 q 181 549 222 561 l 165 635 q 387 674 285 674 q 557 633 498 674 q 616 498 616 592 q 609 427 616 462 l 526 0 l 443 0 l 432 59 q 217 -17 321 -17 q 83 26 135 -17 q 31 139 31 69 q 90 287 31 227 q 229 366 149 347 q 491 391 319 387 q 505 484 505 450 q 474 556 505 535 q 366 578 443 578 m 236 73 q 444 153 344 73 l 477 309 q 300 293 363 307 q 192 251 231 280 q 142 170 153 222 q 141 151 141 163 q 168 94 141 115 q 236 73 196 73 m 597 809 l 238 809 l 255 899 l 615 899 l 597 809 z "},"ą":{"ha":686,"x_min":31,"x_max":616,"o":"m 526 -21 q 253 -222 269 -134 q 252 -240 252 -229 q 304 -285 252 -285 q 425 -245 354 -285 l 455 -309 q 264 -372 335 -372 q 177 -344 212 -372 q 142 -267 142 -316 q 144 -241 142 -250 q 206 -131 156 -181 q 349 -31 255 -82 l 439 14 l 441 66 q 205 -17 323 -17 q 78 24 125 -17 q 31 134 31 66 q 35 175 31 161 q 105 299 50 250 q 229 366 160 349 q 491 391 319 387 q 503 483 503 441 q 473 556 503 535 q 366 578 443 578 q 276 569 328 578 q 181 549 224 561 l 167 635 q 387 674 285 674 q 558 633 500 674 q 616 498 616 592 q 609 427 616 462 l 526 -21 m 238 73 q 344 94 297 73 q 441 153 391 115 l 477 309 q 300 293 363 307 q 192 251 231 280 q 142 170 153 222 q 141 151 141 163 q 169 94 141 115 q 238 73 198 73 z "},"å":{"ha":682,"x_min":31,"x_max":616,"o":"m 31 0 m 366 578 q 275 569 328 578 q 181 549 222 561 l 165 635 q 387 674 285 674 q 557 633 498 674 q 616 498 616 592 q 609 427 616 462 l 526 0 l 443 0 l 432 59 q 217 -17 321 -17 q 83 26 135 -17 q 31 139 31 69 q 90 287 31 227 q 229 366 149 347 q 491 391 319 387 q 505 484 505 450 q 474 556 505 535 q 366 578 443 578 m 236 73 q 444 153 344 73 l 477 309 q 300 293 363 307 q 192 251 231 280 q 142 170 153 222 q 141 151 141 163 q 168 94 141 115 q 236 73 196 73 m 288 915 q 350 1015 299 972 q 460 1057 401 1057 q 557 1022 523 1057 q 592 931 592 986 q 589 898 592 922 q 525 798 576 840 q 417 755 474 755 q 319 790 352 755 q 285 878 285 825 q 288 915 285 891 m 523 929 q 506 971 523 955 q 462 988 490 988 q 395 963 424 988 q 358 898 366 938 q 356 880 356 891 q 372 840 356 856 q 413 825 387 825 q 482 851 451 825 q 521 915 512 877 l 523 929 z "},"ã":{"ha":682,"x_min":31,"x_max":674,"o":"m 31 0 m 366 578 q 275 569 328 578 q 181 549 222 561 l 165 635 q 387 674 285 674 q 557 633 498 674 q 616 498 616 592 q 609 427 616 462 l 526 0 l 443 0 l 432 59 q 217 -17 321 -17 q 83 26 135 -17 q 31 139 31 69 q 90 287 31 227 q 229 366 149 347 q 491 391 319 387 q 505 484 505 450 q 474 556 505 535 q 366 578 443 578 m 236 73 q 444 153 344 73 l 477 309 q 300 293 363 307 q 192 251 231 280 q 142 170 153 222 q 141 151 141 163 q 168 94 141 115 q 236 73 196 73 m 352 931 q 397 919 377 931 q 448 885 417 908 q 510 852 488 852 q 560 873 540 852 q 599 934 580 894 l 674 901 q 605 805 649 840 q 503 769 561 769 q 449 780 470 769 q 399 814 427 792 q 372 835 385 826 q 345 844 358 844 q 300 823 319 844 q 262 764 281 802 l 188 797 q 257 895 214 859 q 352 931 300 931 z "},"æ":{"ha":1094,"x_min":31,"x_max":1045,"o":"m 818 675 q 987 619 929 675 q 1045 458 1045 563 q 1036 370 1045 410 l 1028 313 l 1017 299 l 573 295 q 566 231 566 266 q 615 118 566 156 q 766 80 663 80 q 934 108 849 80 l 946 21 q 731 -14 837 -14 q 498 101 547 -14 q 371 12 443 42 q 217 -17 299 -17 q 83 26 135 -17 q 31 139 31 69 q 35 175 31 151 q 102 298 49 250 q 226 363 155 345 q 491 391 342 391 q 503 477 503 438 q 472 554 503 530 q 366 578 441 578 q 275 569 328 578 q 181 549 222 561 l 165 635 q 387 674 285 674 q 587 578 536 674 q 694 652 639 628 q 818 675 750 675 m 929 392 q 936 458 936 422 q 909 552 936 517 q 825 587 882 587 q 592 385 660 587 l 929 392 m 236 73 q 346 93 299 73 q 439 153 394 113 l 477 309 q 327 300 389 307 q 210 264 266 293 q 142 170 155 234 q 141 146 141 161 q 236 73 141 73 z "},"b":{"ha":762,"x_min":36,"x_max":703,"o":"m 36 0 l 215 924 l 328 924 l 273 651 q 436 681 340 681 q 632 609 561 681 q 703 411 703 536 q 693 318 703 368 q 569 76 665 167 q 330 -14 474 -14 q 149 49 231 -14 l 118 0 l 36 0 m 307 82 q 488 144 422 82 q 580 342 554 207 q 589 418 589 389 q 546 543 589 498 q 418 589 503 589 q 262 561 339 589 l 168 120 q 234 90 203 99 q 307 82 264 82 z "},"c":{"ha":635,"x_min":59,"x_max":642,"o":"m 332 -16 q 130 50 201 -16 q 59 231 59 116 q 100 444 59 344 q 234 610 141 545 q 474 675 326 675 q 642 637 559 675 l 604 557 q 474 582 542 582 q 246 484 318 582 q 174 257 174 387 q 228 120 174 156 q 372 83 283 83 q 505 108 438 83 l 526 21 q 427 -7 470 2 q 332 -16 384 -16 z "},"ć":{"ha":635,"x_min":59,"x_max":653,"o":"m 59 0 m 332 -16 q 130 50 201 -16 q 59 231 59 116 q 100 444 59 344 q 234 610 141 545 q 474 675 326 675 q 642 637 559 675 l 604 557 q 474 582 542 582 q 246 484 318 582 q 174 257 174 387 q 228 120 174 156 q 372 83 283 83 q 505 108 438 83 l 526 21 q 427 -7 470 2 q 332 -16 384 -16 m 653 955 l 352 741 l 302 813 l 597 1035 l 653 955 z "},"č":{"ha":635,"x_min":59,"x_max":705,"o":"m 59 0 m 332 -16 q 130 50 201 -16 q 59 231 59 116 q 100 444 59 344 q 234 610 141 545 q 474 675 326 675 q 642 637 559 675 l 604 557 q 474 582 542 582 q 246 484 318 582 q 174 257 174 387 q 228 120 174 156 q 372 83 283 83 q 505 108 438 83 l 526 21 q 427 -7 470 2 q 332 -16 384 -16 m 292 969 l 359 1028 l 476 884 l 646 1026 l 705 962 l 464 750 l 292 969 z "},"ç":{"ha":635,"x_min":-12,"x_max":642,"o":"m 474 582 q 246 484 318 582 q 174 257 174 387 q 228 120 174 156 q 372 83 283 83 q 505 108 438 83 l 526 21 q 427 -7 470 2 q 332 -16 384 -16 q 238 -5 280 -16 l 200 -85 q 293 -130 262 -102 q 325 -208 325 -158 q 280 -318 325 -276 q 151 -359 236 -359 q 92 -353 116 -359 q 34 -336 68 -347 q -12 -321 0 -325 l 24 -247 q 116 -274 90 -269 q 165 -280 142 -280 q 215 -265 198 -280 q 240 -219 233 -250 q 184 -165 247 -179 l 89 -141 l 160 19 l 174 19 q 89 103 118 49 q 59 229 59 158 q 100 444 59 342 q 234 610 141 545 q 474 675 326 675 q 642 637 559 675 l 604 557 q 474 582 542 582 z "},"ĉ":{"ha":635,"x_min":59,"x_max":691,"o":"m 59 0 m 332 -16 q 130 50 201 -16 q 59 231 59 116 q 100 444 59 344 q 234 610 141 545 q 474 675 326 675 q 642 637 559 675 l 604 557 q 474 582 542 582 q 246 484 318 582 q 174 257 174 387 q 228 120 174 156 q 372 83 283 83 q 505 108 438 83 l 526 21 q 427 -7 470 2 q 332 -16 384 -16 m 623 750 l 507 894 l 337 752 l 278 816 l 519 1028 l 691 809 l 623 750 z "},"ċ":{"ha":635,"x_min":59,"x_max":642,"o":"m 59 0 m 332 -16 q 130 50 201 -16 q 59 231 59 116 q 100 444 59 344 q 234 610 141 545 q 474 675 326 675 q 642 637 559 675 l 604 557 q 474 582 542 582 q 246 484 318 582 q 174 257 174 387 q 228 120 174 156 q 372 83 283 83 q 505 108 438 83 l 526 21 q 427 -7 470 2 q 332 -16 384 -16 m 486 809 q 439 828 458 809 q 420 875 420 847 q 444 931 420 908 q 500 955 469 955 q 548 937 530 955 q 566 889 566 918 q 542 832 566 856 q 486 809 517 809 z "},"d":{"ha":762,"x_min":56,"x_max":780,"o":"m 314 -14 q 122 54 188 -14 q 56 238 56 122 q 66 335 56 283 q 197 589 97 498 q 450 681 297 681 q 604 648 543 681 l 661 924 l 780 924 l 599 0 l 517 0 l 509 45 q 314 -14 406 -14 m 340 82 q 428 92 389 82 q 510 123 467 102 l 594 564 q 455 589 540 589 q 274 516 345 589 q 181 325 203 444 q 174 250 174 290 q 214 127 174 172 q 340 82 255 82 z "},"ð":{"ha":771,"x_min":49,"x_max":774,"o":"m 658 835 q 740 575 740 726 q 724 436 740 510 q 574 113 684 240 q 307 -14 464 -14 q 116 56 184 -14 q 49 233 49 125 q 56 299 49 269 q 129 470 73 392 q 267 591 186 547 q 441 635 349 635 q 627 571 523 635 q 563 778 627 698 l 425 696 l 389 762 l 507 833 q 394 898 464 866 l 458 984 q 606 892 545 948 l 740 972 l 774 905 l 658 835 m 311 89 q 465 161 398 89 q 572 325 533 233 q 611 464 611 417 q 530 515 566 497 q 441 533 493 533 q 269 470 349 533 q 170 316 189 406 q 161 245 161 273 q 200 130 161 172 q 311 89 238 89 z "},"ď":{"ha":854,"x_min":56,"x_max":1005,"o":"m 891 755 l 811 755 l 901 1017 l 1005 1017 l 891 755 m 314 -14 q 122 54 188 -14 q 56 238 56 122 q 66 335 56 283 q 197 589 97 498 q 450 681 297 681 q 604 648 543 681 l 661 924 l 780 924 l 599 0 l 517 0 l 509 45 q 314 -14 406 -14 m 340 82 q 428 92 389 82 q 510 123 467 102 l 594 564 q 455 589 540 589 q 274 516 345 589 q 181 325 203 444 q 174 250 174 290 q 214 127 174 172 q 340 82 255 82 z "},"đ":{"ha":774,"x_min":56,"x_max":861,"o":"m 314 -14 q 122 54 188 -14 q 56 238 56 122 q 66 335 56 283 q 197 589 97 498 q 450 681 297 681 q 604 648 543 681 l 630 762 l 451 762 l 467 842 l 646 842 l 661 924 l 780 924 l 764 842 l 861 842 l 845 762 l 748 762 l 599 0 l 517 0 l 509 45 q 314 -14 406 -14 m 340 82 q 427 92 389 82 q 509 123 465 102 l 594 564 q 455 589 540 589 q 274 516 345 589 q 181 325 203 444 q 174 250 174 290 q 214 127 174 172 q 340 82 255 82 z "},"e":{"ha":698,"x_min":56,"x_max":648,"o":"m 424 675 q 648 451 648 675 q 641 370 648 429 l 632 313 l 623 299 l 168 295 q 161 238 161 253 q 373 80 161 80 q 542 108 458 80 l 554 21 q 337 -14 446 -14 q 128 50 200 -14 q 56 234 56 115 q 66 330 56 278 q 196 580 97 484 q 424 675 295 675 m 536 392 q 543 457 543 422 q 516 552 543 517 q 432 587 488 587 q 277 530 339 587 q 188 385 215 472 l 536 392 z "},"é":{"ha":698,"x_min":56,"x_max":648,"o":"m 56 0 m 424 675 q 648 451 648 675 q 641 370 648 429 l 632 313 l 623 299 l 168 295 q 161 238 161 253 q 373 80 161 80 q 542 108 458 80 l 554 21 q 337 -14 446 -14 q 128 50 200 -14 q 56 234 56 115 q 66 330 56 278 q 196 580 97 484 q 424 675 295 675 m 536 392 q 543 457 543 422 q 516 552 543 517 q 432 587 488 587 q 277 530 339 587 q 188 385 215 472 l 536 392 m 618 955 l 318 741 l 267 813 l 563 1035 l 618 955 z "},"ĕ":{"ha":698,"x_min":56,"x_max":672,"o":"m 56 0 m 424 675 q 648 451 648 675 q 641 370 648 429 l 632 313 l 623 299 l 168 295 q 161 238 161 253 q 373 80 161 80 q 542 108 458 80 l 554 21 q 337 -14 446 -14 q 128 50 200 -14 q 56 234 56 115 q 66 330 56 278 q 196 580 97 484 q 424 675 295 675 m 536 392 q 543 457 543 422 q 516 552 543 517 q 432 587 488 587 q 277 530 339 587 q 188 385 215 472 l 536 392 m 444 837 q 532 867 497 837 q 599 948 568 898 l 672 906 q 576 798 635 842 q 441 753 517 753 q 319 801 361 753 q 264 915 276 849 l 339 941 q 376 864 354 891 q 444 837 398 837 z "},"ě":{"ha":698,"x_min":56,"x_max":670,"o":"m 56 0 m 424 675 q 648 451 648 675 q 641 370 648 429 l 632 313 l 623 299 l 168 295 q 161 238 161 253 q 373 80 161 80 q 542 108 458 80 l 554 21 q 337 -14 446 -14 q 128 50 200 -14 q 56 234 56 115 q 66 330 56 278 q 196 580 97 484 q 424 675 295 675 m 536 392 q 543 457 543 422 q 516 552 543 517 q 432 587 488 587 q 277 530 339 587 q 188 385 215 472 l 536 392 m 257 969 l 325 1028 l 441 884 l 611 1026 l 670 962 l 429 750 l 257 969 z "},"ê":{"ha":698,"x_min":56,"x_max":656,"o":"m 56 0 m 424 675 q 648 451 648 675 q 641 370 648 429 l 632 313 l 623 299 l 168 295 q 161 238 161 253 q 373 80 161 80 q 542 108 458 80 l 554 21 q 337 -14 446 -14 q 128 50 200 -14 q 56 234 56 115 q 66 330 56 278 q 196 580 97 484 q 424 675 295 675 m 536 392 q 543 457 543 422 q 516 552 543 517 q 432 587 488 587 q 277 530 339 587 q 188 385 215 472 l 536 392 m 589 750 l 472 894 l 302 752 l 243 816 l 484 1028 l 656 809 l 589 750 z "},"ë":{"ha":698,"x_min":56,"x_max":648,"o":"m 56 0 m 424 675 q 648 451 648 675 q 641 370 648 429 l 632 313 l 623 299 l 168 295 q 161 238 161 253 q 373 80 161 80 q 542 108 458 80 l 554 21 q 337 -14 446 -14 q 128 50 200 -14 q 56 234 56 115 q 66 330 56 278 q 196 580 97 484 q 424 675 295 675 m 536 392 q 543 457 543 422 q 516 552 543 517 q 432 587 488 587 q 277 530 339 587 q 188 385 215 472 l 536 392 m 332 807 q 291 824 307 807 q 274 865 274 840 q 276 880 274 875 q 300 919 280 903 q 344 936 321 936 q 390 914 373 936 q 401 863 406 892 q 375 824 396 840 q 332 807 354 807 m 571 807 q 530 824 547 807 q 514 865 514 840 q 516 880 514 875 q 540 919 519 903 q 583 936 561 936 q 629 914 613 936 q 641 863 646 892 q 615 824 635 840 q 571 807 594 807 z "},"ė":{"ha":698,"x_min":56,"x_max":648,"o":"m 56 0 m 424 675 q 648 451 648 675 q 641 370 648 429 l 632 313 l 623 299 l 168 295 q 161 238 161 253 q 373 80 161 80 q 542 108 458 80 l 554 21 q 337 -14 446 -14 q 128 50 200 -14 q 56 234 56 115 q 66 330 56 278 q 196 580 97 484 q 424 675 295 675 m 536 392 q 543 457 543 422 q 516 552 543 517 q 432 587 488 587 q 277 530 339 587 q 188 385 215 472 l 536 392 m 451 809 q 405 828 424 809 q 385 875 385 847 q 410 931 385 908 q 465 955 434 955 q 513 937 495 955 q 531 889 531 918 q 507 832 531 856 q 451 809 483 809 z "},"è":{"ha":698,"x_min":56,"x_max":648,"o":"m 56 0 m 424 675 q 648 451 648 675 q 641 370 648 429 l 632 313 l 623 299 l 168 295 q 161 238 161 253 q 373 80 161 80 q 542 108 458 80 l 554 21 q 337 -14 446 -14 q 128 50 200 -14 q 56 234 56 115 q 66 330 56 278 q 196 580 97 484 q 424 675 295 675 m 536 392 q 543 457 543 422 q 516 552 543 517 q 432 587 488 587 q 277 530 339 587 q 188 385 215 472 l 536 392 m 521 741 l 300 955 l 373 1030 l 589 807 l 521 741 z "},"ē":{"ha":698,"x_min":56,"x_max":648,"o":"m 56 0 m 424 675 q 648 451 648 675 q 641 370 648 429 l 632 313 l 623 299 l 168 295 q 161 238 161 253 q 373 80 161 80 q 542 108 458 80 l 554 21 q 337 -14 446 -14 q 128 50 200 -14 q 56 234 56 115 q 66 330 56 278 q 196 580 97 484 q 424 675 295 675 m 536 392 q 543 457 543 422 q 516 552 543 517 q 432 587 488 587 q 277 530 339 587 q 188 385 215 472 l 536 392 m 623 809 l 264 809 l 281 899 l 641 899 l 623 809 z "},"ę":{"ha":703,"x_min":56,"x_max":655,"o":"m 339 -10 q 141 39 227 -14 q 56 233 56 92 q 66 330 56 276 q 194 582 99 488 q 436 675 288 675 q 598 618 542 675 q 655 457 655 561 q 646 370 655 422 l 637 313 l 627 299 l 168 295 q 161 238 161 253 q 373 80 161 80 q 542 108 458 80 l 554 21 q 477 -9 516 10 q 411 -50 438 -28 q 269 -238 269 -149 q 325 -285 269 -285 q 386 -273 352 -285 q 444 -245 420 -260 l 470 -306 q 379 -353 418 -340 q 295 -366 340 -366 q 196 -336 229 -366 q 163 -255 163 -306 q 209 -133 163 -198 q 339 -10 255 -68 m 536 392 q 543 457 543 422 q 516 552 543 517 q 432 587 488 587 q 277 530 339 587 q 188 385 215 472 l 536 392 z "},"f":{"ha":497,"x_min":82,"x_max":641,"o":"m 512 873 q 390 839 429 873 q 335 724 351 806 l 323 667 l 543 667 l 526 578 l 307 578 l 194 0 l 82 0 l 194 578 l 95 578 l 113 667 l 208 667 l 222 738 q 304 906 245 851 q 481 962 363 962 q 641 934 550 962 l 613 854 q 512 873 547 873 z "},"g":{"ha":760,"x_min":0,"x_max":727,"o":"m 493 30 q 313 -14 401 -14 q 123 61 188 -14 q 59 252 59 135 q 66 330 59 295 q 144 522 87 444 q 279 637 201 599 q 439 675 356 675 q 592 639 521 675 l 623 625 l 644 667 l 727 667 l 589 -35 q 458 -284 556 -203 q 200 -365 361 -365 q 95 -352 149 -365 q 0 -319 40 -339 l 40 -243 q 188 -276 128 -276 q 334 -251 278 -276 q 429 -160 391 -226 q 493 30 467 -94 m 342 78 q 502 116 429 78 l 594 552 q 450 585 526 585 q 273 515 342 585 q 181 328 203 444 q 174 259 174 295 q 192 163 174 205 q 245 99 210 122 q 342 78 286 78 z "},"ğ":{"ha":760,"x_min":0,"x_max":733,"o":"m 0 0 m 493 30 q 313 -14 401 -14 q 123 61 188 -14 q 59 252 59 135 q 66 330 59 295 q 144 522 87 444 q 279 637 201 599 q 439 675 356 675 q 592 639 521 675 l 623 625 l 644 667 l 727 667 l 589 -35 q 458 -284 556 -203 q 200 -365 361 -365 q 95 -352 149 -365 q 0 -319 40 -339 l 40 -243 q 188 -276 128 -276 q 334 -251 278 -276 q 429 -160 391 -226 q 493 30 467 -94 m 342 78 q 502 116 429 78 l 594 552 q 450 585 526 585 q 273 515 342 585 q 181 328 203 444 q 174 259 174 295 q 192 163 174 205 q 245 99 210 122 q 342 78 286 78 m 505 837 q 593 867 557 837 q 660 948 628 898 l 733 906 q 637 798 696 842 q 502 753 578 753 q 379 801 422 753 q 325 915 337 849 l 399 941 q 437 864 415 891 q 505 837 458 837 z "},"ĝ":{"ha":760,"x_min":0,"x_max":727,"o":"m 0 0 m 493 30 q 313 -14 401 -14 q 123 61 188 -14 q 59 252 59 135 q 66 330 59 295 q 144 522 87 444 q 279 637 201 599 q 439 675 356 675 q 592 639 521 675 l 623 625 l 644 667 l 727 667 l 589 -35 q 458 -284 556 -203 q 200 -365 361 -365 q 95 -352 149 -365 q 0 -319 40 -339 l 40 -243 q 188 -276 128 -276 q 334 -251 278 -276 q 429 -160 391 -226 q 493 30 467 -94 m 342 78 q 502 116 429 78 l 594 552 q 450 585 526 585 q 273 515 342 585 q 181 328 203 444 q 174 259 174 295 q 192 163 174 205 q 245 99 210 122 q 342 78 286 78 m 649 750 l 533 894 l 363 752 l 304 816 l 545 1028 l 717 809 l 649 750 z "},"ģ":{"ha":762,"x_min":0,"x_max":727,"o":"m 514 755 l 424 755 l 514 1017 l 628 1017 l 514 755 m 493 30 q 313 -14 401 -14 q 123 61 188 -14 q 59 252 59 135 q 66 330 59 295 q 144 522 87 444 q 279 637 201 599 q 439 675 356 675 q 592 639 521 675 l 623 625 l 644 667 l 727 667 l 589 -35 q 458 -284 556 -203 q 200 -365 361 -365 q 95 -352 149 -365 q 0 -319 40 -339 l 40 -243 q 188 -276 128 -276 q 334 -251 278 -276 q 429 -160 391 -226 q 493 30 467 -94 m 342 78 q 502 116 429 78 l 594 552 q 450 585 526 585 q 273 515 342 585 q 181 328 203 444 q 174 259 174 295 q 192 163 174 205 q 245 99 210 122 q 342 78 286 78 z "},"ġ":{"ha":760,"x_min":0,"x_max":727,"o":"m 0 0 m 493 30 q 313 -14 401 -14 q 123 61 188 -14 q 59 252 59 135 q 66 330 59 295 q 144 522 87 444 q 279 637 201 599 q 439 675 356 675 q 592 639 521 675 l 623 625 l 644 667 l 727 667 l 589 -35 q 458 -284 556 -203 q 200 -365 361 -365 q 95 -352 149 -365 q 0 -319 40 -339 l 40 -243 q 188 -276 128 -276 q 334 -251 278 -276 q 429 -160 391 -226 q 493 30 467 -94 m 342 78 q 502 116 429 78 l 594 552 q 450 585 526 585 q 273 515 342 585 q 181 328 203 444 q 174 259 174 295 q 192 163 174 205 q 245 99 210 122 q 342 78 286 78 m 512 809 q 465 828 484 809 q 446 875 446 847 q 470 931 446 908 q 526 955 495 955 q 574 937 556 955 q 592 889 592 918 q 568 832 592 856 q 512 809 543 809 z "},"h":{"ha":743,"x_min":36,"x_max":684,"o":"m 559 431 q 566 495 566 464 q 539 567 566 545 q 450 589 512 589 q 257 538 373 589 l 149 0 l 36 0 l 215 924 l 328 924 l 267 625 q 497 684 392 684 q 635 638 587 684 q 684 510 684 592 q 677 450 684 491 l 590 0 l 476 0 l 559 431 z "},"i":{"ha":314,"x_min":36,"x_max":333,"o":"m 255 795 q 207 814 226 795 q 189 861 189 833 q 213 914 189 889 q 269 939 236 939 q 316 921 299 939 q 333 875 333 903 q 311 820 333 845 q 255 795 288 795 m 149 0 l 36 0 l 167 667 l 280 667 l 149 0 z "},"ı":{"ha":314,"x_min":36,"x_max":278,"o":"m 149 0 l 36 0 l 165 667 l 278 667 l 149 0 z "},"í":{"ha":314,"x_min":36,"x_max":422,"o":"m 36 0 m 149 0 l 36 0 l 165 667 l 278 667 l 149 0 m 422 955 l 122 741 l 71 813 l 366 1035 l 422 955 z "},"ĭ":{"ha":314,"x_min":36,"x_max":476,"o":"m 36 0 m 149 0 l 36 0 l 165 667 l 278 667 l 149 0 m 248 837 q 336 867 300 837 q 403 948 372 898 l 476 906 q 380 798 439 842 q 245 753 321 753 q 122 801 165 753 q 68 915 80 849 l 142 941 q 180 864 158 891 q 248 837 201 837 z "},"î":{"ha":314,"x_min":36,"x_max":460,"o":"m 36 0 m 149 0 l 36 0 l 165 667 l 278 667 l 149 0 m 392 750 l 276 894 l 106 752 l 47 816 l 288 1028 l 460 809 l 392 750 z "},"ï":{"ha":314,"x_min":36,"x_max":450,"o":"m 36 0 m 149 0 l 36 0 l 165 667 l 278 667 l 149 0 m 135 807 q 95 824 111 807 q 78 865 78 840 q 80 880 78 875 q 104 919 83 903 q 148 936 125 936 q 194 914 177 936 q 205 863 210 892 q 179 824 200 840 q 135 807 158 807 m 375 807 q 334 824 351 807 q 318 865 318 840 q 319 880 318 875 q 344 919 323 903 q 387 936 365 936 q 433 914 417 936 q 444 863 450 892 q 418 824 439 840 q 375 807 398 807 z "},"ì":{"ha":314,"x_min":36,"x_max":392,"o":"m 36 0 m 149 0 l 36 0 l 165 667 l 278 667 l 149 0 m 325 741 l 104 955 l 177 1030 l 392 807 l 325 741 z "},"ĳ":{"ha":556,"x_min":36,"x_max":573,"o":"m 255 795 q 207 814 226 795 q 189 861 189 833 q 213 914 189 889 q 269 939 236 939 q 316 921 299 939 q 333 875 333 903 q 311 820 333 845 q 255 795 288 795 m 493 792 q 446 811 465 792 q 427 858 427 830 q 451 914 427 891 q 507 938 476 938 q 555 919 536 938 q 573 872 573 901 q 549 815 573 839 q 493 792 524 792 m 149 0 l 36 0 l 167 667 l 280 667 l 149 0 m 413 667 l 523 667 l 375 -90 q 304 -274 351 -217 q 149 -363 257 -332 l 116 -278 q 262 -104 238 -224 l 266 -92 l 413 667 z "},"ī":{"ha":314,"x_min":36,"x_max":444,"o":"m 36 0 m 149 0 l 36 0 l 165 667 l 278 667 l 149 0 m 427 809 l 68 809 l 85 899 l 444 899 l 427 809 z "},"į":{"ha":321,"x_min":-194,"x_max":332,"o":"m 252 809 q 205 828 224 809 q 186 875 186 847 q 210 931 186 908 q 266 955 234 955 q 313 937 295 955 q 332 889 332 918 q 307 832 332 856 q 252 809 283 809 m 278 667 l 149 -14 q 21 -85 75 -47 q -68 -162 -45 -128 q -90 -234 -90 -196 q -36 -285 -90 -285 q 87 -245 12 -285 l 113 -309 q -76 -372 -2 -372 q -161 -344 -128 -372 q -194 -260 -194 -316 q -155 -135 -194 -200 q -16 -16 -116 -71 l 38 7 l 167 667 l 278 667 z "},"ĩ":{"ha":314,"x_min":17,"x_max":503,"o":"m 17 0 m 149 0 l 36 0 l 165 667 l 278 667 l 149 0 m 182 931 q 227 919 207 931 q 278 885 247 908 q 340 852 318 852 q 390 873 370 852 q 429 934 410 894 l 503 901 q 435 805 479 840 q 333 769 391 769 q 279 780 300 769 q 229 814 257 792 q 201 835 215 826 q 175 844 188 844 q 130 823 149 844 q 92 764 111 802 l 17 797 q 87 895 43 859 q 182 931 130 931 z "},"j":{"ha":313,"x_min":-125,"x_max":328,"o":"m 248 793 q 201 813 220 793 q 182 859 182 832 q 207 916 182 892 q 262 939 231 939 q 310 921 292 939 q 328 873 328 903 q 304 817 328 840 q 248 793 280 793 m 170 667 l 280 667 l 134 -90 q 61 -274 108 -217 q -92 -363 14 -332 l -125 -278 q 21 -104 -2 -224 l 23 -92 l 170 667 z "},"ȷ":{"ha":299,"x_min":-125,"x_max":280,"o":"m 170 667 l 280 667 l 134 -90 q 61 -274 108 -217 q -92 -363 14 -332 l -125 -278 q 21 -104 -2 -224 l 23 -92 l 170 667 z "},"ĵ":{"ha":299,"x_min":-125,"x_max":462,"o":"m 0 0 m 170 667 l 280 667 l 134 -90 q 61 -274 108 -217 q -92 -363 14 -332 l -125 -278 q 21 -104 -2 -224 l 23 -92 l 170 667 m 394 750 l 278 894 l 108 752 l 49 816 l 290 1028 l 462 809 l 394 750 z "},"k":{"ha":679,"x_min":36,"x_max":677,"o":"m 149 0 l 36 0 l 215 924 l 328 924 l 149 0 m 366 359 l 589 0 l 464 0 l 233 368 l 547 667 l 677 667 l 366 359 z "},"ķ":{"ha":679,"x_min":36,"x_max":677,"o":"m 36 0 m 149 0 l 36 0 l 215 924 l 328 924 l 149 0 m 366 359 l 589 0 l 464 0 l 233 368 l 547 667 l 677 667 l 366 359 m 179 -345 l 82 -345 l 247 -83 l 368 -83 l 179 -345 z "},"l":{"ha":389,"x_min":57,"x_max":325,"o":"m 243 89 q 307 101 267 89 l 319 16 q 276 -1 314 14 q 182 -16 238 -16 q 91 18 125 -16 q 57 109 57 52 q 61 148 57 134 l 215 925 l 325 925 l 181 181 q 174 135 174 149 q 188 101 174 113 q 243 89 203 89 z "},"ĺ":{"ha":389,"x_min":57,"x_max":609,"o":"m 57 0 m 243 89 q 307 101 267 89 l 319 16 q 276 -1 314 14 q 182 -16 238 -16 q 91 18 125 -16 q 57 109 57 52 q 61 148 57 134 l 215 925 l 325 925 l 181 181 q 174 135 174 149 q 188 101 174 113 q 243 89 203 89 m 609 1214 l 309 1000 l 259 1071 l 554 1293 l 609 1214 z "},"ľ":{"ha":410,"x_min":57,"x_max":561,"o":"m 446 755 l 366 755 l 457 1017 l 561 1017 l 446 755 m 243 89 q 306 101 269 89 l 319 16 q 250 -8 280 0 q 181 -16 220 -16 q 90 18 123 -16 q 57 108 57 52 q 61 148 57 134 l 215 925 l 325 925 l 179 181 q 174 137 174 158 q 189 102 174 115 q 243 89 205 89 z "},"ļ":{"ha":389,"x_min":-56,"x_max":325,"o":"m 0 0 m 243 89 q 307 101 267 89 l 319 16 q 276 -1 314 14 q 182 -16 238 -16 q 91 18 125 -16 q 57 109 57 52 q 61 148 57 134 l 215 925 l 325 925 l 181 181 q 174 135 174 149 q 188 101 174 113 q 243 89 203 89 m 42 -345 l -56 -345 l 109 -83 l 231 -83 l 42 -345 z "},"ł":{"ha":427,"x_min":30,"x_max":465,"o":"m 215 181 q 210 137 210 156 q 226 102 210 115 q 280 89 241 89 q 342 101 306 89 l 356 16 q 286 -8 316 0 q 217 -16 257 -16 q 127 18 160 -16 q 94 108 94 52 q 97 148 94 134 l 148 398 l 30 337 l 49 438 l 167 498 l 252 925 l 361 925 l 290 563 l 465 653 l 446 552 l 271 462 l 215 181 z "},"m":{"ha":1101,"x_min":33,"x_max":1040,"o":"m 913 427 q 920 486 920 469 q 819 587 920 587 q 741 571 783 587 q 642 521 700 556 l 632 448 l 545 0 l 432 0 l 516 427 q 523 484 523 469 q 420 587 523 587 q 253 535 358 587 l 146 0 l 33 0 l 161 667 l 238 667 l 250 613 q 368 670 307 648 q 462 677 406 677 q 562 653 521 677 q 620 590 602 628 q 742 655 686 634 q 859 677 799 677 q 994 631 948 677 q 1040 507 1040 585 q 1033 448 1040 490 l 946 0 l 830 0 l 913 427 z "},"n":{"ha":741,"x_min":33,"x_max":681,"o":"m 557 427 q 564 490 564 460 q 537 560 564 538 q 450 582 510 582 q 252 533 365 582 l 146 0 l 33 0 l 161 667 l 238 667 l 250 613 q 495 677 378 677 q 634 633 587 677 q 681 509 681 589 q 674 448 681 490 l 587 0 l 474 0 l 557 427 z "},"ń":{"ha":741,"x_min":33,"x_max":681,"o":"m 33 0 m 557 427 q 564 490 564 460 q 537 560 564 538 q 450 582 510 582 q 252 533 365 582 l 146 0 l 33 0 l 161 667 l 238 667 l 250 613 q 495 677 378 677 q 634 633 587 677 q 681 509 681 589 q 674 448 681 490 l 587 0 l 474 0 l 557 427 m 651 955 l 351 741 l 300 813 l 595 1035 l 651 955 z "},"ň":{"ha":741,"x_min":33,"x_max":703,"o":"m 33 0 m 557 427 q 564 490 564 460 q 537 560 564 538 q 450 582 510 582 q 252 533 365 582 l 146 0 l 33 0 l 161 667 l 238 667 l 250 613 q 495 677 378 677 q 634 633 587 677 q 681 509 681 589 q 674 448 681 490 l 587 0 l 474 0 l 557 427 m 290 969 l 358 1028 l 474 884 l 644 1026 l 703 962 l 462 750 l 290 969 z "},"ņ":{"ha":741,"x_min":33,"x_max":681,"o":"m 33 0 m 557 427 q 564 490 564 460 q 537 560 564 538 q 450 582 510 582 q 252 533 365 582 l 146 0 l 33 0 l 161 667 l 238 667 l 250 613 q 495 677 378 677 q 634 633 587 677 q 681 509 681 589 q 674 448 681 490 l 587 0 l 474 0 l 557 427 m 189 -345 l 92 -345 l 257 -83 l 378 -83 l 189 -345 z "},"ñ":{"ha":741,"x_min":33,"x_max":733,"o":"m 33 0 m 557 427 q 564 490 564 460 q 537 560 564 538 q 450 582 510 582 q 252 533 365 582 l 146 0 l 33 0 l 161 667 l 238 667 l 250 613 q 495 677 378 677 q 634 633 587 677 q 681 509 681 589 q 674 448 681 490 l 587 0 l 474 0 l 557 427 m 411 931 q 456 919 436 931 q 507 885 476 908 q 569 852 547 852 q 619 873 599 852 q 658 934 639 894 l 733 901 q 664 805 708 840 q 563 769 620 769 q 508 780 530 769 q 458 814 486 792 q 431 835 444 826 q 405 844 417 844 q 359 823 378 844 q 321 764 340 802 l 247 797 q 316 895 273 859 q 411 931 359 931 z "},"o":{"ha":776,"x_min":57,"x_max":719,"o":"m 325 -16 q 127 54 196 -16 q 57 243 57 123 q 68 339 57 290 q 199 585 99 495 q 450 675 299 675 q 649 608 580 675 q 719 420 719 540 q 708 323 719 375 q 575 77 677 170 q 325 -16 472 -16 m 446 587 q 273 511 345 587 q 181 321 201 436 q 174 250 174 288 q 214 124 174 172 q 333 76 253 76 q 503 150 432 76 q 597 339 575 224 q 604 406 604 372 q 563 537 604 488 q 446 587 523 587 z "},"ó":{"ha":776,"x_min":57,"x_max":719,"o":"m 57 0 m 325 -16 q 127 54 196 -16 q 57 243 57 123 q 68 339 57 290 q 199 585 99 495 q 450 675 299 675 q 649 608 580 675 q 719 420 719 540 q 708 323 719 375 q 575 77 677 170 q 325 -16 472 -16 m 446 587 q 273 511 345 587 q 181 321 201 436 q 174 250 174 288 q 214 124 174 172 q 333 76 253 76 q 503 150 432 76 q 597 339 575 224 q 604 406 604 372 q 563 537 604 488 q 446 587 523 587 m 660 955 l 359 741 l 309 813 l 604 1035 l 660 955 z "},"ŏ":{"ha":776,"x_min":57,"x_max":719,"o":"m 57 0 m 325 -16 q 127 54 196 -16 q 57 243 57 123 q 68 339 57 290 q 199 585 99 495 q 450 675 299 675 q 649 608 580 675 q 719 420 719 540 q 708 323 719 375 q 575 77 677 170 q 325 -16 472 -16 m 446 587 q 273 511 345 587 q 181 321 201 436 q 174 250 174 288 q 214 124 174 172 q 333 76 253 76 q 503 150 432 76 q 597 339 575 224 q 604 406 604 372 q 563 537 604 488 q 446 587 523 587 m 486 837 q 574 867 538 837 q 641 948 609 898 l 714 906 q 618 798 677 842 q 483 753 559 753 q 360 801 403 753 q 306 915 318 849 l 380 941 q 418 864 396 891 q 486 837 439 837 z "},"ô":{"ha":776,"x_min":57,"x_max":719,"o":"m 57 0 m 325 -16 q 127 54 196 -16 q 57 243 57 123 q 68 339 57 290 q 199 585 99 495 q 450 675 299 675 q 649 608 580 675 q 719 420 719 540 q 708 323 719 375 q 575 77 677 170 q 325 -16 472 -16 m 446 587 q 273 511 345 587 q 181 321 201 436 q 174 250 174 288 q 214 124 174 172 q 333 76 253 76 q 503 150 432 76 q 597 339 575 224 q 604 406 604 372 q 563 537 604 488 q 446 587 523 587 m 630 750 l 514 894 l 344 752 l 285 816 l 526 1028 l 698 809 l 630 750 z "},"ö":{"ha":776,"x_min":57,"x_max":719,"o":"m 57 0 m 325 -16 q 127 54 196 -16 q 57 243 57 123 q 68 339 57 290 q 199 585 99 495 q 450 675 299 675 q 649 608 580 675 q 719 420 719 540 q 708 323 719 375 q 575 77 677 170 q 325 -16 472 -16 m 446 587 q 273 511 345 587 q 181 321 201 436 q 174 250 174 288 q 214 124 174 172 q 333 76 253 76 q 503 150 432 76 q 597 339 575 224 q 604 406 604 372 q 563 537 604 488 q 446 587 523 587 m 373 807 q 332 824 349 807 q 316 865 316 840 q 318 880 316 875 q 342 919 321 903 q 385 936 363 936 q 431 914 415 936 q 443 863 448 892 q 417 824 438 840 q 373 807 396 807 m 613 807 q 572 824 589 807 q 556 865 556 840 q 557 880 556 875 q 582 919 561 903 q 625 936 602 936 q 671 914 655 936 q 682 863 688 892 q 656 824 677 840 q 613 807 635 807 z "},"ò":{"ha":776,"x_min":57,"x_max":719,"o":"m 57 0 m 325 -16 q 127 54 196 -16 q 57 243 57 123 q 68 339 57 290 q 199 585 99 495 q 450 675 299 675 q 649 608 580 675 q 719 420 719 540 q 708 323 719 375 q 575 77 677 170 q 325 -16 472 -16 m 446 587 q 273 511 345 587 q 181 321 201 436 q 174 250 174 288 q 214 124 174 172 q 333 76 253 76 q 503 150 432 76 q 597 339 575 224 q 604 406 604 372 q 563 537 604 488 q 446 587 523 587 m 563 741 l 342 955 l 415 1030 l 630 807 l 563 741 z "},"ő":{"ha":776,"x_min":57,"x_max":844,"o":"m 583 955 l 283 741 l 233 813 l 528 1035 l 583 955 m 844 955 l 543 741 l 493 813 l 788 1035 l 844 955 m 325 -16 q 127 54 196 -16 q 57 243 57 123 q 68 339 57 290 q 199 585 99 495 q 450 675 299 675 q 649 608 580 675 q 719 420 719 540 q 708 323 719 375 q 575 77 677 170 q 325 -16 472 -16 m 446 587 q 273 511 345 587 q 181 321 201 436 q 174 250 174 288 q 214 124 174 172 q 333 76 253 76 q 503 150 432 76 q 597 339 575 224 q 604 406 604 372 q 563 537 604 488 q 446 587 523 587 z "},"ō":{"ha":776,"x_min":57,"x_max":719,"o":"m 57 0 m 325 -16 q 127 54 196 -16 q 57 243 57 123 q 68 339 57 290 q 199 585 99 495 q 450 675 299 675 q 649 608 580 675 q 719 420 719 540 q 708 323 719 375 q 575 77 677 170 q 325 -16 472 -16 m 446 587 q 273 511 345 587 q 181 321 201 436 q 174 250 174 288 q 214 124 174 172 q 333 76 253 76 q 503 150 432 76 q 597 339 575 224 q 604 406 604 372 q 563 537 604 488 q 446 587 523 587 m 665 809 l 306 809 l 323 899 l 682 899 l 665 809 z "},"ø":{"ha":802,"x_min":-5,"x_max":807,"o":"m 715 538 q 736 420 736 490 q 726 323 736 375 q 593 77 696 170 q 342 -16 490 -16 q 146 52 217 -16 l 59 -21 l -5 49 l 94 134 q 75 245 75 186 q 85 339 75 290 q 216 585 116 495 q 469 675 316 675 q 656 618 589 675 l 743 693 l 807 616 l 715 538 m 198 321 q 191 252 191 288 q 193 219 191 229 l 573 547 q 465 587 536 587 q 293 511 365 587 q 198 321 220 436 m 615 339 q 622 406 622 372 q 618 455 622 424 l 231 125 q 352 76 274 76 q 523 150 451 76 q 615 339 594 224 z "},"õ":{"ha":776,"x_min":57,"x_max":741,"o":"m 57 0 m 325 -16 q 127 54 196 -16 q 57 243 57 123 q 68 339 57 290 q 199 585 99 495 q 450 675 299 675 q 649 608 580 675 q 719 420 719 540 q 708 323 719 375 q 575 77 677 170 q 325 -16 472 -16 m 446 587 q 273 511 345 587 q 181 321 201 436 q 174 250 174 288 q 214 124 174 172 q 333 76 253 76 q 503 150 432 76 q 597 339 575 224 q 604 406 604 372 q 563 537 604 488 q 446 587 523 587 m 420 931 q 464 919 444 931 q 516 885 484 908 q 578 852 556 852 q 628 873 608 852 q 667 934 648 894 l 741 901 q 673 805 717 840 q 571 769 628 769 q 516 780 538 769 q 467 814 495 792 q 439 835 453 826 q 413 844 425 844 q 368 823 387 844 q 330 764 349 802 l 255 797 q 325 895 281 859 q 420 931 368 931 z "},"œ":{"ha":1174,"x_min":56,"x_max":1123,"o":"m 901 675 q 1123 453 1123 675 q 1116 370 1123 410 l 1108 313 l 1099 299 l 668 295 q 660 226 660 252 q 706 115 660 151 q 849 80 752 80 q 1017 108 934 80 l 1030 21 q 814 -14 922 -14 q 578 101 632 -14 q 464 15 530 45 q 325 -16 399 -16 q 127 56 198 -16 q 56 243 56 127 q 68 339 56 292 q 208 593 109 510 q 451 675 307 675 q 665 557 611 675 q 901 675 759 675 m 335 76 q 482 148 420 76 q 566 330 543 219 l 566 333 l 568 339 q 576 420 576 385 q 544 542 576 497 q 448 587 512 587 q 275 511 347 587 q 181 321 203 436 q 174 253 174 288 q 214 125 174 174 q 335 76 255 76 m 1012 392 q 1019 458 1019 422 q 992 552 1019 517 q 910 587 965 587 q 767 532 818 587 q 688 385 717 477 l 1012 392 z "},"p":{"ha":764,"x_min":-35,"x_max":707,"o":"m 165 667 l 243 667 l 255 618 q 450 675 347 675 q 633 605 559 675 q 707 411 707 535 q 700 332 707 368 q 563 76 668 170 q 313 -17 458 -17 q 155 17 229 -17 l 78 -361 l -35 -361 l 165 667 m 418 582 q 334 572 370 582 q 257 540 299 563 l 165 102 q 304 73 222 73 q 484 146 411 73 q 580 337 557 219 q 587 411 587 372 q 545 536 587 491 q 418 582 503 582 z "},"þ":{"ha":774,"x_min":-35,"x_max":714,"o":"m 335 -17 q 163 59 227 -17 l 78 -358 l -35 -358 l 220 955 l 333 955 l 262 601 q 464 674 342 674 q 648 600 582 674 q 714 408 714 526 q 707 330 714 366 q 630 143 686 222 q 497 23 575 64 q 335 -17 420 -17 m 332 80 q 503 149 427 80 q 597 321 578 219 q 606 399 606 368 q 566 529 606 479 q 443 580 526 578 q 285 508 345 580 q 201 319 224 436 q 189 217 189 250 q 198 158 189 184 q 332 80 236 80 z "},"q":{"ha":766,"x_min":61,"x_max":733,"o":"m 330 -17 q 134 60 207 -17 q 61 264 61 137 q 69 349 61 300 q 200 593 101 510 q 438 675 299 675 q 615 615 535 675 l 646 665 l 733 665 l 533 -361 l 415 -361 l 491 14 q 330 -17 415 -17 m 594 543 q 533 573 564 564 q 455 582 502 582 q 275 510 347 582 q 181 319 203 439 q 174 250 174 286 q 217 121 174 168 q 344 73 260 73 q 502 106 425 73 l 594 543 z "},"r":{"ha":507,"x_min":33,"x_max":554,"o":"m 446 675 q 509 670 486 675 q 554 655 531 665 l 500 557 q 410 576 464 576 q 252 526 337 576 l 146 0 l 33 0 l 163 667 l 243 667 l 255 613 q 446 675 351 675 z "},"ŕ":{"ha":507,"x_min":33,"x_max":582,"o":"m 33 0 m 446 675 q 509 670 486 675 q 554 655 531 665 l 500 557 q 410 576 464 576 q 252 526 337 576 l 146 0 l 33 0 l 163 667 l 243 667 l 255 613 q 446 675 351 675 m 582 955 l 281 741 l 231 813 l 526 1035 l 582 955 z "},"ř":{"ha":507,"x_min":33,"x_max":634,"o":"m 33 0 m 446 675 q 509 670 486 675 q 554 655 531 665 l 500 557 q 410 576 464 576 q 252 526 337 576 l 146 0 l 33 0 l 163 667 l 243 667 l 255 613 q 446 675 351 675 m 220 969 l 288 1028 l 405 884 l 575 1026 l 634 962 l 392 750 l 220 969 z "},"ŗ":{"ha":507,"x_min":-151,"x_max":554,"o":"m 0 0 m 446 675 q 509 670 486 675 q 554 655 531 665 l 500 557 q 410 576 464 576 q 252 526 337 576 l 146 0 l 33 0 l 163 667 l 243 667 l 255 613 q 446 675 351 675 m -54 -345 l -151 -345 l 14 -83 l 135 -83 l -54 -345 z "},"s":{"ha":641,"x_min":5,"x_max":595,"o":"m 250 80 q 363 106 313 80 q 422 181 413 132 q 424 194 424 186 q 398 238 424 220 q 292 292 372 255 l 227 321 q 141 378 175 345 q 108 469 108 410 q 111 505 108 481 q 212 635 128 595 q 406 675 295 675 q 595 635 510 675 l 556 550 q 413 582 486 582 q 275 553 330 582 q 220 476 220 524 q 246 430 220 448 q 330 385 271 411 l 389 358 q 499 290 465 326 q 533 201 533 253 q 528 155 533 181 q 438 35 514 85 q 253 -16 363 -16 q 5 36 128 -16 l 49 123 q 250 80 165 80 z "},"ś":{"ha":641,"x_min":5,"x_max":611,"o":"m 5 0 m 250 80 q 363 106 313 80 q 422 181 413 132 q 424 194 424 186 q 398 238 424 220 q 292 292 372 255 l 227 321 q 141 378 175 345 q 108 469 108 410 q 111 505 108 481 q 212 635 128 595 q 406 675 295 675 q 595 635 510 675 l 556 550 q 413 582 486 582 q 275 553 330 582 q 220 476 220 524 q 246 430 220 448 q 330 385 271 411 l 389 358 q 499 290 465 326 q 533 201 533 253 q 528 155 533 181 q 438 35 514 85 q 253 -16 363 -16 q 5 36 128 -16 l 49 123 q 250 80 165 80 m 611 955 l 311 741 l 260 813 l 556 1035 l 611 955 z "},"š":{"ha":641,"x_min":5,"x_max":663,"o":"m 5 0 m 250 80 q 363 106 313 80 q 422 181 413 132 q 424 194 424 186 q 398 238 424 220 q 292 292 372 255 l 227 321 q 141 378 175 345 q 108 469 108 410 q 111 505 108 481 q 212 635 128 595 q 406 675 295 675 q 595 635 510 675 l 556 550 q 413 582 486 582 q 275 553 330 582 q 220 476 220 524 q 246 430 220 448 q 330 385 271 411 l 389 358 q 499 290 465 326 q 533 201 533 253 q 528 155 533 181 q 438 35 514 85 q 253 -16 363 -16 q 5 36 128 -16 l 49 123 q 250 80 165 80 m 250 969 l 318 1028 l 434 884 l 604 1026 l 663 962 l 422 750 l 250 969 z "},"ş":{"ha":641,"x_min":5,"x_max":595,"o":"m 413 582 q 275 553 330 582 q 220 476 220 524 q 246 430 220 448 q 330 385 271 411 l 389 358 q 499 290 465 326 q 533 201 533 253 q 528 155 533 181 q 454 45 516 92 q 299 -14 392 -2 l 266 -85 q 359 -130 328 -102 q 391 -208 391 -158 q 346 -318 391 -276 q 217 -359 302 -359 q 158 -353 182 -359 q 100 -336 134 -347 q 54 -321 66 -325 l 90 -247 q 182 -274 156 -269 q 231 -280 208 -280 q 281 -265 264 -280 q 306 -219 299 -250 q 250 -165 313 -179 l 155 -141 l 210 -14 q 5 36 108 -7 l 49 123 q 250 80 165 80 q 363 106 313 80 q 422 181 413 132 q 424 194 424 186 q 398 238 424 220 q 292 292 372 255 l 227 321 q 141 378 175 345 q 108 469 108 410 q 111 505 108 481 q 212 635 128 595 q 406 675 295 675 q 595 635 510 675 l 556 550 q 413 582 484 582 z "},"ș":{"ha":641,"x_min":5,"x_max":595,"o":"m 5 0 m 250 80 q 363 106 313 80 q 422 181 413 132 q 424 194 424 186 q 398 238 424 220 q 292 292 372 255 l 227 321 q 141 378 175 345 q 108 469 108 410 q 111 505 108 481 q 212 635 128 595 q 406 675 295 675 q 595 635 510 675 l 556 550 q 413 582 486 582 q 275 553 330 582 q 220 476 220 524 q 246 430 220 448 q 330 385 271 411 l 389 358 q 499 290 465 326 q 533 201 533 253 q 528 155 533 181 q 438 35 514 85 q 253 -16 363 -16 q 5 36 128 -16 l 49 123 q 250 80 165 80 m 127 -345 l 30 -345 l 194 -83 l 316 -83 l 127 -345 z "},"ß":{"ha":766,"x_min":36,"x_max":701,"o":"m 170 693 q 279 888 194 814 q 484 962 363 962 q 585 934 540 962 q 655 861 630 906 q 681 766 681 816 q 650 670 681 715 q 569 590 620 625 q 450 472 462 510 q 446 451 446 464 q 460 424 446 434 q 512 396 474 413 l 556 378 q 701 203 701 325 q 698 161 701 175 q 615 27 679 71 q 450 -17 550 -17 q 247 17 351 -17 l 273 92 q 429 73 382 73 q 535 98 495 73 q 587 182 575 123 q 589 201 589 189 q 568 252 589 234 q 502 292 547 269 l 467 307 q 372 365 406 335 q 337 448 337 396 q 340 481 337 457 q 379 555 349 523 q 464 627 410 587 q 537 688 512 663 q 568 745 563 714 q 569 764 569 752 q 538 834 569 806 q 465 863 507 863 q 346 813 398 863 q 280 684 295 764 l 146 0 l 36 0 l 170 693 z "},"t":{"ha":535,"x_min":75,"x_max":521,"o":"m 283 -14 q 162 23 200 -14 q 125 132 125 59 q 134 210 125 163 l 205 573 l 75 573 l 94 667 l 224 667 l 255 830 l 370 839 l 337 667 l 521 667 l 502 573 l 318 573 l 252 210 q 245 146 245 175 q 261 97 245 113 q 321 82 278 82 q 431 94 378 82 l 443 14 q 283 -14 365 -14 z "},"ť":{"ha":540,"x_min":78,"x_max":627,"o":"m 512 755 l 432 755 l 523 1017 l 627 1017 l 512 755 m 288 -14 q 168 23 207 -14 q 130 130 130 59 q 139 210 130 161 l 208 573 l 78 573 l 97 667 l 227 667 l 259 830 l 373 839 l 340 667 l 524 667 l 505 573 l 321 573 l 255 210 q 248 146 248 175 q 265 97 248 113 q 325 82 281 82 q 436 94 380 82 l 448 14 q 288 -14 370 -14 z "},"ţ":{"ha":535,"x_min":75,"x_max":521,"o":"m 252 210 q 245 146 245 175 q 261 97 245 113 q 321 82 278 82 q 431 94 378 82 l 443 14 q 326 -12 387 -7 l 292 -85 q 385 -130 354 -102 q 417 -208 417 -158 q 372 -318 417 -276 q 243 -359 328 -359 q 184 -353 208 -359 q 126 -336 160 -347 q 80 -321 92 -325 l 116 -247 q 208 -274 182 -269 q 257 -280 234 -280 q 307 -265 290 -280 q 332 -219 325 -250 q 276 -165 339 -179 l 181 -141 l 238 -10 q 125 132 125 7 q 134 210 125 163 l 205 573 l 75 573 l 94 667 l 224 667 l 255 830 l 370 839 l 337 667 l 521 667 l 502 573 l 318 573 l 252 210 z "},"ț":{"ha":535,"x_min":56,"x_max":521,"o":"m 56 0 m 283 -14 q 162 23 200 -14 q 125 132 125 59 q 134 210 125 163 l 205 573 l 75 573 l 94 667 l 224 667 l 255 830 l 370 839 l 337 667 l 521 667 l 502 573 l 318 573 l 252 210 q 245 146 245 175 q 261 97 245 113 q 321 82 278 82 q 431 94 378 82 l 443 14 q 283 -14 365 -14 m 153 -345 l 56 -345 l 220 -83 l 342 -83 l 153 -345 z "},"u":{"ha":741,"x_min":61,"x_max":708,"o":"m 184 234 q 177 172 177 201 q 204 102 177 123 q 293 80 231 80 q 488 128 375 80 l 595 667 l 708 667 l 580 0 l 503 0 l 490 47 q 247 -17 354 -17 q 109 28 156 -17 q 61 151 61 73 q 68 214 61 184 l 155 667 l 267 667 l 184 234 z "},"ú":{"ha":741,"x_min":61,"x_max":708,"o":"m 61 0 m 184 234 q 177 172 177 201 q 204 102 177 123 q 293 80 231 80 q 488 128 375 80 l 595 667 l 708 667 l 580 0 l 503 0 l 490 47 q 247 -17 354 -17 q 109 28 156 -17 q 61 151 61 73 q 68 214 61 184 l 155 667 l 267 667 l 184 234 m 616 955 l 316 741 l 266 813 l 561 1035 l 616 955 z "},"ŭ":{"ha":741,"x_min":61,"x_max":708,"o":"m 61 0 m 184 234 q 177 172 177 201 q 204 102 177 123 q 293 80 231 80 q 488 128 375 80 l 595 667 l 708 667 l 580 0 l 503 0 l 490 47 q 247 -17 354 -17 q 109 28 156 -17 q 61 151 61 73 q 68 214 61 184 l 155 667 l 267 667 l 184 234 m 443 837 q 530 867 495 837 q 597 948 566 898 l 670 906 q 575 798 634 842 q 439 753 516 753 q 317 801 359 753 q 262 915 274 849 l 337 941 q 374 864 352 891 q 443 837 396 837 z "},"û":{"ha":741,"x_min":61,"x_max":708,"o":"m 61 0 m 184 234 q 177 172 177 201 q 204 102 177 123 q 293 80 231 80 q 488 128 375 80 l 595 667 l 708 667 l 580 0 l 503 0 l 490 47 q 247 -17 354 -17 q 109 28 156 -17 q 61 151 61 73 q 68 214 61 184 l 155 667 l 267 667 l 184 234 m 587 750 l 470 894 l 300 752 l 241 816 l 483 1028 l 655 809 l 587 750 z "},"ü":{"ha":741,"x_min":61,"x_max":708,"o":"m 61 0 m 184 234 q 177 172 177 201 q 204 102 177 123 q 293 80 231 80 q 488 128 375 80 l 595 667 l 708 667 l 580 0 l 503 0 l 490 47 q 247 -17 354 -17 q 109 28 156 -17 q 61 151 61 73 q 68 214 61 184 l 155 667 l 267 667 l 184 234 m 330 807 q 289 824 306 807 q 273 865 273 840 q 274 880 273 875 q 299 919 278 903 q 342 936 319 936 q 388 914 372 936 q 399 863 405 892 q 373 824 394 840 q 330 807 352 807 m 569 807 q 529 824 545 807 q 512 865 512 840 q 514 880 512 875 q 538 919 517 903 q 582 936 559 936 q 628 914 611 936 q 639 863 644 892 q 613 824 634 840 q 569 807 592 807 z "},"ù":{"ha":741,"x_min":61,"x_max":708,"o":"m 61 0 m 184 234 q 177 172 177 201 q 204 102 177 123 q 293 80 231 80 q 488 128 375 80 l 595 667 l 708 667 l 580 0 l 503 0 l 490 47 q 247 -17 354 -17 q 109 28 156 -17 q 61 151 61 73 q 68 214 61 184 l 155 667 l 267 667 l 184 234 m 519 741 l 299 955 l 372 1030 l 587 807 l 519 741 z "},"ű":{"ha":741,"x_min":61,"x_max":800,"o":"m 540 955 l 240 741 l 189 813 l 484 1035 l 540 955 m 800 955 l 500 741 l 450 813 l 745 1035 l 800 955 m 184 234 q 177 172 177 201 q 204 102 177 123 q 293 80 231 80 q 488 128 375 80 l 595 667 l 708 667 l 580 0 l 503 0 l 490 47 q 247 -17 354 -17 q 109 28 156 -17 q 61 151 61 73 q 68 214 61 184 l 155 667 l 267 667 l 184 234 z "},"ū":{"ha":741,"x_min":61,"x_max":708,"o":"m 61 0 m 184 234 q 177 172 177 201 q 204 102 177 123 q 293 80 231 80 q 488 128 375 80 l 595 667 l 708 667 l 580 0 l 503 0 l 490 47 q 247 -17 354 -17 q 109 28 156 -17 q 61 151 61 73 q 68 214 61 184 l 155 667 l 267 667 l 184 234 m 622 809 l 262 809 l 280 899 l 639 899 l 622 809 z "},"ų":{"ha":743,"x_min":63,"x_max":708,"o":"m 575 -33 q 432 -109 474 -82 q 345 -173 375 -141 q 316 -245 316 -205 q 370 -290 316 -290 q 490 -250 418 -290 l 517 -314 q 328 -377 410 -377 q 240 -350 274 -377 q 207 -273 207 -323 q 208 -247 207 -255 q 271 -138 220 -187 q 413 -36 321 -89 l 498 3 l 491 49 q 245 -16 359 -16 q 107 29 151 -16 q 63 153 63 73 q 71 233 63 186 l 160 667 l 269 667 l 188 250 q 177 170 177 203 q 204 101 177 122 q 299 80 231 80 q 491 130 384 80 l 599 667 l 708 667 l 575 -33 z "},"ů":{"ha":741,"x_min":61,"x_max":708,"o":"m 61 0 m 184 234 q 177 172 177 201 q 204 102 177 123 q 293 80 231 80 q 488 128 375 80 l 595 667 l 708 667 l 580 0 l 503 0 l 490 47 q 247 -17 354 -17 q 109 28 156 -17 q 61 151 61 73 q 68 214 61 184 l 155 667 l 267 667 l 184 234 m 313 915 q 374 1015 323 972 q 484 1057 425 1057 q 582 1022 547 1057 q 616 931 616 986 q 613 898 616 922 q 549 798 601 840 q 441 755 498 755 q 343 790 377 755 q 309 878 309 825 q 313 915 309 891 m 547 929 q 530 971 547 955 q 486 988 514 988 q 419 963 448 988 q 382 898 391 938 q 380 880 380 891 q 396 840 380 856 q 438 825 411 825 q 506 851 476 825 q 545 915 536 877 l 547 929 z "},"ũ":{"ha":741,"x_min":61,"x_max":708,"o":"m 61 0 m 184 234 q 177 172 177 201 q 204 102 177 123 q 293 80 231 80 q 488 128 375 80 l 595 667 l 708 667 l 580 0 l 503 0 l 490 47 q 247 -17 354 -17 q 109 28 156 -17 q 61 151 61 73 q 68 214 61 184 l 155 667 l 267 667 l 184 234 m 377 931 q 421 919 401 931 q 472 885 441 908 q 535 852 512 852 q 584 873 564 852 q 623 934 604 894 l 698 901 q 629 805 674 840 q 528 769 585 769 q 473 780 495 769 q 424 814 451 792 q 396 835 410 826 q 370 844 382 844 q 325 823 344 844 q 286 764 306 802 l 212 797 q 281 895 238 859 q 377 931 325 931 z "},"v":{"ha":694,"x_min":102,"x_max":720,"o":"m 220 0 l 102 667 l 217 667 l 300 144 l 300 109 l 313 144 l 599 667 l 720 667 l 344 0 l 220 0 z "},"w":{"ha":1116,"x_min":102,"x_max":1142,"o":"m 281 134 l 280 108 l 286 134 l 559 667 l 670 667 l 738 134 l 738 108 l 747 134 l 1024 667 l 1142 667 l 792 0 l 653 0 l 589 516 l 326 0 l 198 0 l 102 667 l 210 667 l 281 134 z "},"x":{"ha":710,"x_min":-17,"x_max":727,"o":"m 587 0 l 462 0 l 337 241 l 116 2 l -17 2 l 288 335 l 113 668 l 233 668 l 365 418 l 592 667 l 727 667 l 415 326 l 587 0 z "},"y":{"ha":720,"x_min":35,"x_max":743,"o":"m 163 -358 l 35 -358 l 229 -35 l 102 667 l 214 667 l 311 115 l 623 667 l 743 667 l 163 -358 z "},"ý":{"ha":715,"x_min":35,"x_max":743,"o":"m 564 955 l 264 741 l 214 813 l 509 1035 l 564 955 m 163 -358 l 35 -358 l 229 -35 l 102 667 l 214 667 l 311 115 l 623 667 l 743 667 l 163 -358 z "},"ŷ":{"ha":720,"x_min":35,"x_max":743,"o":"m 35 0 m 163 -358 l 35 -358 l 229 -35 l 102 667 l 214 667 l 311 115 l 623 667 l 743 667 l 163 -358 m 563 750 l 446 894 l 276 752 l 217 816 l 458 1028 l 630 809 l 563 750 z "},"ÿ":{"ha":720,"x_min":35,"x_max":743,"o":"m 35 0 m 163 -358 l 35 -358 l 229 -35 l 102 667 l 214 667 l 311 115 l 623 667 l 743 667 l 163 -358 m 306 807 q 265 824 281 807 q 248 865 248 840 q 250 880 248 875 q 274 919 253 903 q 318 936 295 936 q 364 914 347 936 q 375 863 380 892 q 349 824 370 840 q 306 807 328 807 m 545 807 q 504 824 521 807 q 488 865 488 840 q 490 880 488 875 q 514 919 493 903 q 557 936 535 936 q 603 914 587 936 q 615 863 620 892 q 589 824 609 840 q 545 807 568 807 z "},"z":{"ha":670,"x_min":24,"x_max":642,"o":"m 641 608 l 181 85 l 557 85 l 540 0 l 24 0 l 26 57 l 484 578 l 128 578 l 146 667 l 642 667 l 641 608 z "},"ź":{"ha":670,"x_min":24,"x_max":642,"o":"m 24 0 m 641 608 l 181 85 l 557 85 l 540 0 l 24 0 l 26 57 l 484 578 l 128 578 l 146 667 l 642 667 l 641 608 m 599 955 l 299 741 l 248 813 l 543 1035 l 599 955 z "},"ž":{"ha":670,"x_min":24,"x_max":651,"o":"m 24 0 m 641 608 l 181 85 l 557 85 l 540 0 l 24 0 l 26 57 l 484 578 l 128 578 l 146 667 l 642 667 l 641 608 m 238 969 l 306 1028 l 422 884 l 592 1026 l 651 962 l 410 750 l 238 969 z "},"ż":{"ha":670,"x_min":24,"x_max":642,"o":"m 24 0 m 641 608 l 181 85 l 557 85 l 540 0 l 24 0 l 26 57 l 484 578 l 128 578 l 146 667 l 642 667 l 641 608 m 432 809 q 385 828 405 809 q 366 875 366 847 q 391 931 366 908 q 446 955 415 955 q 494 937 476 955 q 512 889 512 918 q 488 832 512 856 q 432 809 464 809 z "},"ﬁ":{"ha":795,"x_min":82,"x_max":814,"o":"m 512 873 q 388 839 427 873 q 333 724 349 806 l 323 667 l 543 667 l 526 578 l 307 578 l 194 0 l 82 0 l 194 578 l 95 578 l 113 667 l 208 667 l 222 738 q 304 906 245 851 q 481 962 363 962 q 611 943 550 962 l 589 863 q 512 873 543 873 m 736 795 q 688 814 707 795 q 670 861 670 833 q 694 914 670 889 q 750 939 717 939 q 797 921 780 939 q 814 875 814 903 q 792 820 814 845 q 736 795 769 795 m 630 0 l 517 0 l 648 667 l 760 667 l 630 0 z "},"ﬂ":{"ha":880,"x_min":82,"x_max":816,"o":"m 512 873 q 388 839 427 873 q 333 724 349 806 l 323 667 l 543 667 l 526 578 l 307 578 l 194 0 l 82 0 l 194 578 l 95 578 l 113 667 l 208 667 l 222 738 q 304 906 245 851 q 481 962 363 962 q 611 943 550 962 l 589 863 q 512 873 543 873 m 734 89 q 799 101 759 89 l 811 16 q 767 -1 806 14 q 674 -16 729 -16 q 582 18 616 -16 q 549 109 549 52 q 552 148 549 134 l 707 925 l 816 925 l 672 181 q 665 135 665 149 q 680 101 665 113 q 734 89 694 89 z "},"´":{"ha":335,"x_min":-24,"x_max":326,"o":"m 326 955 l 26 741 l -24 813 l 271 1035 l 326 955 z "},"˘":{"ha":425,"x_min":3,"x_max":411,"o":"m 184 837 q 272 867 236 837 q 339 948 307 898 l 411 906 q 316 798 375 842 q 181 753 257 753 q 58 801 101 753 q 3 915 16 849 l 78 941 q 115 864 94 891 q 184 837 137 837 z "},"ˇ":{"ha":424,"x_min":50,"x_max":464,"o":"m 50 969 l 118 1028 l 234 884 l 405 1026 l 464 962 l 222 750 l 50 969 z "},"¸":{"ha":337,"x_min":-238,"x_max":99,"o":"m -61 -280 q -10 -265 -28 -280 q 14 -219 7 -250 q -42 -165 21 -179 l -137 -141 l -66 19 l 23 19 l -26 -85 q 68 -130 36 -102 q 99 -208 99 -158 q 55 -318 99 -276 q -75 -359 10 -359 q -134 -353 -109 -359 q -192 -336 -158 -347 q -238 -321 -226 -325 l -201 -247 q -109 -274 -135 -269 q -61 -280 -83 -280 z "},"ˆ":{"ha":424,"x_min":-19,"x_max":394,"o":"m 326 750 l 210 894 l 40 752 l -19 816 l 222 1028 l 394 809 l 326 750 z "},"¨":{"ha":368,"x_min":-16,"x_max":356,"o":"m 42 807 q 1 824 17 807 q -16 865 -16 840 q -14 880 -16 875 q 10 919 -10 903 q 54 936 31 936 q 100 914 83 936 q 111 863 116 892 q 85 824 106 840 q 42 807 64 807 m 281 807 q 240 824 257 807 q 224 865 224 840 q 226 880 224 875 q 250 919 229 903 q 293 936 271 936 q 339 914 323 936 q 351 863 356 892 q 325 824 345 840 q 281 807 304 807 z "},"˙":{"ha":148,"x_min":-14,"x_max":132,"o":"m 52 809 q 5 828 24 809 q -14 875 -14 847 q 10 931 -14 908 q 66 955 35 955 q 114 937 95 955 q 132 889 132 918 q 108 832 132 856 q 52 809 83 809 z "},"`":{"ha":335,"x_min":9,"x_max":297,"o":"m 229 741 l 9 955 l 82 1030 l 297 807 l 229 741 z "},"˝":{"ha":595,"x_min":-24,"x_max":587,"o":"m 0 741 m 326 955 l 26 741 l -24 813 l 271 1035 l 326 955 m 587 955 l 286 741 l 236 813 l 531 1035 l 587 955 z "},"¯":{"ha":377,"x_min":-19,"x_max":358,"o":"m 340 809 l -19 809 l -2 899 l 358 899 l 340 809 z "},"˛":{"ha":358,"x_min":-102,"x_max":288,"o":"m 288 21 q 257 3 267 10 q 72 -114 141 -59 q 3 -238 3 -168 q 59 -285 3 -285 q 121 -273 87 -285 q 179 -245 155 -260 l 205 -306 q 28 -366 104 -366 q -69 -335 -36 -366 q -102 -252 -102 -304 q -41 -109 -102 -175 q 77 -10 21 -43 q 253 89 134 24 l 288 21 z "},"˚":{"ha":314,"x_min":-5,"x_max":302,"o":"m -2 915 q 60 1015 9 972 q 170 1057 111 1057 q 267 1022 233 1057 q 302 931 302 986 q 299 898 302 922 q 235 798 286 840 q 127 755 184 755 q 29 790 63 755 q -5 878 -5 825 q -2 915 -5 891 m 233 929 q 216 971 233 955 q 172 988 200 988 q 105 963 134 988 q 68 898 76 938 q 66 880 66 891 q 82 840 66 856 q 123 825 97 825 q 192 851 161 825 q 231 915 222 877 l 233 929 z "},"˜":{"ha":483,"x_min":-23,"x_max":464,"o":"m 142 931 q 187 919 167 931 q 238 885 207 908 q 300 852 278 852 q 350 873 330 852 q 389 934 370 894 l 464 901 q 395 805 439 840 q 293 769 351 769 q 239 780 260 769 q 189 814 217 792 q 161 835 175 826 q 135 844 148 844 q 90 823 109 844 q 52 764 71 802 l -23 797 q 47 895 3 859 q 142 931 90 931 z "},"̦":{"ha":0,"x_min":-106,"x_max":181,"o":"m -9 -345 l -106 -345 l 59 -83 l 181 -83 l -9 -345 z "},"ˉ":{"ha":550,"x_min":188,"x_max":564,"o":"m 547 809 l 564 899 l 205 899 l 188 809 l 547 809 z "},"ª":{"ha":460,"x_min":130,"x_max":476,"o":"m 313 877 q 379 859 359 877 q 399 809 399 842 q 396 773 399 797 q 186 743 241 778 q 130 630 130 708 q 161 559 130 587 q 236 531 191 531 q 366 580 302 531 l 375 542 l 431 542 l 472 778 q 476 816 476 806 q 438 911 476 878 q 335 944 401 944 q 200 918 274 944 l 200 856 q 313 877 271 877 m 262 597 q 225 611 238 597 q 212 649 212 625 q 214 667 212 661 q 250 702 219 691 q 326 714 281 714 l 384 714 l 373 639 q 262 597 325 597 z "},"º":{"ha":530,"x_min":146,"x_max":542,"o":"m 306 533 q 486 608 431 533 q 542 785 542 682 q 498 898 542 852 q 382 943 455 943 q 201 868 257 943 q 146 691 146 793 q 189 578 146 623 q 306 533 233 533 m 363 878 q 433 850 408 878 q 458 773 458 821 q 424 649 458 701 q 323 597 391 597 q 254 626 280 597 q 227 705 229 655 q 264 824 229 769 q 363 878 299 878 z "},"⁄":{"ha":486,"x_min":-271,"x_max":580,"o":"m -153 0 l 580 955 l 467 955 l -271 0 l -153 0 z "},"½":{"ha":1198,"x_min":-10,"x_max":984,"o":"m 106 0 l 915 955 l 800 955 l -10 0 l 106 0 m 71 908 l 90 839 l 194 865 l 113 415 l 200 415 l 304 955 l 227 955 l 71 908 m 656 420 q 806 457 752 457 q 891 391 891 457 q 887 363 891 380 q 844 286 880 328 q 736 186 807 245 l 582 56 l 582 0 l 924 0 l 941 80 l 736 80 q 928 264 872 193 q 984 398 984 335 q 818 542 984 542 q 739 532 776 542 q 651 503 701 523 l 656 420 z "},"¼":{"ha":1170,"x_min":-10,"x_max":917,"o":"m 106 0 l 915 955 l 800 955 l -10 0 l 106 0 m 71 908 l 90 839 l 194 865 l 113 415 l 200 415 l 304 955 l 227 955 l 71 908 m 484 186 l 477 115 l 729 115 l 707 0 l 792 0 l 814 115 l 901 115 l 917 196 l 833 196 l 899 536 l 793 536 l 484 186 m 793 417 l 745 196 l 597 196 l 793 417 z "},"¾":{"ha":1252,"x_min":0,"x_max":1002,"o":"m 262 965 q 187 960 217 965 q 102 939 156 955 l 116 863 q 241 885 201 885 q 323 821 323 885 q 177 726 323 726 l 161 726 l 148 653 l 163 653 q 264 637 231 653 q 297 583 297 622 q 160 483 297 483 q 107 491 137 483 q 40 512 76 500 l 0 441 q 155 405 82 405 q 331 456 278 405 q 384 582 384 507 q 321 691 384 653 q 384 761 361 722 q 406 844 406 800 q 367 932 406 899 q 262 965 328 965 m 191 0 l 1000 955 l 885 955 l 75 0 l 191 0 m 569 186 l 563 115 l 814 115 l 792 0 l 877 0 l 899 115 l 986 115 l 1002 196 l 918 196 l 984 536 l 878 536 l 569 186 m 878 417 l 830 196 l 682 196 l 878 417 z "},"¹":{"ha":311,"x_min":40,"x_max":273,"o":"m 40 972 l 59 903 l 163 929 l 82 479 l 168 479 l 273 1019 l 196 1019 l 40 972 z "},"²":{"ha":519,"x_min":2,"x_max":405,"o":"m 76 898 q 226 934 172 934 q 311 868 311 934 q 307 840 311 858 q 264 764 300 806 q 156 663 227 722 l 2 533 l 2 477 l 344 477 l 361 557 l 156 557 q 348 741 292 670 q 405 875 405 813 q 238 1019 405 1019 q 159 1010 196 1019 q 71 981 122 1000 l 76 898 z "},"³":{"ha":507,"x_min":-21,"x_max":385,"o":"m 241 1024 q 166 1019 196 1024 q 82 998 135 1014 l 95 922 q 220 944 181 944 q 302 880 302 944 q 156 785 302 785 l 141 785 l 127 712 l 142 712 q 243 696 210 712 q 276 642 276 681 q 139 542 276 542 q 86 550 116 542 q 19 571 56 559 l -21 500 q 134 464 61 464 q 310 515 257 464 q 363 641 363 566 q 300 750 363 712 q 363 820 340 781 q 385 903 385 859 q 346 991 385 958 q 241 1024 307 1024 z "},"ऄ":{"ha":1009,"x_min":23,"x_max":1139,"o":"m 814 0 l 720 0 l 790 335 q 670 316 733 316 q 597 319 646 316 q 599 286 599 309 q 594 229 599 264 q 501 97 578 151 q 328 43 424 43 q 141 110 208 43 q 23 316 73 177 l 102 356 q 194 188 144 241 q 330 134 243 134 q 448 168 398 134 q 510 264 498 201 q 514 293 514 285 q 475 365 514 339 q 337 392 436 392 l 316 392 l 280 392 l 297 477 l 333 477 q 552 611 524 476 q 554 632 554 618 q 527 686 554 667 q 455 705 500 705 q 366 687 403 705 q 283 632 330 668 l 240 710 q 342 770 292 747 q 460 793 392 793 q 595 752 545 793 q 644 641 644 710 q 641 604 644 628 q 497 438 618 493 q 649 399 580 399 q 729 409 696 399 q 802 436 762 418 l 859 708 l 696 708 l 712 792 l 877 795 q 844 872 878 849 q 726 896 809 896 q 521 1052 521 896 q 523 1082 521 1071 l 609 1104 q 616 1030 608 1056 q 647 995 625 1005 q 708 979 668 984 l 766 979 q 911 935 849 979 q 965 788 974 891 l 1139 792 l 1123 708 l 953 708 l 814 0 z "},"ॲ":{"ha":1026,"x_min":24,"x_max":1207,"o":"m 948 884 q 804 932 856 884 q 743 1059 752 981 l 823 1085 q 861 995 833 1023 q 950 967 889 967 q 1058 998 1016 967 q 1137 1092 1101 1030 l 1207 1052 q 1103 929 1170 974 q 948 884 1036 884 m 953 708 l 816 0 l 722 0 l 792 335 q 672 316 731 316 q 599 319 648 316 q 601 286 601 309 q 595 229 601 264 q 503 97 580 151 q 330 43 425 43 q 142 110 210 43 q 24 316 75 177 l 104 356 q 194 188 144 243 q 332 134 245 134 q 450 168 399 134 q 512 264 500 201 q 516 293 516 285 q 477 365 516 339 q 339 392 438 392 l 318 392 l 281 392 l 299 477 l 335 477 q 554 611 526 476 q 556 632 556 618 q 529 686 556 667 q 457 705 502 705 q 368 687 405 705 q 285 632 332 668 l 241 710 q 344 770 293 747 q 462 793 394 793 q 596 752 547 793 q 646 641 646 710 q 642 604 646 628 q 498 438 620 493 q 651 399 582 399 q 731 409 698 399 q 804 436 764 418 l 859 708 l 696 708 l 714 792 l 1141 792 l 1123 708 l 953 708 z "},"अ":{"ha":1009,"x_min":23,"x_max":1139,"o":"m 814 0 l 720 0 l 790 335 q 670 316 733 316 q 597 319 646 316 q 599 286 599 309 q 594 229 599 264 q 501 97 578 151 q 328 43 424 43 q 141 110 208 43 q 23 316 73 177 l 102 356 q 194 188 144 241 q 330 134 243 134 q 448 168 398 134 q 510 264 498 201 q 514 293 514 285 q 475 365 514 339 q 337 392 436 392 l 316 392 l 280 392 l 297 477 l 333 477 q 552 611 524 476 q 554 632 554 618 q 527 686 554 667 q 455 705 500 705 q 366 687 403 705 q 283 632 330 668 l 240 710 q 342 770 292 747 q 460 793 392 793 q 595 752 545 793 q 644 641 644 710 q 641 604 644 628 q 497 438 618 493 q 649 399 580 399 q 729 409 696 399 q 802 436 762 418 l 859 708 l 696 708 l 712 792 l 1139 792 l 1123 708 l 953 708 l 814 0 z "},"आ":{"ha":1373,"x_min":24,"x_max":1503,"o":"m 1181 0 l 1085 0 l 1222 708 l 953 708 l 816 0 l 722 0 l 790 333 q 672 316 727 316 q 597 319 649 316 q 601 283 601 299 q 595 229 601 260 q 503 97 580 151 q 330 43 425 43 q 142 110 210 43 q 24 316 75 177 l 104 356 q 194 188 144 243 q 332 134 245 134 q 450 168 399 134 q 512 264 500 201 q 516 293 516 285 q 477 365 516 339 q 339 392 438 392 l 318 392 l 281 392 l 299 477 l 335 477 q 554 611 526 476 q 556 632 556 618 q 529 686 556 667 q 457 705 502 705 q 368 687 405 705 q 285 632 332 668 l 241 710 q 344 770 293 747 q 462 793 394 793 q 596 752 547 793 q 646 641 646 710 q 642 604 646 628 q 498 438 620 493 q 651 399 582 399 q 734 409 700 399 q 804 436 767 418 l 859 708 l 696 708 l 714 792 l 1503 792 l 1486 708 l 1318 708 l 1181 0 z "},"इ":{"ha":661,"x_min":31,"x_max":792,"o":"m 345 510 q 196 436 212 510 q 194 420 194 431 q 221 382 194 392 q 309 372 248 372 l 378 373 q 503 338 455 373 q 550 233 550 302 q 473 76 550 135 q 278 16 396 16 l 255 16 l 335 -120 l 241 -172 l 134 40 q 36 144 36 75 q 56 201 36 175 q 135 227 76 227 l 201 109 q 278 102 224 102 q 396 130 344 102 q 458 210 448 158 l 460 224 q 363 286 460 286 l 290 285 q 164 310 222 285 q 106 413 106 335 q 173 554 106 509 q 354 599 240 599 q 469 592 411 599 l 495 708 l 31 708 l 49 792 l 792 792 l 774 708 l 592 708 l 556 507 l 536 495 l 498 500 q 345 510 422 510 z "},"ई":{"ha":661,"x_min":31,"x_max":828,"o":"m 345 510 q 196 436 212 510 q 194 420 194 431 q 221 382 194 392 q 309 372 248 372 l 378 373 q 503 338 455 373 q 550 233 550 302 q 473 76 550 135 q 278 16 396 16 l 255 16 l 335 -120 l 241 -172 l 134 40 q 36 144 36 75 q 56 201 36 175 q 135 227 76 227 l 201 109 q 278 102 224 102 q 396 130 344 102 q 458 210 448 158 l 460 224 q 363 286 460 286 l 290 285 q 164 310 222 285 q 106 413 106 335 q 173 554 106 509 q 354 599 240 599 q 469 592 411 599 l 495 708 l 31 708 l 49 792 l 495 795 q 429 938 429 856 q 497 1083 429 1031 q 658 1135 564 1135 q 828 1078 745 1135 l 771 1005 q 714 1033 748 1021 q 653 1045 681 1045 q 567 1023 604 1045 q 519 946 530 1002 q 517 925 517 939 q 543 854 517 887 q 615 790 569 821 l 792 792 l 774 708 l 592 708 l 556 507 l 536 495 l 498 500 q 345 510 422 510 z "},"उ":{"ha":747,"x_min":24,"x_max":877,"o":"m 622 705 q 648 620 648 668 q 644 580 648 594 q 601 486 634 526 q 503 417 568 446 q 604 269 604 382 q 599 210 604 241 q 504 65 582 122 q 330 9 427 9 q 142 76 210 9 q 24 281 75 142 l 104 321 q 194 154 144 208 q 332 99 245 99 q 451 134 401 99 q 514 238 500 168 q 517 273 517 262 q 478 347 517 319 q 342 375 439 375 l 321 375 l 302 375 l 319 460 l 339 460 q 563 597 533 458 q 566 627 566 618 q 545 681 566 661 q 476 708 524 700 l 31 708 l 49 792 l 877 792 l 859 708 l 622 705 z "},"ऊ":{"ha":1012,"x_min":24,"x_max":1142,"o":"m 622 705 q 648 620 648 668 q 644 580 648 594 q 601 486 634 526 q 503 417 568 446 q 563 382 535 408 q 659 450 602 418 q 769 481 715 481 q 883 442 839 481 q 927 337 927 403 q 879 194 927 253 q 762 90 832 135 l 708 161 q 752 191 717 168 q 808 244 786 214 q 837 313 830 274 q 839 333 839 319 q 769 394 839 394 q 604 300 691 394 q 599 210 608 257 q 504 65 582 122 q 330 9 427 9 q 142 76 210 9 q 24 281 75 142 l 104 321 q 194 154 144 208 q 332 99 245 99 q 451 134 401 99 q 514 238 500 168 q 517 273 517 262 q 478 347 517 319 q 342 375 439 375 l 321 375 l 302 375 l 319 460 l 339 460 q 563 597 533 458 q 566 627 566 618 q 545 681 566 661 q 476 708 524 700 l 31 708 l 49 792 l 1142 792 l 1125 708 l 622 705 z "},"ऋ":{"ha":1095,"x_min":31,"x_max":1226,"o":"m 648 413 q 748 384 700 384 q 868 434 814 384 l 813 549 q 915 594 858 594 q 967 569 944 594 q 990 505 990 545 q 986 477 990 498 q 964 427 979 446 l 1026 259 l 1028 257 l 990 181 l 958 181 q 875 159 908 181 q 835 102 842 137 q 833 85 833 95 q 898 40 833 40 q 984 61 943 40 l 1010 -12 q 896 -36 960 -36 q 787 -3 825 -36 q 750 87 750 31 q 798 198 750 149 q 932 257 845 247 l 903 352 q 748 299 828 299 q 686 305 710 299 q 637 325 661 311 l 571 0 l 474 0 l 535 306 l 142 24 q 119 57 135 35 q 94 90 102 80 l 498 387 q 345 491 431 491 q 239 459 290 493 q 111 359 188 425 l 50 431 q 207 547 141 509 q 354 585 273 585 q 465 554 417 585 q 563 462 514 523 l 611 708 l 31 708 l 49 792 l 1226 792 l 1208 708 l 708 708 l 648 413 z "},"ॠ":{"ha":1095,"x_min":31,"x_max":1226,"o":"m 648 413 q 748 384 700 384 q 868 434 814 384 l 813 549 q 915 594 858 594 q 967 569 944 594 q 990 505 990 545 q 986 477 990 498 q 964 427 979 446 l 1026 259 l 1028 257 l 990 181 l 958 181 q 875 159 908 181 q 835 102 842 137 q 833 89 833 97 q 856 49 833 63 q 917 36 878 36 l 1000 36 l 983 -50 l 922 -50 q 839 -72 873 -50 q 795 -137 804 -94 q 793 -155 793 -144 q 865 -205 793 -205 q 988 -170 927 -205 l 1023 -247 q 943 -278 983 -267 q 851 -288 903 -288 q 740 -253 780 -288 q 701 -161 701 -217 q 802 -9 701 -59 q 750 89 750 21 q 799 199 750 151 q 932 257 847 247 l 903 352 q 748 299 828 299 q 686 305 710 299 q 637 325 661 311 l 571 0 l 474 0 l 535 306 l 142 24 q 119 57 135 35 q 94 90 102 80 l 498 387 q 345 491 431 491 q 239 459 290 493 q 111 359 188 425 l 50 431 q 207 547 141 509 q 354 585 273 585 q 465 554 417 585 q 563 462 514 523 l 611 708 l 31 708 l 49 792 l 1226 792 l 1208 708 l 708 708 l 648 413 z "},"ऌ":{"ha":922,"x_min":31,"x_max":1052,"o":"m 752 517 q 822 455 797 497 q 847 363 847 413 q 842 321 847 342 q 799 228 830 267 q 717 153 767 189 l 682 132 q 622 90 642 109 q 595 36 602 71 q 594 23 594 31 q 649 -19 594 -19 q 703 -4 675 -19 q 766 33 731 10 l 800 -50 q 637 -108 722 -108 q 535 -74 568 -108 q 502 14 502 -40 q 505 49 502 24 q 550 143 516 108 q 646 212 585 179 q 752 337 736 262 q 753 358 753 344 q 730 419 753 394 q 655 444 707 444 q 548 397 592 444 q 490 273 503 349 q 479 188 486 255 l 391 208 q 393 249 391 226 q 401 293 396 273 q 427 375 411 342 q 335 444 398 444 q 227 402 273 444 q 168 290 182 359 q 165 252 165 266 q 194 130 165 186 q 267 16 224 75 l 167 -19 q 139 20 167 -23 q 89 122 111 63 q 66 248 66 182 q 71 307 66 280 q 164 475 92 411 q 340 538 236 538 q 426 516 389 538 q 486 462 464 495 q 658 535 556 530 l 694 708 l 31 708 l 49 792 l 1052 792 l 1035 708 l 792 708 l 752 517 z "},"ॡ":{"ha":922,"x_min":31,"x_max":1052,"o":"m 752 517 q 822 455 797 497 q 847 363 847 413 q 842 321 847 342 q 799 228 830 267 q 717 153 767 189 q 693 138 705 144 q 672 127 681 132 q 615 90 634 106 q 592 50 597 75 q 590 33 590 45 q 727 -17 590 -26 l 715 -95 l 644 -95 q 566 -121 599 -97 q 526 -182 533 -144 q 524 -198 524 -187 q 589 -243 524 -243 q 712 -208 648 -243 l 747 -285 q 666 -316 708 -306 q 587 -326 623 -326 q 474 -292 510 -326 q 438 -205 438 -257 q 472 -108 438 -149 q 563 -50 507 -66 q 518 -14 533 -38 q 503 42 503 10 q 538 133 503 97 q 644 217 573 168 q 752 337 736 264 q 753 358 753 344 q 730 419 753 394 q 655 444 707 444 q 548 397 592 444 q 490 273 503 349 q 479 188 486 255 l 391 208 q 393 249 391 226 q 401 293 396 273 q 427 375 411 342 q 335 444 398 444 q 227 402 273 444 q 168 290 182 359 q 165 252 165 266 q 194 130 165 186 q 267 16 224 75 l 167 -19 q 139 20 167 -23 q 89 122 111 63 q 66 248 66 182 q 71 307 66 280 q 164 475 92 411 q 340 538 236 538 q 426 516 389 538 q 486 462 464 495 q 658 535 556 530 l 694 708 l 31 708 l 49 792 l 1052 792 l 1035 708 l 792 708 l 752 517 z "},"ऍ":{"ha":710,"x_min":31,"x_max":840,"o":"m 462 884 q 318 932 370 884 q 257 1059 266 981 l 337 1085 q 375 995 347 1023 q 464 967 403 967 q 572 998 530 967 q 651 1092 615 1030 l 720 1052 q 617 929 684 974 q 462 884 550 884 m 403 297 q 475 334 451 314 q 507 378 498 354 q 528 453 516 401 l 576 708 l 255 708 l 182 337 l 538 -9 l 469 -76 l 85 299 l 161 708 l 31 708 l 49 792 l 840 792 l 823 708 l 667 708 l 613 427 q 560 293 595 342 q 439 214 524 245 l 403 297 z "},"ऎ":{"ha":710,"x_min":31,"x_max":840,"o":"m 403 297 q 475 334 451 314 q 507 378 498 354 q 528 453 516 401 l 576 708 l 255 708 l 182 337 l 538 -9 l 469 -76 l 85 299 l 161 708 l 31 708 l 49 792 l 592 795 q 558 872 594 849 q 439 896 523 896 q 236 1050 236 896 q 238 1082 236 1071 l 325 1104 q 332 1030 323 1056 q 362 995 340 1005 q 424 979 384 984 l 481 979 q 627 935 564 979 q 681 788 689 891 l 840 792 l 823 708 l 667 708 l 613 427 q 560 293 595 342 q 439 214 524 245 l 403 297 z "},"ए":{"ha":710,"x_min":31,"x_max":840,"o":"m 403 297 q 475 334 451 314 q 507 378 498 354 q 528 453 516 401 l 576 708 l 255 708 l 182 337 l 538 -9 l 469 -76 l 85 299 l 161 708 l 31 708 l 49 792 l 840 792 l 823 708 l 667 708 l 613 427 q 560 293 595 342 q 439 214 524 245 l 403 297 z "},"ऐ":{"ha":710,"x_min":31,"x_max":840,"o":"m 823 708 l 667 708 l 613 427 q 560 293 595 342 q 439 214 524 245 l 403 297 q 475 334 451 314 q 507 378 498 354 q 528 453 516 401 l 576 708 l 255 708 l 182 337 l 538 -9 l 469 -76 l 85 299 l 160 708 l 31 708 l 49 792 l 580 792 l 472 974 q 444 1009 457 1000 q 406 1017 431 1017 q 353 1010 380 1017 q 323 998 326 1002 l 302 1076 q 322 1085 306 1078 q 363 1099 339 1092 q 410 1106 387 1106 q 488 1087 460 1106 q 547 1017 516 1068 l 684 792 l 840 792 l 823 708 z "},"ऑ":{"ha":1392,"x_min":24,"x_max":1573,"o":"m 1314 884 q 1170 932 1222 884 q 1109 1059 1118 981 l 1189 1085 q 1227 995 1200 1023 q 1316 967 1255 967 q 1424 998 1382 967 q 1503 1092 1467 1030 l 1573 1052 q 1470 929 1536 974 q 1314 884 1403 884 m 1181 0 l 1085 0 l 1222 708 l 953 708 l 816 0 l 722 0 l 790 333 q 672 316 727 316 q 597 319 649 316 q 601 283 601 299 q 595 229 601 260 q 503 97 580 151 q 330 43 425 43 q 142 110 210 43 q 24 316 75 177 l 104 356 q 194 188 144 243 q 332 134 245 134 q 450 168 399 134 q 512 264 500 201 q 516 293 516 285 q 477 365 516 339 q 339 392 438 392 l 318 392 l 281 392 l 299 477 l 335 477 q 554 611 526 476 q 556 632 556 618 q 529 686 556 667 q 457 705 502 705 q 368 687 405 705 q 285 632 332 668 l 241 710 q 344 770 293 747 q 462 793 394 793 q 596 752 547 793 q 646 641 646 710 q 642 604 646 628 q 498 438 620 493 q 651 399 582 399 q 734 409 700 399 q 804 436 767 418 l 859 708 l 696 708 l 714 792 l 1503 792 l 1486 708 l 1318 708 l 1181 0 z "},"ओ":{"ha":1375,"x_min":24,"x_max":1505,"o":"m 1488 708 l 1319 708 l 1182 0 l 1087 0 l 1224 708 l 953 708 l 816 0 l 722 0 l 792 335 q 672 316 731 316 q 599 319 648 316 q 601 286 601 309 q 595 229 601 262 q 503 97 580 151 q 330 43 425 43 q 142 110 210 43 q 24 316 75 177 l 104 356 q 194 188 144 243 q 332 134 245 134 q 450 168 399 134 q 512 264 500 201 q 516 293 516 285 q 477 365 516 339 q 339 392 438 392 l 318 392 l 281 392 l 299 477 l 335 477 q 554 611 526 476 q 556 632 556 618 q 529 686 556 667 q 457 705 502 705 q 368 687 405 705 q 285 632 332 668 l 241 710 q 344 770 293 747 q 462 793 394 793 q 596 752 547 793 q 646 641 646 710 q 642 604 646 628 q 498 438 620 493 q 651 399 582 399 q 731 409 698 399 q 804 436 764 418 l 859 708 l 696 708 l 714 792 l 1233 792 l 1125 974 q 1099 1009 1111 1000 q 1061 1017 1087 1017 q 1007 1010 1035 1017 q 976 998 979 1002 l 955 1076 q 975 1085 958 1078 q 1016 1099 991 1092 q 1064 1106 1040 1106 q 1141 1086 1113 1106 q 1200 1017 1170 1066 l 1339 792 l 1505 792 l 1488 708 z "},"औ":{"ha":1375,"x_min":24,"x_max":1505,"o":"m 1182 0 l 1087 0 l 1224 708 l 953 708 l 816 0 l 722 0 l 792 335 q 672 316 731 316 q 599 319 648 316 q 601 286 601 309 q 595 229 601 264 q 503 97 580 151 q 330 43 425 43 q 142 110 210 43 q 24 316 75 177 l 104 356 q 194 188 144 243 q 332 134 245 134 q 450 168 399 134 q 512 264 500 201 q 516 293 516 285 q 477 365 516 339 q 339 392 438 392 l 318 392 l 281 392 l 299 477 l 335 477 q 554 611 526 476 q 556 632 556 618 q 529 686 556 667 q 457 705 502 705 q 368 687 405 705 q 285 632 332 668 l 241 710 q 344 770 293 747 q 462 793 394 793 q 596 752 547 793 q 646 641 646 710 q 642 604 646 628 q 498 438 620 493 q 651 399 582 399 q 731 409 698 399 q 804 436 764 418 l 859 708 l 696 708 l 714 792 l 1207 792 l 1118 866 q 1080 899 1108 875 q 1034 933 1052 924 q 1000 943 1016 943 q 953 937 981 943 q 917 927 925 931 l 908 1007 q 952 1022 918 1010 q 1007 1033 986 1033 q 1067 1018 1043 1033 q 1125 969 1090 1003 l 1160 936 l 1283 814 l 1240 986 q 1227 1026 1236 995 q 1203 1073 1219 1057 q 1167 1089 1188 1089 q 1123 1083 1148 1089 q 1092 1076 1099 1078 l 1089 1160 q 1126 1170 1097 1163 q 1179 1177 1155 1177 q 1265 1141 1240 1177 q 1306 1040 1290 1106 l 1361 792 l 1505 792 l 1488 708 l 1319 708 l 1182 0 z "},"ॳ":{"ha":1010,"x_min":24,"x_max":1141,"o":"m 953 708 l 816 0 l 722 0 l 790 333 q 672 316 727 316 q 597 319 649 316 q 601 283 601 299 q 595 229 601 260 q 503 97 580 151 q 330 43 425 43 q 142 110 210 43 q 24 316 75 177 l 104 356 q 194 188 144 243 q 332 134 245 134 q 450 168 399 134 q 512 264 500 201 q 516 293 516 285 q 477 365 516 339 q 339 392 438 392 l 318 392 l 281 392 l 299 477 l 335 477 q 554 611 526 476 q 556 632 556 618 q 529 686 556 667 q 457 705 502 705 q 368 687 405 705 q 285 632 332 668 l 241 710 q 344 770 293 747 q 462 793 394 793 q 596 752 547 793 q 646 641 646 710 q 642 604 646 628 q 498 438 620 493 q 651 399 582 399 q 734 409 700 399 q 804 436 767 418 l 859 708 l 696 708 l 714 792 l 877 792 l 908 955 l 1002 955 l 970 792 l 1141 792 l 1123 708 l 953 708 z "},"ॴ":{"ha":1373,"x_min":24,"x_max":1503,"o":"m 1318 708 l 1181 0 l 1085 0 l 1222 708 l 953 708 l 816 0 l 722 0 l 790 333 q 672 316 727 316 q 597 319 649 316 q 601 283 601 299 q 595 229 601 260 q 503 97 580 151 q 330 43 425 43 q 142 110 210 43 q 24 316 75 177 l 104 356 q 194 188 144 243 q 332 134 245 134 q 450 168 399 134 q 512 264 500 201 q 516 293 516 285 q 477 365 516 339 q 339 392 438 392 l 318 392 l 281 392 l 299 477 l 335 477 q 554 611 526 476 q 556 632 556 618 q 529 686 556 667 q 457 705 502 705 q 368 687 405 705 q 285 632 332 668 l 241 710 q 344 770 293 747 q 462 793 394 793 q 596 752 547 793 q 646 641 646 710 q 642 604 646 628 q 498 438 620 493 q 651 399 582 399 q 734 409 700 399 q 804 436 767 418 l 859 708 l 696 708 l 714 792 l 1243 792 l 1274 955 l 1368 955 l 1337 792 l 1503 792 l 1486 708 l 1318 708 z "},"ॵ":{"ha":1373,"x_min":24,"x_max":1503,"o":"m 1318 708 l 1181 0 l 1085 0 l 1222 708 l 953 708 l 816 0 l 722 0 l 790 333 q 672 316 727 316 q 597 319 649 316 q 601 283 601 299 q 595 229 601 260 q 503 97 580 151 q 330 43 425 43 q 142 110 210 43 q 24 316 75 177 l 104 356 q 194 188 144 243 q 332 134 245 134 q 450 168 399 134 q 512 264 500 201 q 516 293 516 285 q 477 365 516 339 q 339 392 438 392 l 318 392 l 281 392 l 299 477 l 335 477 q 554 611 526 476 q 556 632 556 618 q 529 686 556 667 q 457 705 502 705 q 368 687 405 705 q 285 632 332 668 l 241 710 q 344 770 293 747 q 462 793 394 793 q 596 752 547 793 q 646 641 646 710 q 642 604 646 628 q 498 438 620 493 q 651 399 582 399 q 734 409 700 399 q 804 436 767 418 l 859 708 l 696 708 l 714 792 l 1219 795 q 1183 873 1220 851 q 1054 896 1146 896 q 851 1050 851 896 q 852 1082 851 1071 l 939 1104 q 957 1009 936 1033 q 1038 981 979 984 q 1162 967 1111 977 q 1255 920 1214 957 q 1297 813 1297 884 l 1295 788 l 1309 814 q 1337 878 1328 844 q 1339 901 1339 885 q 1315 959 1339 936 q 1236 1007 1292 983 q 1142 1061 1184 1024 q 1101 1161 1101 1097 q 1104 1196 1101 1172 q 1127 1262 1111 1227 l 1214 1252 q 1194 1193 1198 1215 q 1191 1168 1191 1175 q 1205 1124 1191 1142 q 1250 1089 1219 1106 q 1315 1058 1262 1083 q 1395 997 1368 1033 q 1422 910 1422 960 q 1417 865 1422 891 q 1385 788 1410 826 l 1503 792 l 1486 708 l 1318 708 z "},"ॶ":{"ha":1010,"x_min":24,"x_max":1141,"o":"m 816 0 l 722 0 l 792 335 q 672 316 731 316 q 599 319 648 316 q 601 286 601 309 q 595 229 601 264 q 503 97 580 151 q 330 43 425 43 q 142 110 210 43 q 24 316 75 177 l 104 356 q 194 188 144 243 q 332 134 245 134 q 450 168 399 134 q 512 264 500 201 q 516 293 516 285 q 477 365 516 339 q 339 392 438 392 l 318 392 l 281 392 l 299 477 l 335 477 q 554 611 526 476 q 556 632 556 618 q 529 686 556 667 q 457 705 502 705 q 368 687 405 705 q 285 632 332 668 l 241 710 q 344 770 293 747 q 462 793 394 793 q 596 752 547 793 q 646 641 646 710 q 642 604 646 628 q 498 438 620 493 q 651 399 582 399 q 731 409 698 399 q 804 436 764 418 l 859 708 l 696 708 l 714 792 l 1141 792 l 1123 708 l 953 708 l 816 0 m 498 -227 q 367 -193 422 -227 q 299 -95 313 -158 l 373 -61 q 418 -125 389 -106 q 500 -144 448 -144 q 596 -122 556 -144 q 670 -54 637 -101 l 734 -102 q 635 -195 698 -163 q 498 -227 571 -227 z "},"ॷ":{"ha":1010,"x_min":24,"x_max":1141,"o":"m 816 0 l 722 0 l 792 335 q 672 316 731 316 q 599 319 648 316 q 601 286 601 309 q 595 229 601 264 q 503 97 580 151 q 330 43 425 43 q 142 110 210 43 q 24 316 75 177 l 104 356 q 194 188 144 243 q 332 134 245 134 q 450 168 399 134 q 512 264 500 201 q 516 293 516 285 q 477 365 516 339 q 339 392 438 392 l 318 392 l 281 392 l 299 477 l 335 477 q 554 611 526 476 q 556 632 556 618 q 529 686 556 667 q 457 705 502 705 q 368 687 405 705 q 285 632 332 668 l 241 710 q 344 770 293 747 q 462 793 394 793 q 596 752 547 793 q 646 641 646 710 q 642 604 646 628 q 498 438 620 493 q 651 399 582 399 q 731 409 698 399 q 804 436 764 418 l 859 708 l 696 708 l 714 792 l 1141 792 l 1123 708 l 953 708 l 816 0 m 498 -227 q 367 -193 422 -227 q 299 -95 313 -158 l 373 -61 q 418 -125 389 -106 q 500 -144 448 -144 q 596 -122 556 -144 q 670 -54 637 -101 l 734 -102 q 635 -195 698 -163 q 498 -227 571 -227 m 464 -401 q 332 -366 385 -401 q 266 -269 278 -332 l 340 -234 q 385 -299 354 -280 q 467 -318 415 -318 q 563 -296 523 -318 q 637 -227 604 -274 l 700 -276 q 602 -369 665 -337 q 464 -401 538 -401 z "},"ऀ":{"ha":0,"x_min":2,"x_max":469,"o":"m 2 885 m 245 995 q 284 977 271 995 q 293 932 297 958 q 273 898 290 911 q 236 885 257 885 q 199 899 212 885 q 186 934 186 913 q 201 977 186 958 q 245 995 217 995 m 264 1177 q 408 1128 356 1177 q 469 1002 460 1080 l 389 976 q 351 1066 378 1038 q 262 1094 323 1094 q 154 1063 196 1094 q 75 969 111 1031 l 2 1012 q 264 1177 83 1177 z "},"ँ":{"ha":0,"x_min":47,"x_max":514,"o":"m 271 1066 q 232 1084 245 1066 q 222 1128 219 1102 q 242 1162 226 1149 q 280 1175 259 1175 q 317 1161 304 1175 q 330 1127 330 1148 q 314 1084 330 1102 q 271 1066 299 1066 m 252 884 q 108 932 160 884 q 47 1059 56 981 l 127 1085 q 165 995 137 1023 q 253 967 193 967 q 362 998 319 967 q 441 1092 405 1030 l 514 1049 q 252 884 432 884 z "},"ं":{"ha":0,"x_min":-205,"x_max":-78,"o":"m -148 901 q -189 916 -174 901 q -205 955 -205 931 q -203 972 -205 967 q -181 1012 -200 997 q -137 1028 -163 1028 q -94 1012 -109 1028 q -78 972 -78 997 q -97 922 -78 943 q -148 901 -116 901 z "},"ः":{"ha":300,"x_min":-68,"x_max":127,"o":"m 57 446 q 16 462 31 446 q 0 503 0 477 q 2 517 0 512 q 24 557 7 542 q 68 573 42 573 q 111 557 95 573 q 127 517 127 542 q 108 467 127 488 q 57 446 89 446 m -10 99 q -52 115 -36 99 q -68 156 -68 130 q -66 170 -68 165 q -43 210 -61 194 q 0 226 -26 226 q 43 210 28 226 q 59 170 59 194 q 40 120 59 141 q -10 99 21 99 z "},"ा":{"ha":372,"x_min":31,"x_max":502,"o":"m 170 0 l 75 0 l 214 708 l 31 708 l 49 792 l 502 792 l 484 708 l 309 708 l 170 0 z "},"ि":{"ha":361,"x_min":31,"x_max":1109,"o":"m 521 1127 q 863 1035 724 1127 q 1109 753 1002 943 l 997 760 q 521 1040 830 1040 q 354 989 417 1040 q 292 859 292 938 q 313 792 292 825 l 491 792 l 474 708 l 300 708 l 161 0 l 66 0 l 205 708 l 31 708 l 49 792 l 212 792 q 200 861 200 828 q 205 906 200 884 q 303 1064 220 1002 q 521 1127 385 1127 z "},"ी":{"ha":363,"x_min":-184,"x_max":493,"o":"m 170 0 l 75 0 l 214 708 l 31 708 l 49 792 l 224 792 q 162 978 214 922 q 47 1035 111 1035 q -56 996 -24 1035 q -89 913 -89 957 q -63 823 -89 868 q -10 762 -38 778 l -122 762 q -161 817 -137 773 q -184 917 -184 861 q -126 1064 -184 1002 q 56 1127 -68 1127 q 184 1085 125 1127 q 280 967 243 1043 q 319 792 316 891 l 493 792 l 476 708 l 309 708 l 170 0 z "},"ु":{"ha":0,"x_min":-755,"x_max":-233,"o":"m -365 23 q -267 -17 -302 23 q -233 -116 -233 -57 q -301 -265 -233 -208 q -464 -321 -370 -321 q -589 -293 -533 -321 q -677 -231 -644 -264 q -755 -142 -710 -198 l -689 -85 q -579 -194 -628 -156 q -465 -233 -530 -233 q -366 -203 -410 -233 q -323 -120 -323 -174 q -380 -69 -323 -69 q -444 -81 -406 -69 q -486 -95 -483 -92 l -505 -10 q -442 12 -481 2 q -365 23 -403 23 z "},"ू":{"ha":0,"x_min":-573,"x_max":-69,"o":"m -312 -290 q -436 -321 -372 -321 q -537 -280 -502 -321 q -573 -179 -573 -240 q -569 -142 -573 -167 q -495 -22 -554 -62 q -363 19 -436 19 q -240 -30 -297 19 q -158 -115 -182 -78 q -69 -255 -134 -153 l -146 -304 q -266 -128 -219 -184 q -366 -71 -314 -71 q -442 -95 -410 -71 q -483 -160 -474 -118 q -484 -179 -484 -167 q -470 -219 -484 -205 q -431 -233 -455 -233 q -342 -207 -387 -233 l -312 -290 z "},"ृ":{"ha":0,"x_min":-196,"x_max":151,"o":"m -33 -347 q -155 -307 -113 -347 q -196 -201 -196 -267 q -131 -45 -196 -108 q 45 17 -66 17 l 151 17 l 130 -76 l 35 -73 q -59 -99 -23 -73 q -106 -177 -95 -125 q -108 -198 -108 -184 q -86 -247 -108 -231 q -30 -264 -64 -264 q 92 -229 31 -264 l 128 -306 q 51 -338 89 -328 q -33 -347 14 -347 z "},"ॄ":{"ha":0,"x_min":-243,"x_max":148,"o":"m -87 -564 q -201 -528 -160 -564 q -243 -432 -243 -491 q -240 -399 -243 -420 q -120 -269 -220 -311 q -189 -156 -189 -227 q -128 -30 -189 -78 q 45 17 -66 17 l 148 17 l 130 -73 l 35 -73 q -57 -91 -24 -73 q -99 -153 -90 -109 q -78 -207 -106 -189 q -2 -226 -50 -226 l 66 -226 l 49 -312 l -12 -312 q -102 -336 -64 -312 q -151 -408 -141 -359 q -153 -425 -153 -415 q -73 -481 -153 -481 q 50 -446 -10 -481 l 87 -523 q 5 -554 43 -543 q -87 -564 -33 -564 z "},"ॢ":{"ha":0,"x_min":-207,"x_max":444,"o":"m 330 -380 q 282 -416 319 -389 q 227 -467 245 -443 q 208 -516 208 -491 q 221 -543 208 -533 q 257 -552 234 -552 q 320 -537 290 -552 q 384 -500 351 -523 l 420 -576 q 339 -618 384 -602 q 255 -634 295 -634 q 156 -601 189 -634 q 123 -519 123 -568 q 146 -442 123 -474 q 217 -365 168 -410 l 250 -333 q 326 -266 302 -293 q 359 -198 351 -240 q 361 -179 361 -191 q 286 -122 361 -122 q 187 -165 226 -122 q 132 -283 148 -208 l 125 -342 l 43 -321 q 50 -262 43 -292 q 87 -163 59 -212 q 12 -123 59 -123 q -111 -236 -89 -123 q -115 -273 -115 -260 q -104 -342 -115 -309 q -73 -427 -94 -375 l -158 -455 q -175 -413 -161 -446 q -198 -342 -189 -380 q -207 -267 -207 -304 q -201 -215 -207 -241 q -126 -84 -186 -134 q 17 -35 -66 -35 q 142 -94 90 -35 q 214 -49 175 -64 q 288 -35 252 -35 q 407 -77 370 -35 q 444 -179 444 -120 q 441 -212 444 -191 q 406 -298 431 -266 q 330 -380 382 -330 z "},"ॣ":{"ha":0,"x_min":-207,"x_max":444,"o":"m 17 -35 q 142 -94 90 -35 q 290 -35 210 -35 q 408 -77 372 -35 q 444 -177 444 -120 q 441 -212 444 -191 q 405 -299 431 -266 q 330 -380 380 -333 q 237 -457 264 -431 q 210 -521 210 -484 q 259 -561 210 -561 l 351 -561 l 335 -642 l 267 -642 q 191 -663 224 -644 q 151 -720 158 -682 q 236 -783 141 -783 q 359 -748 299 -783 l 396 -825 q 314 -856 352 -845 q 222 -866 276 -866 q 108 -831 149 -866 q 66 -740 66 -795 q 89 -660 66 -691 q 158 -601 113 -628 q 125 -523 125 -575 q 148 -443 125 -476 q 220 -363 172 -410 q 250 -333 220 -363 q 326 -266 302 -293 q 359 -198 351 -240 q 361 -179 361 -191 q 288 -122 361 -122 q 187 -165 226 -122 q 132 -283 148 -208 l 125 -342 l 43 -321 q 50 -262 43 -292 q 89 -161 63 -205 q 56 -133 73 -142 q 12 -123 38 -123 q -109 -236 -87 -123 q -113 -273 -113 -260 q -102 -347 -113 -311 q -71 -427 -90 -384 l -156 -455 q -194 -359 -181 -399 q -207 -267 -207 -319 q -143 -101 -207 -167 q 17 -35 -80 -35 z "},"ॅ":{"ha":0,"x_min":47,"x_max":510,"o":"m 252 884 q 108 932 160 884 q 47 1059 56 981 l 127 1085 q 165 995 137 1023 q 253 967 193 967 q 362 998 319 967 q 441 1092 405 1030 l 510 1052 q 407 929 474 974 q 252 884 340 884 z "},"ॆ":{"ha":0,"x_min":-599,"x_max":-153,"o":"m -248 762 q -243 802 -243 783 q -280 873 -243 851 q -396 896 -316 896 q -599 1050 -599 896 q -597 1082 -599 1071 l -510 1104 q -503 1030 -512 1056 q -473 995 -495 1005 q -411 979 -451 984 l -354 979 q -214 940 -276 979 q -153 809 -153 901 q -158 755 -153 785 l -248 762 z "},"े":{"ha":0,"x_min":146,"x_max":549,"o":"m 318 974 q 288 1009 302 1000 q 250 1017 274 1017 q 203 1011 229 1017 q 170 1002 177 1005 l 146 1085 q 186 1097 155 1089 q 250 1106 217 1106 q 331 1086 300 1106 q 392 1017 361 1066 l 549 759 l 444 759 l 318 974 z "},"ै":{"ha":0,"x_min":-589,"x_max":-130,"o":"m -250 759 l -378 866 l -406 889 q -460 933 -441 920 q -498 946 -479 946 q -545 940 -517 946 q -582 931 -573 934 l -589 1012 q -544 1024 -578 1016 q -490 1033 -510 1033 q -428 1017 -451 1033 q -368 965 -405 1002 l -337 936 l -210 811 l -259 986 q -269 1025 -260 993 q -293 1075 -278 1057 q -330 1092 -309 1092 q -372 1088 -349 1092 q -403 1080 -394 1083 l -411 1161 q -374 1172 -403 1165 q -321 1179 -345 1179 q -234 1141 -260 1179 q -191 1040 -207 1104 l -130 759 l -250 759 z "},"ॉ":{"ha":372,"x_min":31,"x_max":561,"o":"m 31 0 m 170 0 l 75 0 l 214 708 l 31 708 l 49 792 l 502 792 l 484 708 l 309 708 l 170 0 m 302 884 q 158 932 210 884 q 97 1059 106 981 l 177 1085 q 215 995 188 1023 q 304 967 243 967 q 412 998 370 967 q 491 1092 455 1030 l 561 1052 q 457 929 524 974 q 302 884 391 884 z "},"ॊ":{"ha":372,"x_min":-109,"x_max":502,"o":"m 484 708 l 309 708 l 170 0 l 75 0 l 214 708 l 31 708 l 49 792 l 245 792 q 214 871 248 845 q 94 896 179 896 q -109 1050 -109 896 q -108 1082 -109 1071 l -21 1104 q -14 1030 -23 1056 q 16 995 -5 1005 q 78 979 38 984 l 135 979 q 280 936 217 979 q 337 792 344 892 l 502 792 l 484 708 z "},"ो":{"ha":372,"x_min":-56,"x_max":502,"o":"m 484 708 l 309 708 l 170 0 l 75 0 l 214 708 l 31 708 l 49 792 l 224 792 l 116 974 q 87 1009 101 1000 q 49 1017 73 1017 q 2 1011 28 1017 q -31 1002 -24 1005 l -56 1085 q -16 1097 -47 1089 q 49 1106 16 1106 q 129 1086 99 1106 q 191 1017 160 1066 l 328 792 l 502 792 l 484 708 z "},"ौ":{"ha":372,"x_min":-101,"x_max":502,"o":"m 484 708 l 309 708 l 170 0 l 75 0 l 214 708 l 31 708 l 49 792 l 198 792 l 109 866 l 82 889 q 28 933 47 920 q -10 946 9 946 q -57 940 -30 946 q -94 931 -85 934 l -101 1012 q -56 1024 -90 1016 q -2 1033 -23 1033 q 60 1017 36 1033 q 120 965 83 1002 l 151 936 l 278 811 l 229 986 q 219 1025 227 993 q 194 1075 210 1057 q 158 1092 179 1092 q 116 1088 139 1092 q 85 1080 94 1083 l 76 1161 q 114 1172 85 1165 q 167 1179 142 1179 q 254 1141 227 1179 q 297 1040 281 1104 l 351 792 l 502 792 l 484 708 z "},"ऻ":{"ha":372,"x_min":31,"x_max":502,"o":"m 484 708 l 309 708 l 170 0 l 75 0 l 214 708 l 31 708 l 49 792 l 231 792 l 262 955 l 356 955 l 325 792 l 502 792 l 484 708 z "},"ॏ":{"ha":370,"x_min":-167,"x_max":497,"o":"m 304 708 l 167 0 l 71 0 l 208 708 l 28 708 l 43 792 l 200 792 q 166 872 203 849 q 36 896 128 896 q -167 1049 -167 896 q -165 1082 -167 1069 l -80 1104 q -61 1009 -83 1033 q 21 981 -38 984 q 149 966 95 977 q 244 914 203 955 q 278 792 285 873 l 292 814 q 318 878 314 852 q 319 903 319 887 q 295 959 319 936 q 217 1007 271 983 q 125 1061 167 1024 q 83 1161 83 1097 q 87 1196 83 1172 q 109 1262 94 1234 l 196 1252 q 175 1193 179 1208 q 174 1170 174 1184 q 188 1124 174 1142 q 233 1089 201 1106 q 298 1058 245 1083 q 378 997 351 1033 q 405 910 405 960 q 399 865 405 891 q 370 792 387 819 l 497 792 l 481 708 l 304 708 z "},"ॕ":{"ha":0,"x_min":108,"x_max":632,"o":"m 375 1023 q 231 1070 283 1023 q 168 1198 179 1118 l 248 1224 q 287 1135 259 1163 q 377 1106 316 1106 q 484 1136 441 1106 q 564 1231 526 1167 l 632 1191 q 530 1068 595 1113 q 375 1023 464 1023 m 108 882 l 122 957 l 585 957 l 571 882 l 108 882 z "},"ऺ":{"ha":0,"x_min":-19,"x_max":111,"o":"m 75 764 l -19 764 l 17 955 l 111 955 l 75 764 z "},"ॖ":{"ha":0,"x_min":-170,"x_max":266,"o":"m 30 -227 q -102 -193 -47 -227 q -170 -95 -156 -158 l -95 -61 q -51 -125 -82 -106 q 31 -144 -21 -144 q 128 -122 87 -144 q 201 -54 168 -101 l 266 -102 q 166 -195 229 -163 q 30 -227 102 -227 z "},"ॗ":{"ha":0,"x_min":-203,"x_max":266,"o":"m 30 -227 q -102 -193 -47 -227 q -170 -95 -156 -158 l -95 -61 q -51 -125 -82 -106 q 31 -144 -21 -144 q 128 -122 87 -144 q 201 -54 168 -101 l 266 -102 q 166 -195 229 -163 q 30 -227 102 -227 m -5 -401 q -137 -366 -83 -401 q -203 -269 -191 -332 l -128 -234 q -84 -299 -115 -280 q -2 -318 -54 -318 q 95 -296 54 -318 q 168 -227 135 -274 l 231 -276 q 133 -369 196 -337 q -5 -401 69 -401 z "},"॑":{"ha":0,"x_min":-19,"x_max":128,"o":"m 75 764 l -19 764 l 35 1042 l 128 1042 l 75 764 z "},"॒":{"ha":0,"x_min":-184,"x_max":472,"o":"m -184 -170 l -168 -87 l 472 -87 l 457 -170 l -184 -170 z "},"्":{"ha":0,"x_min":-212,"x_max":158,"o":"m -212 -217 q -89 -229 -137 -217 q -2 -275 -42 -241 q 76 -377 38 -309 l 118 -344 q 158 -311 158 -311 q 88 -214 123 -253 q -15 -148 52 -175 q -187 -120 -82 -120 l -212 -217 z "},"़":{"ha":0,"x_min":-326,"x_max":-205,"o":"m -271 -181 q -311 -166 -295 -181 q -326 -127 -326 -151 l -325 -113 q -302 -75 -319 -89 q -262 -61 -285 -61 q -220 -76 -236 -61 q -205 -116 -205 -90 l -207 -130 q -229 -167 -212 -153 q -271 -181 -247 -181 z "},"॓":{"ha":0,"x_min":149,"x_max":438,"o":"m 149 845 m 370 845 l 149 1059 l 222 1134 l 438 911 l 370 845 z "},"॔":{"ha":0,"x_min":122,"x_max":472,"o":"m 122 845 m 472 1059 l 172 845 l 122 917 l 417 1139 l 472 1059 z "},"क":{"ha":955,"x_min":31,"x_max":1085,"o":"m 576 547 q 696 578 639 578 q 845 529 792 578 q 899 394 899 479 q 894 340 899 370 q 708 104 872 217 l 648 179 q 700 219 658 188 q 767 287 741 250 q 802 368 793 325 q 806 398 806 389 q 775 466 806 443 q 686 490 745 490 q 564 448 637 490 l 474 0 l 382 0 l 417 163 q 264 127 344 127 q 109 177 167 127 q 50 313 50 227 q 89 455 50 392 q 194 551 128 517 q 340 585 260 585 q 416 574 382 585 q 484 543 450 563 l 519 708 l 31 708 l 49 792 l 1085 792 l 1068 708 l 611 708 l 576 547 m 283 215 q 431 264 359 215 l 472 450 q 344 497 411 497 q 216 457 269 497 q 149 347 163 418 q 146 316 146 323 q 181 240 146 266 q 283 215 217 215 z "},"ख":{"ha":1009,"x_min":31,"x_max":1139,"o":"m 814 0 l 722 0 l 753 142 q 620 122 694 122 q 479 171 533 122 q 425 307 425 220 q 431 359 425 332 q 524 519 450 458 q 694 580 599 580 q 826 550 760 580 l 859 708 l 384 705 q 411 592 411 658 q 405 519 411 556 q 332 377 387 432 q 205 293 276 321 l 382 31 l 290 -26 q 162 171 250 35 q 33 368 75 307 l 109 427 l 149 372 q 254 428 207 387 q 316 540 302 469 q 321 594 321 569 q 281 712 321 665 l 31 708 l 49 792 l 1139 792 l 1122 708 l 951 708 l 814 0 m 639 210 q 766 241 703 210 l 814 458 q 698 491 764 491 q 587 452 635 491 q 524 342 538 413 q 521 309 521 318 q 552 235 521 260 q 639 210 583 210 z "},"ग":{"ha":771,"x_min":31,"x_max":901,"o":"m 576 0 l 479 0 l 616 708 l 328 708 l 222 156 l 158 156 l 57 314 l 68 373 l 168 373 l 233 708 l 31 708 l 49 792 l 901 792 l 884 708 l 714 708 l 576 0 z "},"घ":{"ha":858,"x_min":31,"x_max":988,"o":"m 663 0 l 566 0 l 609 205 q 504 155 568 179 q 363 130 441 130 q 196 177 259 130 q 134 304 134 224 q 137 340 134 316 q 203 450 148 403 q 144 582 144 500 q 148 623 144 608 q 188 712 158 675 l 31 708 l 49 792 l 988 792 l 970 708 l 800 708 l 663 0 m 293 705 q 243 606 255 663 q 241 583 241 597 q 290 491 241 528 q 439 517 349 512 l 455 431 q 299 398 356 424 q 231 318 241 373 q 229 304 229 313 q 271 244 229 266 q 361 222 313 222 q 517 257 448 222 q 627 326 587 292 l 703 708 l 293 705 z "},"ङ":{"ha":828,"x_min":28,"x_max":958,"o":"m 646 708 l 609 507 l 590 495 l 552 500 q 399 510 476 510 q 294 493 330 510 q 252 436 259 476 q 250 422 250 431 q 277 382 250 392 q 352 372 304 372 q 387 373 368 372 q 424 375 406 375 l 432 375 q 560 337 512 375 q 608 234 608 299 q 604 200 608 224 q 512 54 587 108 q 333 0 438 0 q 28 161 158 0 l 94 219 q 335 90 198 90 q 451 122 399 90 q 514 210 503 153 q 516 227 516 215 q 420 288 516 288 l 380 285 l 349 283 q 215 313 273 283 q 160 424 158 344 q 163 458 160 434 q 406 601 191 601 q 524 595 470 601 l 549 708 l 31 708 l 49 792 l 958 792 l 941 708 l 646 708 m 717 470 q 758 457 743 470 q 773 418 773 443 q 753 370 773 389 q 707 351 734 351 q 668 365 682 351 q 653 403 653 378 q 655 418 653 413 q 675 456 658 441 q 717 470 693 470 z "},"च":{"ha":818,"x_min":31,"x_max":948,"o":"m 623 0 l 526 0 l 564 181 q 380 135 484 135 q 211 184 271 135 q 151 307 151 233 q 155 345 151 333 q 198 443 167 408 l 57 439 l 75 523 l 477 523 l 460 439 l 313 436 q 267 389 286 418 q 248 318 248 359 q 286 250 248 274 q 385 226 323 226 q 580 290 488 226 l 663 708 l 31 708 l 49 792 l 948 792 l 931 708 l 760 708 l 623 0 z "},"छ":{"ha":929,"x_min":31,"x_max":1059,"o":"m 797 595 q 862 538 839 580 q 885 438 885 497 q 878 373 885 403 q 773 162 854 243 q 588 46 691 82 q 385 10 484 10 q 174 69 252 10 q 95 224 95 127 q 135 356 95 306 q 255 441 175 406 q 175 568 175 488 q 179 606 175 578 q 241 712 191 668 l 31 708 l 49 792 l 1059 792 l 1042 708 l 821 708 l 797 595 m 405 708 q 269 589 288 689 q 266 566 266 578 q 302 503 266 530 q 438 477 339 476 l 457 477 l 439 392 l 434 392 q 254 357 307 398 q 189 247 201 316 q 188 224 188 240 q 247 134 188 167 q 389 101 306 101 q 576 137 497 101 q 558 178 573 146 q 534 249 543 210 q 524 330 524 288 q 531 405 524 368 q 596 536 547 483 q 712 604 646 590 l 734 708 l 405 708 m 660 179 q 792 384 769 260 q 797 429 797 410 q 779 491 797 470 q 736 512 760 512 q 665 476 700 512 q 620 387 630 439 q 615 328 615 356 q 628 240 615 278 q 660 179 642 201 z "},"ज":{"ha":938,"x_min":31,"x_max":1068,"o":"m 743 0 l 646 0 l 726 410 l 545 406 q 571 307 571 361 q 566 262 571 283 q 469 109 547 158 q 311 61 391 61 q 125 148 194 61 q 36 394 56 234 l 122 422 q 187 222 135 293 q 313 151 238 151 q 421 187 373 151 q 481 286 469 222 q 484 316 484 304 q 457 386 484 358 q 365 415 429 415 l 375 493 l 741 493 l 783 708 l 31 708 l 49 792 l 1068 792 l 1050 708 l 880 708 l 743 0 z "},"झ":{"ha":976,"x_min":31,"x_max":1106,"o":"m 786 0 l 689 0 l 743 255 q 653 236 700 236 q 564 243 623 236 q 556 191 561 212 q 465 63 540 111 q 285 16 391 16 l 266 16 l 337 -130 l 245 -167 l 167 42 q 82 85 115 56 q 49 155 49 115 q 50 175 49 168 q 84 220 56 203 q 146 233 113 236 l 217 111 q 268 102 240 102 q 302 102 297 102 q 416 137 363 102 q 469 231 469 172 q 387 293 469 293 q 326 288 361 293 q 298 285 314 286 q 259 283 281 283 q 154 315 196 283 q 111 413 111 347 q 358 599 111 599 q 476 592 418 599 l 502 708 l 31 708 l 49 792 l 1106 792 l 1089 708 l 924 708 l 786 0 m 563 507 l 543 495 l 505 500 q 352 510 429 510 q 239 489 276 510 q 201 418 201 467 q 220 384 201 392 q 280 375 240 375 q 316 377 300 375 q 342 380 332 378 q 394 385 370 385 q 517 342 477 385 l 554 333 q 635 319 620 319 q 753 344 694 319 l 826 708 l 599 708 l 563 507 z "},"ञ":{"ha":917,"x_min":31,"x_max":1047,"o":"m 1030 708 l 859 708 l 722 0 l 625 0 l 684 283 q 620 274 656 274 q 580 276 597 274 q 547 278 563 278 q 448 152 514 194 q 306 109 382 109 q 128 195 193 109 q 33 448 63 281 l 118 474 q 190 268 148 335 q 307 201 233 201 q 411 239 366 201 q 467 339 455 276 q 470 368 470 359 q 377 446 470 446 q 308 431 344 446 q 266 408 273 415 l 233 495 q 389 538 307 538 q 516 490 472 538 q 557 365 561 441 q 623 361 595 361 q 694 373 658 361 l 762 708 l 31 708 l 49 792 l 1047 792 l 1030 708 z "},"ट":{"ha":679,"x_min":31,"x_max":809,"o":"m 394 460 q 233 409 293 460 q 155 271 172 358 q 151 229 151 257 q 194 127 151 163 q 318 90 238 90 q 426 109 377 90 q 536 161 476 128 l 571 78 q 452 24 523 49 q 307 0 382 0 q 126 61 194 0 q 57 226 57 122 q 64 292 57 262 q 168 476 85 401 q 384 550 252 550 q 488 547 401 550 l 523 708 l 31 708 l 49 792 l 809 792 l 792 708 l 620 708 l 573 457 l 557 444 l 510 450 q 394 460 434 460 z "},"ठ":{"ha":748,"x_min":31,"x_max":878,"o":"m 566 521 q 639 435 611 486 q 667 319 667 384 q 661 266 667 295 q 554 78 639 156 q 302 0 469 0 q 125 61 191 0 q 59 220 59 122 q 66 283 59 238 q 172 475 89 399 q 391 550 255 550 l 479 550 l 509 708 l 31 708 l 49 792 l 878 792 l 861 708 l 606 708 l 566 521 m 316 92 q 481 139 413 92 q 566 273 549 186 q 569 316 569 288 q 549 404 569 366 q 495 460 528 441 l 392 458 q 236 409 297 458 q 158 271 175 359 q 153 227 153 248 q 194 128 153 163 q 316 92 236 92 z "},"ड":{"ha":712,"x_min":31,"x_max":842,"o":"m 406 510 q 301 493 337 510 q 259 436 266 476 q 257 422 257 431 q 284 382 257 392 q 359 372 311 372 q 394 373 375 372 q 431 375 413 375 l 439 375 q 567 337 519 375 q 615 234 615 299 q 611 200 615 224 q 519 54 594 108 q 340 0 444 0 q 35 161 165 0 l 101 219 q 342 90 205 90 q 458 122 406 90 q 521 210 510 153 q 523 227 523 215 q 427 288 523 288 l 387 285 l 356 283 q 222 313 280 283 q 167 424 165 344 q 170 458 167 434 q 413 601 198 601 q 531 595 477 601 l 556 708 l 31 708 l 49 792 l 842 792 l 825 708 l 653 708 l 616 507 l 597 495 l 559 500 q 406 510 483 510 z "},"ढ":{"ha":689,"x_min":31,"x_max":819,"o":"m 392 458 q 233 409 293 458 q 155 271 172 359 q 151 231 151 243 q 188 135 151 172 q 288 90 224 97 q 285 141 285 118 q 336 277 285 224 q 460 330 387 330 q 558 293 526 330 q 590 205 590 255 q 587 177 590 194 q 493 43 569 87 q 316 0 417 0 q 126 62 196 0 q 56 224 56 123 q 63 283 56 241 q 170 474 85 398 q 389 550 255 550 q 488 547 444 550 l 523 708 l 31 708 l 49 792 l 819 792 l 802 708 l 620 708 l 573 455 l 557 443 q 509 450 523 446 q 458 455 493 451 q 392 458 424 458 m 457 240 q 375 167 389 240 q 372 127 372 153 q 375 87 372 108 q 465 129 432 99 q 498 198 498 160 q 487 228 498 217 q 457 240 476 240 z "},"ण":{"ha":957,"x_min":31,"x_max":1087,"o":"m 762 0 l 665 0 l 802 708 l 623 708 l 561 385 q 470 201 538 264 q 302 139 403 139 q 161 183 210 139 q 113 314 113 227 q 122 392 113 345 l 182 708 l 31 708 l 49 792 l 1087 792 l 1069 708 l 899 708 l 762 0 m 219 392 q 212 325 212 358 q 234 253 212 276 q 304 231 255 231 q 411 273 372 231 q 467 399 450 314 l 526 708 l 280 708 l 219 392 z "},"त":{"ha":753,"x_min":31,"x_max":884,"o":"m 559 0 l 462 0 l 543 418 l 347 418 q 224 391 266 418 q 168 295 182 365 q 167 269 167 286 q 233 16 167 184 l 148 -23 q 88 138 108 76 q 68 264 68 200 q 73 316 68 290 q 161 468 94 420 q 349 516 227 516 l 563 516 l 599 708 l 31 708 l 49 792 l 884 792 l 866 708 l 696 708 l 559 0 z "},"थ":{"ha":814,"x_min":78,"x_max":946,"o":"m 622 0 l 524 0 l 568 203 q 359 146 464 146 q 177 198 248 146 q 78 319 106 250 l 102 372 q 185 409 111 375 q 315 504 259 443 q 372 635 372 566 q 355 696 372 674 q 306 719 339 719 q 245 694 274 719 q 215 635 215 668 q 232 593 215 611 q 278 556 248 575 l 219 486 q 148 549 172 510 q 123 632 123 587 q 152 728 123 688 q 225 790 181 769 q 313 811 269 811 q 424 763 387 811 q 460 642 460 715 q 455 585 460 615 q 377 444 438 500 q 224 333 316 387 l 191 313 q 258 258 214 276 q 356 240 302 240 q 478 262 417 240 q 585 325 540 285 l 661 708 l 540 708 l 557 792 l 946 792 l 929 708 l 759 708 l 622 0 z "},"द":{"ha":705,"x_min":31,"x_max":835,"o":"m 396 458 q 234 412 295 458 q 155 280 172 366 q 151 245 151 255 q 195 154 151 186 q 323 122 240 122 q 418 141 365 122 l 396 222 q 413 239 399 226 q 449 263 427 252 q 495 274 470 274 q 556 253 533 274 q 578 194 578 231 q 576 170 578 179 q 533 104 568 132 l 599 -43 l 500 -90 l 457 61 q 314 30 391 30 q 128 85 198 30 q 59 243 59 141 q 66 307 59 262 q 174 484 89 417 q 387 550 259 550 q 491 547 405 550 l 526 708 l 31 708 l 49 792 l 835 792 l 818 708 l 623 708 l 576 455 l 561 443 q 512 450 526 446 q 462 455 497 451 q 396 458 427 458 z "},"ध":{"ha":814,"x_min":106,"x_max":944,"o":"m 622 0 l 524 0 l 559 163 q 349 109 451 109 q 180 152 241 109 q 118 271 118 194 q 122 311 118 283 q 193 420 137 377 q 134 488 161 444 q 106 592 106 531 q 111 639 106 613 q 177 763 127 717 q 300 809 227 809 q 400 779 365 809 q 436 698 436 748 q 410 607 436 646 q 318 538 384 568 l 280 611 q 326 641 309 627 q 349 684 344 656 q 341 715 352 705 q 309 726 330 726 q 242 701 273 726 q 201 622 212 675 q 200 597 200 613 q 227 516 200 550 q 285 462 255 481 q 422 490 344 481 l 441 405 q 282 364 339 389 q 215 288 226 339 q 214 273 214 283 q 252 219 214 236 q 347 201 290 201 q 573 276 465 201 l 661 708 l 528 708 l 543 792 l 944 792 l 929 708 l 759 708 l 622 0 z "},"न":{"ha":712,"x_min":31,"x_max":842,"o":"m 517 0 l 420 0 l 490 352 l 245 352 l 214 194 l 146 194 l 69 372 l 80 436 l 505 436 l 557 708 l 31 708 l 49 792 l 842 792 l 825 708 l 655 708 l 517 0 z "},"ऩ":{"ha":712,"x_min":31,"x_max":842,"o":"m 517 0 l 420 0 l 490 352 l 245 352 l 214 194 l 146 194 l 69 372 l 80 436 l 505 436 l 557 708 l 31 708 l 49 792 l 842 792 l 825 708 l 655 708 l 517 0 m 198 -10 q 158 4 174 -10 q 142 43 142 19 l 144 57 q 167 95 149 82 q 207 109 184 109 q 248 95 233 109 q 264 54 264 80 l 262 40 q 240 3 257 17 q 198 -10 222 -10 z "},"प":{"ha":760,"x_min":31,"x_max":891,"o":"m 566 0 l 469 0 l 512 208 q 337 179 408 179 q 171 231 227 179 q 115 370 115 283 q 120 427 115 396 l 174 708 l 31 708 l 49 792 l 891 792 l 873 708 l 703 708 l 566 0 m 215 420 q 212 382 212 406 q 245 296 212 326 q 337 266 278 266 q 524 302 411 266 l 606 708 l 271 708 l 215 420 z "},"फ":{"ha":1049,"x_min":31,"x_max":1179,"o":"m 641 526 q 807 578 733 578 q 957 529 903 578 q 1010 394 1010 479 q 1005 340 1010 370 q 819 104 983 217 l 759 179 q 811 219 769 188 q 878 287 852 250 q 913 368 905 325 q 917 398 917 389 q 886 466 917 443 q 797 490 856 490 q 627 415 727 490 l 542 0 l 446 0 l 490 203 q 328 179 401 179 q 167 229 220 179 q 113 365 113 280 q 120 427 113 385 l 174 708 l 31 708 l 49 792 l 1179 792 l 1161 708 l 679 708 l 641 526 m 215 420 q 210 377 210 398 q 240 294 210 323 q 328 266 271 266 q 500 295 401 266 l 583 708 l 271 708 l 215 420 z "},"ब":{"ha":724,"x_min":31,"x_max":854,"o":"m 530 0 l 432 0 l 467 156 q 278 113 373 113 q 115 164 177 113 q 54 309 54 215 q 59 365 54 337 q 166 536 80 474 q 358 599 252 599 q 536 554 458 599 l 569 708 l 31 708 l 49 792 l 854 792 l 837 708 l 667 708 l 530 0 m 361 512 q 281 500 326 512 l 483 264 l 524 458 q 458 496 500 479 q 361 512 417 512 m 141 313 q 181 228 141 257 q 286 200 222 200 q 401 222 344 200 l 203 455 q 141 313 141 399 z "},"भ":{"ha":842,"x_min":78,"x_max":972,"o":"m 648 0 l 550 0 l 602 262 l 319 262 l 292 122 l 227 122 l 120 288 l 128 345 l 240 345 l 281 559 q 290 595 283 566 q 297 653 297 625 q 248 717 297 717 q 193 694 217 717 q 168 635 168 670 q 233 556 168 594 l 177 488 q 103 555 128 516 q 78 637 78 594 q 82 667 78 646 q 143 770 94 731 q 252 809 193 809 q 387 658 387 809 q 375 552 387 620 l 335 345 l 618 345 l 689 708 l 523 708 l 538 792 l 972 792 l 957 708 l 786 708 l 648 0 z "},"म":{"ha":806,"x_min":31,"x_max":936,"o":"m 611 0 l 514 0 l 566 271 l 250 271 l 224 132 l 160 132 l 54 297 l 64 354 l 172 354 l 240 708 l 31 708 l 49 792 l 936 792 l 918 708 l 748 708 l 611 0 m 267 354 l 583 354 l 651 708 l 335 708 l 267 354 z "},"य":{"ha":774,"x_min":31,"x_max":905,"o":"m 580 0 l 483 0 l 524 193 q 340 146 434 146 q 158 199 229 146 q 59 323 87 252 l 83 372 q 208 455 158 408 q 259 575 259 502 q 215 712 259 641 l 31 708 l 49 792 l 905 792 l 887 708 l 717 708 l 580 0 m 318 705 q 351 571 351 644 q 347 523 351 538 q 291 405 333 453 q 179 311 248 358 q 245 257 203 276 q 337 238 286 238 q 443 255 391 238 q 538 306 495 273 l 620 708 l 318 705 z "},"र":{"ha":477,"x_min":31,"x_max":608,"o":"m 384 705 q 411 592 411 658 q 405 519 411 556 q 329 372 387 427 q 194 290 271 316 l 344 33 l 248 -21 l 35 372 l 113 424 l 142 370 q 251 426 201 385 q 316 540 300 467 q 321 594 321 569 q 281 712 321 665 l 31 708 l 49 792 l 608 792 l 590 708 l 384 705 z "},"ऱ":{"ha":477,"x_min":-47,"x_max":608,"o":"m 384 705 q 411 592 411 658 q 405 519 411 556 q 329 372 387 427 q 194 290 271 316 l 344 33 l 248 -21 l 35 372 l 113 424 l 142 370 q 251 426 201 385 q 316 540 300 467 q 321 594 321 569 q 281 712 321 665 l 31 708 l 49 792 l 608 792 l 590 708 l 384 705 m 7 -9 q -32 5 -17 -9 q -47 43 -47 19 q -45 59 -47 54 q -24 96 -42 82 q 17 111 -7 111 q 58 96 43 111 q 73 57 73 82 q 71 42 73 47 q 49 5 66 19 q 7 -9 31 -9 z "},"ल":{"ha":936,"x_min":31,"x_max":1066,"o":"m 741 0 l 644 0 l 731 431 q 667 443 701 443 q 550 397 595 443 q 490 273 505 351 q 479 188 486 255 l 391 208 q 393 249 391 226 q 401 293 396 273 q 427 375 411 342 q 335 444 398 444 q 227 402 273 444 q 168 290 182 359 q 165 252 165 266 q 194 130 165 186 q 267 16 224 75 l 167 -19 q 139 20 167 -23 q 89 122 111 63 q 66 248 66 182 q 71 307 66 280 q 164 475 92 411 q 340 538 236 538 q 426 516 389 538 q 486 462 464 495 q 667 535 561 535 q 743 523 708 535 l 781 708 l 31 708 l 49 792 l 1066 792 l 1049 708 l 878 708 l 741 0 z "},"ळ":{"ha":990,"x_min":31,"x_max":1120,"o":"m 795 514 q 880 452 851 498 q 910 340 910 406 q 905 281 910 313 q 819 120 885 186 q 658 54 752 54 q 479 210 535 54 q 359 90 413 123 q 231 57 304 57 q 105 106 148 57 q 63 234 63 155 q 69 299 63 269 q 151 460 87 396 q 316 524 215 524 q 428 480 387 524 q 493 370 469 436 q 600 477 550 443 q 703 519 649 510 l 743 708 l 31 708 l 49 792 l 1120 792 l 1102 708 l 835 708 l 795 514 m 233 142 q 340 181 292 142 q 434 286 389 220 q 385 395 410 356 q 311 434 359 434 q 201 376 245 434 q 156 240 156 318 q 175 169 156 196 q 233 142 194 142 m 818 337 q 796 408 818 382 q 736 434 774 434 q 633 397 679 434 q 538 290 587 359 q 663 141 587 141 q 773 200 729 141 q 818 337 818 259 z "},"ऴ":{"ha":990,"x_min":31,"x_max":1120,"o":"m 795 514 q 880 452 851 498 q 910 340 910 406 q 905 281 910 313 q 819 120 885 186 q 658 54 752 54 q 479 210 535 54 q 359 90 413 123 q 231 57 304 57 q 105 106 148 57 q 63 234 63 155 q 69 299 63 269 q 151 460 87 396 q 316 524 215 524 q 428 480 387 524 q 493 370 469 436 q 600 477 550 443 q 703 519 649 510 l 743 708 l 31 708 l 49 792 l 1120 792 l 1102 708 l 835 708 l 795 514 m 233 142 q 340 181 292 142 q 434 286 389 220 q 385 395 410 356 q 311 434 359 434 q 201 376 245 434 q 156 240 156 318 q 175 169 156 196 q 233 142 194 142 m 818 337 q 796 408 818 382 q 736 434 774 434 q 633 397 679 434 q 538 290 587 359 q 663 141 587 141 q 773 200 729 141 q 818 337 818 259 m 424 -75 q 384 -60 399 -75 q 368 -21 368 -45 l 370 -7 q 392 31 375 17 q 432 45 410 45 q 473 31 458 45 q 488 -7 488 17 q 470 -56 488 -36 q 424 -75 451 -75 z "},"व":{"ha":715,"x_min":31,"x_max":845,"o":"m 521 0 l 424 0 l 457 149 q 267 106 363 106 q 111 157 170 106 q 52 300 52 208 q 57 358 52 326 q 160 530 78 469 q 347 592 241 592 q 526 547 443 592 l 561 708 l 31 708 l 49 792 l 845 792 l 828 708 l 658 708 l 521 0 m 278 196 q 470 257 375 196 l 516 451 q 449 486 491 470 q 351 502 406 502 q 220 462 276 502 q 148 340 163 422 q 144 306 144 316 q 181 223 144 250 q 278 196 217 196 z "},"श":{"ha":934,"x_min":61,"x_max":1063,"o":"m 535 568 q 444 387 514 457 q 266 257 375 318 l 431 36 l 356 -26 l 174 227 q 92 251 123 226 q 61 318 61 276 q 63 340 61 333 q 87 385 66 365 q 142 417 108 406 l 212 328 q 366 429 300 370 q 446 580 432 488 q 448 611 448 590 q 427 688 448 660 q 368 717 406 717 q 297 694 328 717 q 257 630 266 672 q 269 583 252 604 q 321 538 286 563 l 262 467 q 165 616 165 533 q 168 648 165 627 q 240 764 182 719 q 372 809 297 809 q 494 760 446 809 q 542 628 542 710 q 535 568 542 609 m 738 0 l 641 0 l 778 708 l 618 708 l 635 792 l 1063 792 l 1045 708 l 875 708 l 738 0 z "},"ष":{"ha":774,"x_min":31,"x_max":905,"o":"m 580 0 l 483 0 l 528 212 q 337 179 408 179 q 171 231 227 179 q 115 370 115 283 q 120 427 115 396 l 174 708 l 31 708 l 49 792 l 905 792 l 887 708 l 717 708 l 580 0 m 547 337 l 620 708 l 314 708 l 547 337 m 337 266 q 477 286 394 266 l 253 635 q 252 613 253 627 q 248 589 250 599 l 215 420 q 212 382 212 406 q 245 296 212 326 q 337 266 278 266 z "},"स":{"ha":892,"x_min":31,"x_max":1023,"o":"m 698 0 l 601 0 l 663 302 q 464 281 583 281 q 257 316 378 281 q 193 288 219 297 l 345 24 l 250 -30 q 142 169 217 33 q 33 368 68 306 l 113 424 l 142 370 q 251 426 201 385 q 316 540 300 467 q 321 594 321 569 q 281 712 321 665 l 31 708 l 49 792 l 1023 792 l 1005 708 l 835 708 l 698 0 m 384 705 q 411 592 411 658 q 405 519 411 556 q 337 385 389 439 q 486 375 401 375 q 675 399 590 375 l 738 708 l 384 705 z "},"ह":{"ha":688,"x_min":31,"x_max":818,"o":"m 384 512 q 272 491 311 512 q 224 424 233 470 q 222 408 222 418 q 243 354 222 382 q 373 377 302 377 q 515 339 464 377 q 566 227 566 300 q 561 184 566 208 q 536 125 556 156 q 483 69 516 94 l 417 127 q 458 169 443 149 q 474 222 474 189 q 375 293 474 288 q 253 269 306 293 q 173 205 201 245 q 144 122 144 165 q 228 6 144 47 q 446 -35 313 -35 l 417 -118 q 151 -54 248 -118 q 54 116 54 10 q 57 161 54 146 q 91 241 66 201 q 156 313 116 281 q 125 408 125 361 q 128 441 125 420 q 211 562 144 523 q 375 601 278 601 q 451 598 427 601 q 484 594 474 595 l 509 708 l 31 708 l 49 792 l 818 792 l 800 708 l 606 708 l 569 509 l 552 497 q 507 503 521 500 q 384 512 451 512 z "},"क़":{"ha":955,"x_min":31,"x_max":1085,"o":"m 576 547 q 696 578 639 578 q 845 529 792 578 q 899 394 899 479 q 894 340 899 370 q 708 104 872 217 l 648 179 q 700 219 658 188 q 767 287 741 250 q 802 368 793 325 q 806 398 806 389 q 775 466 806 443 q 686 490 745 490 q 564 448 637 490 l 474 0 l 382 0 l 417 163 q 264 127 344 127 q 109 177 167 127 q 50 313 50 227 q 89 455 50 392 q 194 551 128 517 q 340 585 260 585 q 416 574 382 585 q 484 543 450 563 l 519 708 l 31 708 l 49 792 l 1085 792 l 1068 708 l 611 708 l 576 547 m 283 215 q 431 264 359 215 l 472 450 q 344 497 411 497 q 216 457 269 497 q 149 347 163 418 q 146 316 146 323 q 181 240 146 266 q 283 215 217 215 m 160 -38 q 120 -23 135 -38 q 104 16 104 -9 l 106 30 q 128 68 111 54 q 168 82 146 82 q 209 68 194 82 q 224 30 224 54 q 206 -19 224 0 q 160 -38 188 -38 z "},"ख़":{"ha":1009,"x_min":-36,"x_max":1139,"o":"m 814 0 l 722 0 l 753 142 q 620 122 694 122 q 479 171 533 122 q 425 307 425 220 q 431 359 425 332 q 524 519 450 458 q 694 580 599 580 q 826 550 760 580 l 859 708 l 384 705 q 411 592 411 658 q 405 519 411 556 q 332 377 387 432 q 205 293 276 321 l 382 31 l 290 -26 q 162 171 250 35 q 33 368 75 307 l 109 427 l 149 372 q 254 428 207 387 q 316 540 302 469 q 321 594 321 569 q 281 712 321 665 l 31 708 l 49 792 l 1139 792 l 1122 708 l 951 708 l 814 0 m 639 210 q 766 241 703 210 l 814 458 q 698 491 764 491 q 587 452 635 491 q 524 342 538 413 q 521 309 521 318 q 552 235 521 260 q 639 210 583 210 m 17 -5 q -22 10 -7 -5 q -36 49 -36 24 q -35 63 -36 57 q -12 101 -30 87 q 28 115 5 115 q 69 101 54 115 q 83 63 83 87 q 64 14 83 33 q 17 -5 45 -5 z "},"ग़":{"ha":776,"x_min":31,"x_max":906,"o":"m 583 0 l 486 0 l 623 708 l 335 708 l 236 196 l 172 196 l 82 354 l 90 413 l 182 413 l 240 708 l 31 708 l 49 792 l 906 792 l 889 708 l 720 708 l 583 0 m 247 120 q 288 105 273 120 q 304 64 304 90 l 302 50 q 280 14 297 28 q 238 0 262 0 q 199 14 214 0 q 184 52 184 28 q 186 68 184 63 q 207 105 189 90 q 247 120 224 120 z "},"ज़":{"ha":938,"x_min":31,"x_max":1068,"o":"m 743 0 l 646 0 l 729 427 l 549 424 q 575 325 575 378 q 569 280 575 300 q 472 127 550 175 q 314 78 394 78 q 128 165 198 78 q 40 411 59 252 l 125 439 q 190 240 139 311 q 316 168 241 168 q 424 204 377 168 q 484 304 472 240 q 488 332 488 321 q 460 404 488 375 q 366 432 432 432 l 378 510 l 745 510 l 783 708 l 31 708 l 49 792 l 1068 792 l 1050 708 l 880 708 l 743 0 m 200 9 q 240 -5 226 9 q 255 -43 255 -19 q 237 -92 255 -73 q 191 -111 219 -111 q 151 -96 167 -111 q 135 -57 135 -82 l 137 -43 q 160 -5 142 -19 q 200 9 177 9 z "},"ड़":{"ha":712,"x_min":31,"x_max":842,"o":"m 406 510 q 301 493 337 510 q 259 436 266 476 q 257 422 257 431 q 284 382 257 392 q 359 372 311 372 q 394 373 375 372 q 431 375 413 375 l 439 375 q 567 337 519 375 q 615 234 615 299 q 611 200 615 224 q 519 54 594 108 q 340 0 444 0 q 35 161 165 0 l 101 219 q 342 90 205 90 q 458 122 406 90 q 521 210 510 153 q 523 227 523 215 q 427 288 523 288 l 387 285 l 356 283 q 222 313 280 283 q 167 424 165 344 q 170 458 167 434 q 413 601 198 601 q 531 595 477 601 l 556 708 l 31 708 l 49 792 l 842 792 l 825 708 l 653 708 l 616 507 l 597 495 l 559 500 q 406 510 483 510 m 281 -193 q 241 -178 257 -193 q 226 -139 226 -163 l 227 -125 q 250 -87 233 -101 q 290 -73 267 -73 q 331 -87 316 -73 q 345 -125 345 -101 q 327 -174 345 -155 q 281 -193 309 -193 z "},"ढ़":{"ha":689,"x_min":31,"x_max":819,"o":"m 392 458 q 233 409 293 458 q 155 271 172 359 q 151 231 151 243 q 188 135 151 172 q 288 90 224 97 q 285 141 285 118 q 336 277 285 224 q 460 330 387 330 q 558 293 526 330 q 590 205 590 255 q 587 177 590 194 q 493 43 569 87 q 316 0 417 0 q 126 62 196 0 q 56 224 56 123 q 63 283 56 241 q 170 474 85 398 q 389 550 255 550 q 488 547 444 550 l 523 708 l 31 708 l 49 792 l 819 792 l 802 708 l 620 708 l 573 455 l 557 443 q 509 450 523 446 q 458 455 493 451 q 392 458 424 458 m 457 240 q 375 167 389 240 q 372 127 372 153 q 375 87 372 108 q 465 129 432 99 q 498 198 498 160 q 487 228 498 217 q 457 240 476 240 m 262 -196 q 223 -182 238 -196 q 208 -144 208 -168 q 210 -128 208 -134 q 231 -91 214 -106 q 273 -76 248 -76 q 313 -91 299 -76 q 328 -130 328 -106 q 326 -146 328 -141 q 304 -182 321 -168 q 262 -196 286 -196 z "},"फ़":{"ha":1049,"x_min":31,"x_max":1179,"o":"m 641 526 q 807 578 733 578 q 957 529 903 578 q 1010 394 1010 479 q 1005 340 1010 370 q 819 104 983 217 l 759 179 q 811 219 769 188 q 878 287 852 250 q 913 368 905 325 q 917 398 917 389 q 886 466 917 443 q 797 490 856 490 q 627 415 727 490 l 542 0 l 446 0 l 490 203 q 328 179 401 179 q 167 229 220 179 q 113 365 113 280 q 120 427 113 385 l 174 708 l 31 708 l 49 792 l 1179 792 l 1161 708 l 679 708 l 641 526 m 215 420 q 210 377 210 398 q 240 294 210 323 q 328 266 271 266 q 500 295 401 266 l 583 708 l 271 708 l 215 420 m 207 -9 q 168 5 182 -9 q 153 43 153 19 q 155 59 153 54 q 175 96 158 82 q 217 111 193 111 q 258 96 243 111 q 273 57 273 82 q 271 42 273 47 q 248 5 266 19 q 207 -9 231 -9 z "},"य़":{"ha":774,"x_min":31,"x_max":905,"o":"m 580 0 l 483 0 l 524 193 q 340 146 434 146 q 158 199 229 146 q 59 323 87 252 l 83 372 q 208 455 158 408 q 259 575 259 502 q 215 712 259 641 l 31 708 l 49 792 l 905 792 l 887 708 l 717 708 l 580 0 m 318 705 q 351 571 351 644 q 347 523 351 538 q 291 405 333 453 q 179 311 248 358 q 245 257 203 276 q 337 238 286 238 q 443 255 391 238 q 538 306 495 273 l 620 708 l 318 705 m 113 -43 q 74 -30 89 -43 q 59 9 59 -16 q 61 24 59 19 q 82 62 64 47 q 123 76 99 76 q 164 63 149 76 q 179 24 179 49 q 160 -24 179 -5 q 113 -43 141 -43 z "},"ॹ":{"ha":938,"x_min":31,"x_max":1068,"o":"m 31 0 m 743 0 l 646 0 l 726 410 l 545 406 q 571 307 571 361 q 566 262 571 283 q 469 109 547 158 q 311 61 391 61 q 125 148 194 61 q 36 394 56 234 l 122 422 q 187 222 135 293 q 313 151 238 151 q 421 187 373 151 q 481 286 469 222 q 484 316 484 304 q 457 386 484 358 q 365 415 429 415 l 375 493 l 741 493 l 783 708 l 31 708 l 49 792 l 1068 792 l 1050 708 l 880 708 l 743 0 m 283 -120 q 243 -105 259 -120 q 227 -66 227 -90 l 229 -52 q 252 -14 234 -28 q 292 0 269 0 q 333 -15 318 0 q 349 -56 349 -30 l 347 -69 q 325 -106 342 -92 q 283 -120 307 -120 m 491 -120 q 451 -105 467 -120 q 436 -66 436 -90 l 438 -52 q 460 -14 443 -28 q 500 0 477 0 q 542 -15 526 0 q 557 -56 557 -30 l 556 -69 q 533 -106 550 -92 q 491 -120 516 -120 m 373 -259 q 333 -244 349 -259 q 318 -205 318 -229 l 319 -191 q 342 -153 325 -167 q 382 -139 359 -139 q 424 -154 408 -139 q 439 -194 439 -168 l 438 -208 q 415 -245 432 -231 q 373 -259 398 -259 z "},"ॺ":{"ha":774,"x_min":31,"x_max":905,"o":"m 719 708 l 580 0 l 483 0 l 521 196 q 340 146 427 146 q 158 199 229 146 q 59 323 87 252 l 83 372 q 208 455 158 408 q 259 575 259 502 q 224 696 259 635 l 222 698 l 215 708 l 31 708 l 49 792 l 141 792 l 139 793 l 177 792 l 905 792 l 887 708 l 719 708 m 321 708 l 550 344 l 622 708 l 321 708 m 337 238 q 493 276 422 238 l 344 509 q 286 400 326 444 q 179 311 247 356 q 245 257 203 276 q 337 238 286 238 z "},"ॻ":{"ha":771,"x_min":-21,"x_max":901,"o":"m 576 0 l 561 -83 l -21 -83 l -5 0 l 479 0 l 618 708 l 330 708 l 264 373 l 222 160 l 155 156 l 57 314 l 68 373 l 168 373 l 234 708 l 31 708 l 49 792 l 901 792 l 884 708 l 715 708 l 576 0 z "},"ॼ":{"ha":938,"x_min":-43,"x_max":1068,"o":"m 743 0 l 727 -83 l -43 -83 l -28 0 l 646 0 l 733 450 l 549 446 q 580 342 580 401 q 575 299 580 319 q 476 146 554 194 q 318 97 398 97 q 132 184 201 97 q 43 431 63 271 l 128 458 q 194 259 142 330 q 319 188 245 188 q 428 223 380 188 q 488 323 476 259 q 491 352 491 340 q 464 423 491 394 q 372 451 436 451 l 382 530 l 436 530 l 750 530 l 785 708 l 31 708 l 49 792 l 1068 792 l 1050 708 l 882 708 l 743 0 z "},"ॾ":{"ha":712,"x_min":-31,"x_max":842,"o":"m 655 708 l 616 507 l 597 495 l 559 500 q 406 510 483 510 q 301 493 337 510 q 259 436 266 476 q 257 422 257 431 q 284 382 257 392 q 359 372 311 372 q 394 373 375 372 q 431 375 413 375 l 439 375 q 567 337 519 375 q 615 234 615 299 q 611 200 615 224 q 519 54 594 108 q 340 0 444 0 q 35 161 165 0 l 101 219 q 342 90 205 90 q 458 122 406 90 q 521 210 510 153 q 523 227 523 215 q 427 288 523 288 l 387 285 l 356 283 q 222 313 280 283 q 167 424 165 344 q 170 458 167 434 q 413 601 198 601 q 531 595 477 601 l 556 708 l 31 708 l 49 792 l 842 792 l 825 708 l 655 708 m 556 -87 l 540 -170 l -31 -170 l -16 -87 l 556 -87 z "},"ॿ":{"ha":724,"x_min":-28,"x_max":854,"o":"m 530 0 l 514 -83 l -28 -83 l -12 0 l 432 0 l 462 155 q 278 113 372 113 q 115 164 177 113 q 54 309 54 215 q 59 365 54 337 q 166 536 80 474 q 358 599 252 599 q 540 552 462 599 l 571 708 l 31 708 l 49 792 l 854 792 l 837 708 l 668 708 l 530 0 m 361 512 q 281 500 318 512 l 484 269 l 523 460 q 361 512 453 512 m 141 313 q 181 228 141 257 q 286 200 222 200 q 403 224 345 200 q 205 457 250 401 q 141 313 141 401 z "},"ॸ":{"ha":684,"x_min":31,"x_max":814,"o":"m 281 424 l 365 424 l 406 424 q 622 266 622 424 q 615 207 622 248 q 490 -31 597 120 l 406 26 q 485 143 460 102 q 517 220 510 184 q 521 255 521 245 q 490 311 521 295 q 385 326 460 326 l 262 326 l 238 201 l 174 201 l 68 366 l 78 424 l 186 424 l 241 708 l 31 708 l 49 792 l 814 792 l 797 708 l 337 708 l 281 424 z "},"०":{"ha":628,"x_min":-64,"x_max":470,"o":"m 464 377 q 355 187 441 260 q 160 113 269 113 q -3 170 57 113 q -64 328 -64 227 q -57 394 -64 365 q 53 586 -35 514 q 252 658 141 658 q 412 602 354 658 q 470 446 470 545 q 464 377 470 410 m 372 394 q 377 441 377 420 q 341 536 377 502 q 247 569 306 569 q 113 518 172 569 q 36 377 54 467 q 31 330 31 351 q 67 235 31 269 q 161 201 102 201 q 295 253 236 201 q 372 394 354 304 z "},"१":{"ha":521,"x_min":-45,"x_max":398,"o":"m 226 792 q 349 743 300 792 q 398 616 398 694 q 392 566 398 592 q 336 443 378 497 q 234 346 293 389 q 71 245 174 304 l 260 42 l 188 -24 l -45 231 l -19 302 q 146 392 75 351 q 10 594 10 484 q 64 734 10 675 q 226 792 118 792 m 299 582 q 302 611 302 602 q 281 677 302 651 q 219 703 260 703 q 133 672 161 703 q 104 592 104 641 q 220 448 104 517 q 299 582 285 507 z "},"२":{"ha":623,"x_min":-38,"x_max":477,"o":"m 260 793 q 418 740 358 793 q 477 590 477 686 q 472 531 477 563 q 376 360 453 438 q 189 236 299 283 l 352 50 q 310 18 339 40 q 269 -14 281 -3 l 82 226 q -6 245 26 220 q -38 311 -38 269 q -36 335 -38 326 q -13 375 -33 356 q 42 403 7 394 l 123 311 q 240 363 181 325 q 339 458 299 401 q 380 585 380 516 q 347 672 380 639 q 250 705 314 705 q 45 630 156 705 l 3 708 q 260 793 127 793 z "},"३":{"ha":601,"x_min":-71,"x_max":450,"o":"m 450 651 q 401 524 450 573 q 264 455 352 476 q 364 413 325 451 q 403 313 403 375 q 399 276 403 304 q 324 170 389 217 q 163 116 259 123 l 262 0 l 175 -57 l 57 118 q -37 160 -3 132 q -71 227 -71 188 q -69 243 -71 238 q 5 306 -57 293 l 82 200 q 130 196 116 196 q 261 235 214 196 q 309 323 309 274 q 132 411 309 411 l 94 411 l 111 498 l 142 498 q 278 529 217 498 q 349 618 339 559 q 351 637 351 625 q 324 688 351 672 q 253 705 297 705 q 87 660 170 705 l 50 740 q 267 793 161 793 q 398 759 345 793 q 450 651 450 724 z "},"४":{"ha":658,"x_min":-45,"x_max":550,"o":"m 524 780 q 550 686 550 731 q 547 649 550 677 q 491 530 533 582 q 415 452 450 477 q 295 370 380 427 q 375 289 347 326 q 403 207 403 252 q 332 70 403 125 q 151 16 260 16 q 8 56 61 16 q -45 163 -45 97 q 2 273 -45 227 q 148 380 49 319 q 25 500 61 453 q -10 611 -10 547 q 6 705 -10 663 q 59 786 23 747 l 137 733 q 104 686 116 705 q 87 635 92 667 q 83 608 83 615 q 108 533 83 564 q 186 457 132 502 l 222 425 l 224 424 q 380 532 325 483 q 450 653 436 582 q 451 675 451 661 q 438 738 451 700 l 524 780 m 309 207 q 285 262 309 234 q 217 323 260 290 q 95 245 139 280 q 52 170 52 210 q 79 123 52 142 q 156 104 106 104 q 265 135 220 104 q 309 207 309 165 z "},"५":{"ha":628,"x_min":-45,"x_max":425,"o":"m 422 333 q 372 259 417 295 l 408 12 l 313 -12 l 293 217 q 161 191 227 191 q 7 243 59 191 q -45 382 -45 295 q -40 441 -45 410 q 16 589 -24 521 q 135 764 57 658 q 158 795 149 785 l 238 748 q 203 703 200 700 q 102 556 135 613 q 56 429 69 500 q 50 385 50 406 q 77 311 50 339 q 163 283 104 283 q 283 309 222 283 l 269 410 q 349 438 311 438 q 405 416 384 438 q 425 359 425 394 q 422 333 425 351 z "},"६":{"ha":597,"x_min":-61,"x_max":460,"o":"m 262 705 q 153 675 189 705 q 116 602 116 646 q 164 523 116 549 q 313 498 212 498 l 295 411 l 262 411 q 96 376 158 411 q 35 288 35 340 q 69 207 35 238 q 186 177 104 177 q 257 189 224 177 l 247 278 q 316 292 292 292 q 378 270 358 292 q 399 220 399 248 q 345 137 399 172 l 375 -9 l 285 -38 l 269 106 q 170 94 220 94 q 0 145 61 94 q -61 276 -61 196 q -7 396 -61 345 q 142 464 47 446 q 56 512 90 477 q 23 602 23 547 q 88 740 23 688 q 262 793 153 793 q 460 740 368 793 l 408 663 q 262 705 345 705 z "},"७":{"ha":811,"x_min":-59,"x_max":656,"o":"m 474 700 q 608 638 559 700 q 656 470 656 576 q 646 372 656 424 q 577 207 628 286 q 439 75 526 127 q 236 23 352 23 q 18 107 95 23 q -59 330 -59 191 q -49 434 -59 378 q 16 623 -28 547 q 115 776 59 700 l 194 729 q 104 592 144 665 q 45 418 64 519 q 36 332 36 366 q 90 171 36 229 q 238 113 144 113 q 429 175 349 113 q 542 340 509 238 q 424 313 479 313 q 293 357 339 313 q 247 472 247 401 q 252 519 247 497 q 330 647 266 594 q 474 700 394 700 m 345 498 q 344 476 344 490 q 366 422 344 441 q 429 403 389 403 q 500 414 470 403 q 561 448 530 425 q 563 486 563 462 q 538 576 563 545 q 472 608 514 608 q 390 577 425 608 q 345 498 354 547 z "},"८":{"ha":557,"x_min":-87,"x_max":458,"o":"m 373 80 q 253 33 304 49 q 134 17 203 17 q -30 69 26 17 q -87 212 -87 122 q -82 269 -87 238 q 64 510 -57 394 q 358 745 186 625 l 403 778 l 458 707 l 405 668 q 211 522 290 587 q 70 376 132 457 q 9 219 9 295 q 43 135 9 163 q 139 108 78 108 q 342 163 231 108 l 373 80 z "},"९":{"ha":523,"x_min":-16,"x_max":377,"o":"m 377 639 q 341 514 377 573 q 222 382 306 455 q 273 300 257 339 q 290 219 290 262 q 244 100 290 153 q 78 -26 198 47 l 33 54 q 155 133 111 97 q 198 215 198 168 q 172 299 198 260 q 95 389 146 337 q 15 490 45 439 q -16 594 -16 540 q 40 733 -16 674 q 200 792 95 792 q 332 748 286 792 q 377 639 377 705 m 82 589 q 158 448 83 530 q 247 537 215 491 q 278 623 278 583 q 254 681 278 660 q 191 703 231 703 q 111 668 141 703 q 82 589 82 632 z "},"ॽ":{"ha":807,"x_min":224,"x_max":733,"o":"m 503 806 q 669 754 606 806 q 733 599 733 703 q 655 418 733 505 q 380 274 578 330 l 328 0 l 224 0 l 288 344 q 506 424 432 384 q 603 504 580 464 q 627 601 627 545 q 488 705 627 705 q 384 691 434 705 q 280 653 333 677 l 255 750 q 377 791 318 776 q 503 806 436 806 z "},"।":{"ha":425,"x_min":168,"x_max":434,"o":"m 264 -52 l 168 -52 l 339 821 l 434 821 l 264 -52 z "},"॥":{"ha":679,"x_min":168,"x_max":688,"o":"m 264 -52 l 168 -52 l 340 826 l 436 826 l 264 -52 m 516 -52 l 420 -52 l 592 826 l 688 826 l 516 -52 z "},"॰":{"ha":450,"x_min":9,"x_max":370,"o":"m 148 175 q 269 209 219 175 q 345 293 319 243 q 370 387 370 342 q 333 494 370 455 q 231 533 297 533 q 109 499 160 533 q 34 416 59 465 q 9 321 9 366 q 45 214 9 253 q 148 175 82 175 m 161 259 q 94 330 94 259 q 131 412 94 375 q 219 450 168 450 q 286 378 286 450 q 249 296 286 333 q 161 259 212 259 z "},"ॱ":{"ha":384,"x_min":210,"x_max":337,"o":"m 266 688 q 225 703 240 688 q 210 743 210 719 q 227 793 210 771 q 276 814 243 814 q 320 799 304 814 q 337 759 337 783 q 319 708 337 729 q 266 688 300 688 z "},"ॐ":{"ha":1186,"x_min":30,"x_max":1160,"o":"m 903 840 q 864 859 877 840 q 854 903 851 877 q 874 937 858 924 q 911 950 891 950 q 949 936 936 950 q 962 901 962 922 q 946 859 962 877 q 903 840 931 840 m 884 658 q 740 707 792 658 q 679 833 688 755 l 759 859 q 797 769 769 797 q 885 741 825 741 q 994 773 951 741 q 1073 866 1036 804 l 1146 823 q 884 658 1064 658 m 1010 592 q 1120 535 1080 592 q 1160 391 1160 477 q 1153 321 1160 354 q 1061 152 1134 222 q 903 82 988 82 q 786 140 828 82 q 734 292 743 198 q 665 281 703 281 q 606 290 632 281 q 601 229 606 264 q 512 96 585 149 q 335 43 439 43 q 148 110 215 43 q 30 316 80 177 l 109 356 q 200 188 149 243 q 337 134 250 134 q 455 168 405 134 q 517 264 505 201 q 521 293 521 285 q 482 365 521 339 q 344 392 443 392 l 323 392 l 286 392 l 304 477 l 340 477 q 559 611 531 476 q 561 632 561 618 q 534 686 561 667 q 462 705 507 705 q 373 687 410 705 q 290 632 337 668 l 247 710 q 349 770 299 747 q 467 793 399 793 q 602 752 552 793 q 651 641 651 710 q 607 516 651 576 q 488 431 563 455 q 549 403 526 418 q 608 375 585 384 q 665 366 630 366 q 758 396 719 366 q 845 483 797 425 q 929 565 894 538 q 1010 592 964 592 m 1064 391 q 1047 463 1064 436 q 1000 490 1030 490 q 959 472 979 490 q 906 418 939 455 q 819 335 859 365 q 844 220 826 262 q 906 179 861 179 q 984 209 948 179 q 1043 288 1021 240 q 1064 391 1064 337 z "},"*":{"ha":773,"x_min":168,"x_max":733,"o":"m 510 736 l 696 845 l 733 757 l 536 660 l 694 568 l 630 483 l 484 592 l 446 391 l 345 391 l 391 592 l 205 484 l 168 571 l 366 665 l 205 757 l 273 845 l 420 736 l 451 938 l 552 938 l 510 736 z "},"\\":{"ha":512,"x_min":174,"x_max":410,"o":"m 307 -61 l 410 -61 l 274 955 l 174 955 l 307 -61 z "},"·":{"ha":399,"x_min":144,"x_max":318,"o":"m 222 408 q 167 430 189 408 q 144 484 144 451 q 174 551 144 523 q 241 580 203 580 q 296 558 274 580 q 318 502 318 536 q 288 437 318 465 q 222 408 259 408 z "},"•":{"ha":929,"x_min":255,"x_max":727,"o":"m 439 234 q 577 273 510 234 q 686 378 644 313 q 727 517 727 444 q 675 644 727 594 q 543 694 623 694 q 418 662 479 694 q 314 576 358 630 q 259 457 271 521 q 255 417 255 429 q 306 286 255 339 q 439 234 358 234 z "},":":{"ha":406,"x_min":76,"x_max":307,"o":"m 226 406 q 176 424 194 406 q 158 472 158 443 q 181 531 158 507 q 240 556 203 556 q 289 537 271 556 q 307 490 307 519 q 285 431 307 455 q 226 406 262 406 m 144 -10 q 95 8 113 -10 q 76 56 76 26 q 100 114 76 89 q 160 139 123 139 q 208 122 191 139 q 226 76 226 104 q 204 15 226 40 q 144 -10 182 -10 z "},",":{"ha":333,"x_min":-17,"x_max":198,"o":"m 125 122 q 178 102 158 122 q 198 50 198 83 q 145 -74 198 -9 q 23 -191 92 -139 l -17 -156 q 76 -28 56 -59 q 36 36 36 -9 q 61 96 36 71 q 125 122 85 122 z "},"…":{"ha":835,"x_min":26,"x_max":705,"o":"m 94 -5 q 44 13 63 -5 q 26 61 26 31 q 49 120 26 95 q 108 144 71 144 q 157 126 139 144 q 175 78 175 108 q 153 19 175 43 q 94 -5 130 -5 m 358 -5 q 308 13 326 -5 q 290 61 290 31 q 313 120 290 95 q 372 144 335 144 q 421 126 403 144 q 439 78 439 108 q 417 19 439 43 q 358 -5 394 -5 m 623 -5 q 574 13 592 -5 q 556 61 556 31 q 578 120 556 95 q 637 144 601 144 q 687 126 668 144 q 705 78 705 108 q 682 19 705 43 q 623 -5 660 -5 z "},"!":{"ha":356,"x_min":90,"x_max":380,"o":"m 229 156 l 144 156 l 264 856 l 380 856 l 229 156 m 151 -68 q 106 -53 122 -68 q 90 -12 90 -38 q 109 43 90 21 q 161 64 127 64 q 207 49 191 64 q 222 9 222 35 q 203 -46 222 -24 q 151 -68 184 -68 z "},"¡":{"ha":332,"x_min":57,"x_max":349,"o":"m 288 839 q 332 823 316 839 q 349 781 349 807 q 330 727 349 748 q 276 707 311 707 q 232 721 247 707 q 217 762 217 736 q 219 781 217 774 q 240 823 222 807 q 288 839 259 839 m 293 615 l 174 -85 l 57 -85 l 208 615 l 293 615 z "},"#":{"ha":955,"x_min":38,"x_max":946,"o":"m 115 602 l 95 512 l 311 512 l 269 293 l 56 293 l 38 203 l 252 203 l 200 -64 l 295 -64 l 347 203 l 554 203 l 502 -64 l 599 -64 l 651 203 l 868 203 l 885 293 l 668 293 l 710 512 l 927 512 l 946 602 l 729 602 l 778 858 l 681 858 l 632 602 l 425 602 l 474 858 l 378 858 l 330 602 l 115 602 m 613 512 l 571 293 l 365 293 l 406 512 l 613 512 z "},".":{"ha":313,"x_min":28,"x_max":184,"o":"m 97 -7 q 47 13 66 -7 q 28 63 28 33 q 53 122 28 95 q 115 149 78 149 q 165 129 146 149 q 184 80 184 109 q 159 20 184 47 q 97 -7 134 -7 z "},"?":{"ha":741,"x_min":238,"x_max":734,"o":"m 507 865 q 671 817 608 865 q 734 679 734 769 q 729 627 734 656 q 677 503 715 552 q 566 392 639 455 q 471 316 498 340 q 424 254 444 292 q 391 156 403 217 l 281 163 q 377 372 307 290 q 465 444 403 396 q 589 557 549 510 q 628 668 628 604 q 495 764 628 764 q 382 750 429 764 q 274 710 335 736 l 248 807 q 375 850 316 835 q 507 865 434 865 m 297 -69 q 253 -55 267 -69 q 238 -14 238 -40 q 240 5 238 -2 q 261 47 243 31 q 309 63 280 63 q 354 48 339 63 q 370 7 370 33 q 350 -48 370 -26 q 297 -69 330 -69 z "},"¿":{"ha":691,"x_min":80,"x_max":578,"o":"m 517 839 q 563 823 547 839 q 578 781 578 807 q 576 764 578 769 q 553 722 571 738 q 505 707 535 707 q 461 721 476 707 q 446 762 446 736 q 448 781 446 774 q 470 823 451 807 q 517 839 490 839 m 307 -95 q 143 -48 207 -95 q 80 90 80 0 q 85 142 80 115 q 137 266 99 217 q 248 377 175 314 q 311 425 259 385 q 388 509 363 465 q 425 613 413 552 l 533 606 q 439 398 507 477 q 352 326 396 359 q 227 215 269 264 q 186 101 186 167 q 321 5 186 5 q 434 19 385 5 q 542 59 483 33 l 566 -38 q 441 -80 502 -64 q 307 -95 380 -95 z "},"\"":{"ha":491,"x_min":184,"x_max":502,"o":"m 184 651 m 259 938 q 298 924 285 938 q 311 889 311 911 q 307 863 311 880 l 240 651 l 184 651 l 200 870 q 218 920 205 903 q 259 938 231 938 m 450 938 q 489 924 476 938 q 502 889 502 911 q 498 863 502 880 l 431 651 l 375 651 l 391 870 q 409 920 396 903 q 450 938 422 938 z "},"'":{"ha":300,"x_min":184,"x_max":311,"o":"m 259 938 q 298 924 285 938 q 311 889 311 911 q 307 863 311 880 l 240 651 l 184 651 l 200 870 q 218 920 205 903 q 259 938 231 938 z "},";":{"ha":413,"x_min":14,"x_max":307,"o":"m 240 556 q 289 537 271 556 q 307 490 307 519 q 285 431 307 455 q 226 406 262 406 q 176 424 194 406 q 158 472 158 443 q 181 531 158 507 q 240 556 203 556 m 156 122 q 209 102 189 122 q 229 50 229 83 q 176 -74 229 -9 q 54 -191 123 -139 l 14 -156 q 108 -28 87 -59 q 68 36 68 -9 q 92 96 68 71 q 156 122 116 122 z "},"/":{"ha":524,"x_min":-50,"x_max":594,"o":"m 63 -61 l 594 955 l 481 955 l -50 -61 l 63 -61 z "},"_":{"ha":785,"x_min":12,"x_max":608,"o":"m 589 -144 l 608 -43 l 31 -43 l 12 -144 l 589 -144 z "},"{":{"ha":540,"x_min":59,"x_max":609,"o":"m 59 326 q 154 275 115 318 q 193 174 193 233 q 189 142 193 163 l 163 12 q 156 -52 156 -17 q 213 -204 156 -148 q 347 -274 269 -260 l 396 -182 q 294 -133 326 -165 q 262 -30 262 -101 q 271 57 262 16 l 288 148 q 293 198 293 174 q 215 358 293 293 q 320 454 276 398 q 378 585 365 510 l 398 691 q 443 817 415 773 q 509 880 470 861 q 609 913 547 899 l 608 1017 q 411 936 491 1002 q 302 724 330 870 l 278 594 q 207 477 264 526 q 83 417 151 427 l 59 326 z "},"}":{"ha":538,"x_min":-56,"x_max":495,"o":"m 495 417 q 400 468 439 425 q 361 569 361 510 q 365 601 361 580 l 391 731 q 398 795 398 760 q 341 947 398 891 q 207 1017 285 1003 l 158 925 q 260 876 227 908 q 292 773 292 844 q 283 686 292 727 l 266 595 q 260 545 260 569 q 339 385 260 451 q 234 289 278 345 q 175 158 189 233 l 156 52 q 111 -74 139 -30 q 45 -137 83 -118 q -56 -170 7 -156 l -54 -274 q 143 -193 63 -259 q 252 19 224 -127 l 276 149 q 346 266 290 217 q 470 326 403 316 l 495 417 z "},"[":{"ha":530,"x_min":-2,"x_max":552,"o":"m 243 1017 l 552 1017 l 535 931 l 323 931 l 113 -155 l 325 -155 l 307 -241 l -2 -241 l 243 1017 z "},"]":{"ha":528,"x_min":-2,"x_max":552,"o":"m 16 -155 l 227 -155 l 438 931 l 226 931 l 243 1017 l 552 1017 l 307 -241 l -2 -241 l 16 -155 z "},"(":{"ha":467,"x_min":104,"x_max":526,"o":"m 224 377 q 207 174 207 276 q 210 78 207 144 q 286 -222 227 -71 l 207 -257 q 104 210 104 -9 q 122 398 104 304 q 455 1042 179 701 l 526 993 q 330 682 403 835 q 224 377 253 524 z "},")":{"ha":470,"x_min":-36,"x_max":387,"o":"m 264 394 q 283 599 283 483 q 280 700 283 665 q 203 1000 266 840 l 283 1035 q 387 568 387 790 q 370 380 387 472 q 36 -264 311 80 l -36 -215 q 160 95 87 -57 q 264 394 236 255 z "},"—":{"ha":1122,"x_min":57,"x_max":1021,"o":"m 1005 330 l 57 330 l 73 411 l 1021 411 l 1005 330 z "},"–":{"ha":755,"x_min":57,"x_max":656,"o":"m 641 330 l 57 330 l 73 411 l 656 411 l 641 330 z "},"-":{"ha":601,"x_min":64,"x_max":507,"o":"m 491 330 l 64 330 l 80 411 l 507 411 l 491 330 z "},"­":{"ha":601,"x_min":64,"x_max":507,"o":"m 64 330 m 491 330 l 64 330 l 80 411 l 507 411 l 491 330 z "},"«":{"ha":627,"x_min":189,"x_max":778,"o":"m 189 174 m 313 174 l 427 174 l 307 408 l 528 667 l 408 667 l 189 418 l 313 174 m 563 174 l 677 174 l 557 408 l 778 667 l 658 667 l 439 418 l 563 174 z "},"»":{"ha":622,"x_min":118,"x_max":703,"o":"m 118 174 m 335 427 l 118 174 l 241 174 l 455 418 l 335 667 l 222 667 l 335 427 m 583 427 l 366 174 l 490 174 l 703 418 l 583 667 l 470 667 l 583 427 z "},"‹":{"ha":377,"x_min":68,"x_max":406,"o":"m 191 174 l 306 174 l 186 408 l 406 667 l 286 667 l 68 418 l 191 174 z "},"›":{"ha":373,"x_min":3,"x_max":340,"o":"m 220 427 l 3 174 l 127 174 l 340 418 l 220 667 l 108 667 l 220 427 z "},"„":{"ha":550,"x_min":33,"x_max":424,"o":"m 33 0 m 156 123 q 206 104 188 123 q 224 54 224 85 q 181 -51 224 5 q 73 -153 137 -108 l 33 -118 q 67 -75 40 -108 q 109 -16 94 -42 q 75 42 75 0 q 76 63 75 56 q 104 105 82 87 q 156 123 127 123 m 356 123 q 405 104 387 123 q 424 54 424 85 q 380 -51 424 5 q 273 -153 337 -108 l 233 -118 q 266 -75 240 -108 q 309 -16 293 -42 q 274 42 274 0 q 276 63 274 56 q 304 105 281 87 q 356 123 326 123 z "},"“":{"ha":533,"x_min":167,"x_max":557,"o":"m 167 667 m 281 806 q 316 748 316 790 q 314 727 316 734 q 286 684 309 701 q 234 667 264 667 q 185 684 203 667 q 167 733 167 701 q 210 838 167 781 q 316 943 253 894 l 358 906 q 281 806 316 856 m 481 806 q 516 748 516 790 q 514 727 516 734 q 486 684 509 701 q 434 667 464 667 q 385 684 403 667 q 366 733 366 701 q 410 838 366 781 q 516 943 453 894 l 557 906 q 481 806 516 856 z "},"”":{"ha":533,"x_min":158,"x_max":549,"o":"m 158 663 m 281 939 q 331 920 313 939 q 349 870 349 901 q 306 765 349 821 q 198 663 262 708 l 158 698 q 192 741 165 708 q 234 800 219 774 q 200 858 200 816 q 201 878 200 872 q 229 921 207 903 q 281 939 252 939 m 481 939 q 530 920 512 939 q 549 870 549 901 q 505 765 549 821 q 398 663 462 708 l 358 698 q 391 741 365 708 q 434 800 418 774 q 399 858 399 816 q 401 878 399 872 q 429 921 406 903 q 481 939 451 939 z "},"‘":{"ha":333,"x_min":149,"x_max":340,"o":"m 264 806 q 299 748 299 790 q 297 727 299 734 q 269 684 292 701 q 217 667 247 667 q 168 684 186 667 q 149 733 149 701 q 193 838 149 781 q 299 943 236 894 l 340 906 q 264 806 299 856 z "},"’":{"ha":333,"x_min":175,"x_max":366,"o":"m 299 939 q 348 920 330 939 q 366 870 366 901 q 323 765 366 821 q 215 663 280 708 l 175 698 q 209 741 182 708 q 252 800 236 774 q 217 858 217 816 q 219 878 217 872 q 247 921 224 903 q 299 939 269 939 z "},"‚":{"ha":349,"x_min":33,"x_max":224,"o":"m 156 122 q 206 103 188 122 q 224 54 224 85 q 181 -50 224 5 q 73 -155 137 -106 l 33 -120 q 109 -17 102 -26 q 75 40 75 -2 q 76 61 75 54 q 103 103 80 85 q 156 122 127 122 z "},"π":{"ha":757,"x_min":47,"x_max":762,"o":"m 47 0 l 163 0 l 273 563 l 519 563 l 438 141 q 434 99 434 125 q 462 15 434 45 q 542 -16 490 -16 q 613 -8 583 -16 q 661 8 642 0 q 688 19 681 16 l 689 97 q 632 89 661 89 q 569 104 587 89 q 550 148 550 120 q 556 188 550 167 l 628 563 l 741 563 l 762 667 l 75 667 l 54 563 l 156 563 l 47 0 z "},"¢":{"ha":703,"x_min":109,"x_max":693,"o":"m 524 668 q 296 571 368 668 q 224 344 224 474 q 279 207 224 243 q 422 170 333 170 q 556 194 488 170 l 576 108 q 477 80 521 89 q 382 71 434 71 l 375 71 l 347 -87 l 264 -87 l 293 80 q 157 163 205 101 q 109 316 109 226 q 190 604 109 477 q 444 757 271 731 l 472 892 l 556 892 l 530 762 q 693 724 611 762 l 655 644 q 524 668 592 668 z "},"¤":{"ha":826,"x_min":78,"x_max":759,"o":"m 655 368 q 599 241 641 295 l 691 132 l 618 66 l 523 177 q 387 144 462 144 q 269 177 318 144 l 141 68 l 78 139 l 205 252 q 189 333 189 288 q 194 385 189 359 q 253 509 207 455 l 153 625 l 229 688 l 330 571 q 464 608 394 608 q 578 582 531 608 l 696 686 l 759 611 l 642 510 q 660 425 660 476 q 655 368 660 398 m 288 342 q 318 270 288 297 q 396 243 347 243 q 504 283 457 243 q 564 387 552 323 q 568 415 568 405 q 539 485 568 458 q 462 512 510 512 q 340 463 392 512 q 288 342 288 413 z "},"$":{"ha":639,"x_min":26,"x_max":616,"o":"m 434 651 q 296 622 351 651 q 241 545 241 594 q 266 499 241 517 q 351 455 292 481 l 410 427 q 520 359 486 396 q 554 271 554 323 q 549 224 554 250 q 472 113 536 161 q 314 56 408 64 l 286 -87 l 191 -87 l 219 56 q 26 106 125 66 l 69 193 q 271 149 186 149 q 384 175 333 149 q 443 250 434 201 q 444 264 444 255 q 418 307 444 290 q 313 361 392 325 l 248 391 q 162 447 196 415 q 128 538 128 479 q 132 575 128 550 q 206 688 146 648 q 351 740 266 727 l 380 891 l 476 891 l 448 745 q 616 705 543 740 l 576 620 q 434 651 505 651 z "},"€":{"ha":891,"x_min":12,"x_max":859,"o":"m 613 708 q 451 664 521 708 q 339 543 380 620 l 648 543 l 628 448 l 306 448 q 297 411 299 424 q 290 354 293 392 l 611 354 l 592 259 l 290 259 q 355 132 302 174 q 524 90 408 90 q 624 100 576 90 q 734 128 672 109 l 745 31 q 609 -5 672 5 q 465 -16 545 -16 q 260 62 337 -16 q 170 259 184 139 l 12 259 l 31 354 l 168 354 q 184 448 172 401 l 49 448 l 68 543 l 215 543 q 377 739 271 665 q 637 813 483 813 q 753 799 708 813 q 859 760 799 786 l 806 670 q 714 700 750 691 q 613 708 677 708 z "},"ƒ":{"ha":585,"x_min":-163,"x_max":637,"o":"m -40 -205 q -123 -194 -75 -205 l -163 -278 q -95 -292 -123 -288 q -30 -295 -66 -295 q 130 -242 64 -295 q 217 -89 196 -189 l 316 422 l 505 422 l 523 510 l 333 510 l 345 575 q 395 685 361 658 q 497 712 429 712 q 594 694 538 712 l 637 778 q 563 799 595 793 q 488 806 530 806 q 326 748 389 806 q 241 578 264 691 l 229 510 l 111 510 l 94 422 l 212 422 l 116 -66 q 64 -173 102 -141 q -40 -205 26 -205 z "},"₹":{"ha":585,"x_min":52,"x_max":639,"o":"m 417 712 q 443 602 443 663 l 602 602 l 587 523 l 436 523 l 436 519 q 355 371 418 429 q 215 286 292 313 l 363 31 l 276 -17 l 52 377 l 135 424 l 168 366 q 337 523 304 410 l 71 523 l 87 602 l 345 602 q 304 712 344 668 l 108 712 l 123 792 l 639 792 l 623 712 l 417 712 z "},"£":{"ha":799,"x_min":40,"x_max":799,"o":"m 648 0 l 665 90 l 302 90 l 354 358 l 679 358 l 696 450 l 372 450 l 387 528 q 471 673 405 630 q 628 715 538 715 q 743 703 688 715 l 799 786 q 651 811 714 811 q 387 729 476 811 q 266 476 299 648 l 260 450 l 142 450 l 125 358 l 243 358 l 191 90 l 57 90 l 40 0 l 648 0 z "},"¥":{"ha":780,"x_min":111,"x_max":781,"o":"m 781 792 l 660 792 l 411 484 l 281 792 l 175 792 l 337 406 l 167 406 l 149 321 l 325 321 l 304 210 l 128 210 l 111 128 l 286 128 l 262 0 l 377 0 l 401 128 l 582 128 l 597 210 l 418 210 l 439 321 l 618 321 l 635 406 l 460 406 l 781 792 z "},"Ω":{"ha":922,"x_min":5,"x_max":872,"o":"m 528 826 q 278 766 373 826 q 141 615 182 705 q 99 429 99 524 q 122 299 99 358 q 177 197 144 241 q 267 90 210 153 l 24 90 l 5 0 l 326 0 l 349 106 q 249 248 283 186 q 215 396 215 311 q 246 550 215 476 q 345 675 276 625 q 526 726 415 726 q 699 669 644 726 q 752 519 753 613 q 725 369 752 432 q 655 260 698 306 q 531 146 611 214 l 484 106 l 460 0 l 786 0 l 806 90 l 592 90 q 872 526 872 318 q 786 748 872 670 q 528 826 701 826 z "},"≈":{"ha":941,"x_min":139,"x_max":802,"o":"m 470 483 q 556 453 524 462 q 623 444 587 444 q 802 517 707 444 l 752 597 q 623 540 677 540 q 563 549 590 540 q 510 569 535 557 q 472 585 484 580 q 319 623 391 623 q 139 550 238 623 l 191 470 q 319 530 264 530 q 373 522 349 530 q 436 498 398 514 l 470 483 m 470 226 q 556 196 524 205 q 623 188 587 188 q 802 260 707 188 l 752 340 q 623 283 677 283 q 563 292 590 283 q 510 312 535 300 q 472 328 484 323 q 319 366 391 366 q 139 293 238 366 l 191 214 q 319 273 264 273 q 373 265 349 273 q 436 241 398 257 l 470 226 z "},"~":{"ha":656,"x_min":186,"x_max":672,"o":"m 351 931 q 395 919 375 931 q 446 885 415 908 q 509 852 486 852 q 558 873 538 852 q 597 934 578 894 l 672 901 q 603 805 648 840 q 502 769 559 769 q 447 780 469 769 q 398 814 425 792 q 370 835 384 826 q 344 844 356 844 q 299 823 318 844 q 260 764 280 802 l 186 797 q 255 895 212 859 q 351 931 299 931 z "},"∙":{"ha":585,"x_min":182,"x_max":427,"o":"m 182 361 q 207 299 182 323 q 274 274 233 274 q 370 311 326 274 q 425 401 413 347 q 427 422 427 408 q 401 487 427 462 q 335 512 375 512 q 229 467 276 512 q 182 361 182 422 z "},"÷":{"ha":781,"x_min":104,"x_max":677,"o":"m 391 556 q 336 576 356 556 q 316 630 316 597 q 336 684 316 663 q 391 705 356 705 q 445 684 425 705 q 465 630 465 663 q 445 576 465 597 q 391 556 425 556 m 677 354 l 677 451 l 104 451 l 104 354 l 677 354 m 391 101 q 336 122 356 101 q 316 175 316 142 q 336 229 316 208 q 391 250 356 250 q 445 229 425 250 q 465 175 465 208 q 445 122 465 142 q 391 101 425 101 z "},"∕":{"ha":446,"x_min":-151,"x_max":622,"o":"m -36 0 l 622 792 l 505 792 l -151 0 l -36 0 z "},"=":{"ha":906,"x_min":139,"x_max":767,"o":"m 767 481 l 767 578 l 139 578 l 139 481 l 767 481 m 767 222 l 767 319 l 139 319 l 139 222 l 767 222 z "},">":{"ha":743,"x_min":83,"x_max":674,"o":"m 83 655 l 554 417 l 83 181 l 83 73 l 674 361 l 674 472 l 83 762 l 83 655 z "},"≥":{"ha":741,"x_min":83,"x_max":672,"o":"m 83 655 l 83 557 l 554 411 l 83 267 l 83 168 l 670 356 l 670 467 l 83 655 m 83 0 l 672 0 l 672 94 l 83 94 l 83 0 z "},"∆":{"ha":792,"x_min":-2,"x_max":681,"o":"m 542 792 l 420 792 l 7 87 l -2 0 l 672 0 l 681 87 l 542 792 m 130 97 l 464 674 l 573 97 l 130 97 z "},"∞":{"ha":1108,"x_min":52,"x_max":1066,"o":"m 759 83 q 927 135 858 83 q 1031 264 997 186 q 1066 422 1066 342 q 1011 589 1066 523 q 859 656 957 656 q 679 604 757 656 q 514 451 601 552 q 325 595 431 595 q 178 553 240 595 q 84 442 116 510 q 52 300 52 373 q 98 173 52 222 q 224 123 144 123 q 359 167 297 123 q 488 283 422 210 q 602 136 540 189 q 759 83 663 83 m 826 550 q 944 415 944 550 q 893 254 944 323 q 752 186 842 186 q 648 234 694 186 q 561 358 602 281 q 698 497 632 444 q 826 550 764 550 m 248 226 q 186 250 207 226 q 165 316 165 274 q 204 438 165 384 q 306 493 243 493 q 384 463 356 493 q 443 373 411 432 q 341 269 391 313 q 248 226 292 226 z "},"∫":{"ha":486,"x_min":2,"x_max":510,"o":"m 351 95 q 340 215 351 153 q 311 368 330 278 l 290 469 q 272 557 286 484 q 257 700 257 630 q 283 822 257 778 q 375 866 309 866 q 455 849 413 866 l 510 932 q 392 964 451 964 q 217 897 274 964 q 158 705 160 830 q 203 420 160 620 q 212 384 203 417 q 243 223 233 285 q 253 95 253 161 q 132 -116 253 -116 q 82 -109 104 -116 q 56 -99 61 -101 l 2 -182 q 54 -205 28 -196 q 122 -214 80 -214 q 294 -131 238 -214 q 351 95 351 -49 z "},"<":{"ha":740,"x_min":69,"x_max":656,"o":"m 656 181 l 186 417 l 656 655 l 656 762 l 69 472 l 69 361 l 656 73 l 656 181 z "},"≤":{"ha":741,"x_min":69,"x_max":658,"o":"m 658 267 l 188 411 l 658 557 l 658 655 l 71 467 l 71 356 l 658 168 l 658 267 m 658 0 l 658 94 l 69 94 l 69 0 l 658 0 z "},"¬":{"ha":837,"x_min":95,"x_max":741,"o":"m 655 330 l 655 125 l 741 125 l 741 413 l 95 413 l 95 330 l 655 330 z "},"µ":{"ha":747,"x_min":-17,"x_max":715,"o":"m 92 -276 l 149 33 q 207 -4 177 9 q 281 -17 236 -17 q 491 49 356 -17 l 507 0 l 585 0 l 715 667 l 606 667 l 505 132 q 328 76 380 76 q 225 109 257 76 q 193 207 193 142 q 201 288 193 240 l 276 667 l 167 667 l -17 -276 l 92 -276 z "},"−":{"ha":785,"x_min":104,"x_max":681,"o":"m 681 354 l 681 451 l 104 451 l 104 354 l 681 354 z "},"×":{"ha":757,"x_min":139,"x_max":618,"o":"m 618 550 l 547 618 l 382 451 l 214 616 l 141 542 l 304 377 l 139 208 l 207 139 l 373 307 l 542 139 l 616 214 l 450 382 l 618 550 z "},"≠":{"ha":906,"x_min":139,"x_max":767,"o":"m 484 319 l 767 319 l 767 222 l 453 222 l 380 0 l 273 0 l 345 222 l 139 222 l 139 319 l 377 319 l 431 481 l 139 481 l 139 578 l 462 578 l 531 792 l 639 792 l 569 578 l 767 578 l 767 481 l 538 481 l 484 319 z "},"∂":{"ha":811,"x_min":63,"x_max":703,"o":"m 438 807 q 638 706 573 807 q 703 465 703 604 q 662 238 703 347 q 534 57 622 128 q 313 -14 446 -14 q 129 49 196 -14 q 63 226 63 113 q 95 364 63 299 q 201 470 128 429 q 389 512 274 512 q 589 464 491 512 l 589 476 q 547 650 589 583 q 410 717 505 717 q 302 698 372 717 q 189 658 233 679 l 167 741 q 306 789 234 771 q 438 807 378 807 m 325 78 q 498 161 438 78 q 580 363 559 243 q 387 420 476 420 q 226 362 276 420 q 175 220 175 304 q 213 118 175 158 q 325 78 250 78 z "},"%":{"ha":870,"x_min":43,"x_max":858,"o":"m 161 0 l 858 792 l 736 792 l 43 0 l 161 0 m 214 413 q 323 445 274 413 q 398 530 372 477 q 425 637 425 582 q 385 749 425 707 q 280 792 345 792 q 170 760 219 792 q 95 675 122 727 q 68 568 68 623 q 107 455 68 497 q 214 413 146 413 m 226 498 q 156 573 156 498 q 186 664 156 622 q 262 707 215 707 q 319 688 302 707 q 335 632 335 670 q 304 541 335 583 q 226 498 273 498 m 615 0 q 724 32 675 0 q 799 116 773 64 q 826 224 826 168 q 786 336 826 293 q 681 378 747 378 q 571 346 620 378 q 496 262 523 314 q 469 155 469 210 q 508 42 469 83 q 615 0 547 0 m 627 85 q 557 160 557 85 q 587 251 557 208 q 663 293 616 293 q 720 275 703 293 q 736 219 736 257 q 705 128 736 170 q 627 85 674 85 z "},"‰":{"ha":1269,"x_min":43,"x_max":1226,"o":"m 161 0 l 858 792 l 736 792 l 43 0 l 161 0 m 214 413 q 323 445 274 413 q 398 530 372 477 q 425 637 425 582 q 385 749 425 707 q 280 792 345 792 q 170 760 219 792 q 95 675 122 727 q 68 568 68 623 q 107 455 68 497 q 214 413 146 413 m 226 498 q 156 573 156 498 q 186 664 156 622 q 262 707 215 707 q 319 688 302 707 q 335 632 335 670 q 304 541 335 583 q 226 498 273 498 m 615 0 q 724 32 675 0 q 799 116 773 64 q 826 224 826 168 q 786 336 826 293 q 681 378 747 378 q 571 346 620 378 q 496 262 523 314 q 469 155 469 210 q 508 42 469 83 q 615 0 547 0 m 1014 0 q 1123 32 1075 0 q 1199 116 1172 64 q 1226 224 1226 168 q 1186 336 1226 293 q 1080 378 1146 378 q 970 346 1019 378 q 895 262 922 314 q 868 155 868 210 q 907 42 868 83 q 1014 0 946 0 m 627 85 q 557 160 557 85 q 587 251 557 208 q 663 293 616 293 q 720 275 703 293 q 736 219 736 257 q 705 128 736 170 q 627 85 674 85 m 1026 85 q 957 160 957 85 q 986 251 957 208 q 1063 293 1016 293 q 1119 275 1102 293 q 1135 219 1135 257 q 1104 128 1135 170 q 1026 85 1073 85 z "},"+":{"ha":785,"x_min":104,"x_max":681,"o":"m 439 354 l 439 109 l 342 109 l 342 354 l 104 354 l 104 451 l 342 451 l 342 686 l 439 686 l 439 451 l 681 451 l 681 354 l 439 354 z "},"±":{"ha":785,"x_min":104,"x_max":681,"o":"m 681 424 l 439 424 l 439 179 l 342 179 l 342 424 l 104 424 l 104 521 l 342 521 l 342 755 l 439 755 l 439 521 l 681 521 l 681 424 m 681 97 l 681 0 l 104 0 l 104 97 l 681 97 z "},"∏":{"ha":927,"x_min":30,"x_max":906,"o":"m 30 -111 l 135 -111 l 299 731 l 783 731 l 620 -111 l 724 -111 l 906 828 l 212 828 l 30 -111 z "},"√":{"ha":740,"x_min":42,"x_max":807,"o":"m 300 425 l 42 323 l 59 227 l 215 286 l 271 -61 l 382 -61 l 807 899 l 708 915 l 345 92 l 300 425 z "},"∑":{"ha":847,"x_min":17,"x_max":861,"o":"m 861 830 l 201 830 l 186 736 l 474 352 l 35 -30 l 17 -123 l 675 -123 l 693 -31 l 174 -31 l 606 344 l 304 736 l 842 736 l 861 830 z "},"◌":{"ha":865,"x_min":49,"x_max":837,"o":"m 443 708 q 414 720 425 708 q 403 748 403 731 q 414 777 403 766 q 443 788 425 788 q 471 777 460 788 q 483 748 483 766 q 471 720 483 731 q 443 708 460 708 m 304 682 q 275 694 286 682 q 264 722 264 705 q 275 751 264 740 q 304 762 286 762 q 332 751 319 762 q 344 722 344 740 q 332 694 344 705 q 304 682 319 682 m 583 682 q 555 694 566 682 q 543 722 543 705 q 555 751 543 740 q 583 762 566 762 q 612 751 601 762 q 623 722 623 740 q 612 694 623 705 q 583 682 601 682 m 191 606 q 162 617 174 606 q 151 646 151 628 q 162 674 151 663 q 191 686 174 686 q 220 674 208 686 q 231 646 231 663 q 220 617 231 628 q 191 606 208 606 m 696 606 q 668 617 679 606 q 656 646 656 628 q 668 674 656 663 q 696 686 679 686 q 725 674 714 686 q 736 646 736 663 q 725 617 736 628 q 696 606 714 606 m 113 490 q 84 501 95 490 q 73 530 73 512 q 84 558 73 547 q 113 569 95 569 q 141 558 130 569 q 153 530 153 547 q 141 501 153 512 q 113 490 130 490 m 774 490 q 746 501 757 490 q 734 530 734 512 q 746 558 734 547 q 774 569 757 569 q 803 558 792 569 q 814 530 814 547 q 803 501 814 512 q 774 490 792 490 m 89 354 q 60 365 71 354 q 49 394 49 377 q 60 423 49 411 q 89 434 71 434 q 117 423 106 434 q 128 394 128 411 q 117 365 128 377 q 89 354 106 354 m 797 354 q 768 365 780 354 q 757 394 757 377 q 768 423 757 411 q 797 434 780 434 q 826 423 814 434 q 837 394 837 411 q 826 365 837 377 q 797 354 814 354 m 113 299 q 141 287 130 299 q 153 260 153 276 q 141 231 153 243 q 113 219 130 219 q 84 231 95 219 q 73 260 73 243 q 84 287 73 276 q 113 299 95 299 m 774 299 q 803 287 792 299 q 814 260 814 276 q 803 231 814 243 q 774 219 792 219 q 746 231 757 219 q 734 260 734 243 q 746 287 734 276 q 774 299 757 299 m 191 184 q 220 172 208 184 q 231 142 231 160 q 220 115 231 127 q 191 104 208 104 q 162 115 174 104 q 151 142 151 127 q 162 172 151 160 q 191 184 174 184 m 696 184 q 725 172 714 184 q 736 142 736 160 q 725 115 736 127 q 696 104 714 104 q 668 115 679 104 q 656 142 656 127 q 668 172 656 160 q 696 184 679 184 m 304 108 q 332 95 319 108 q 344 66 344 83 q 332 38 344 50 q 304 26 319 26 q 275 38 286 26 q 264 66 264 50 q 275 95 264 83 q 304 108 286 108 m 583 108 q 612 95 601 108 q 623 66 623 83 q 612 38 623 50 q 583 26 601 26 q 555 38 566 26 q 543 66 543 50 q 555 95 543 83 q 583 108 566 108 m 443 80 q 471 69 460 80 q 483 42 483 57 q 471 12 483 24 q 443 0 460 0 q 414 12 425 0 q 403 42 403 24 q 414 69 403 57 q 443 80 425 80 z "},"◊":{"ha":715,"x_min":64,"x_max":656,"o":"m 375 691 l 64 347 l 264 0 l 345 0 l 656 340 l 455 691 l 375 691 m 186 339 l 401 578 l 536 347 l 318 111 l 186 339 z "},"|":{"ha":521,"x_min":208,"x_max":313,"o":"m 313 -311 l 208 -311 l 208 1080 l 313 1080 l 313 -311 z "},"¦":{"ha":521,"x_min":208,"x_max":313,"o":"m 313 477 l 313 1080 l 208 1080 l 208 477 l 313 477 m 313 -309 l 313 293 l 208 293 l 208 -309 l 313 -309 z "},"@":{"ha":1392,"x_min":64,"x_max":1333,"o":"m 938 628 q 781 661 859 661 q 604 618 688 661 q 462 493 521 575 q 380 300 403 411 q 372 220 372 253 q 436 46 372 109 q 601 -17 500 -17 q 821 75 719 -17 q 876 5 835 28 q 974 -17 917 -17 q 1174 72 1092 -17 q 1294 285 1255 161 q 1333 509 1333 408 q 1207 826 1333 710 q 826 943 1082 943 q 412 831 585 943 q 152 541 240 719 q 66 167 64 363 q 127 -72 66 28 q 293 -223 188 -172 q 526 -274 398 -274 q 785 -240 660 -274 l 811 -144 q 594 -177 710 -177 q 301 -89 411 -177 q 191 179 191 0 q 260 484 191 328 q 471 744 330 639 q 816 849 613 849 q 1114 760 1014 849 q 1214 505 1214 672 q 1192 336 1214 438 q 1123 156 1170 234 q 1007 78 1076 78 q 929 155 929 78 q 936 207 929 168 l 1023 655 l 951 655 l 938 628 m 507 330 q 598 510 530 443 q 764 576 667 576 q 891 549 835 576 l 818 148 q 660 80 752 80 q 538 124 578 80 q 498 248 498 168 q 507 330 498 281 z "},"&":{"ha":1040,"x_min":82,"x_max":967,"o":"m 892 0 l 752 0 l 665 125 q 484 6 563 43 q 306 -31 406 -31 q 143 20 205 -31 q 82 175 82 71 q 149 345 82 260 q 380 538 217 431 q 311 661 332 618 q 290 752 290 703 q 359 908 290 847 q 556 969 427 969 q 696 922 641 969 q 752 792 752 875 q 701 662 752 726 q 536 514 649 599 l 691 290 l 896 472 l 967 392 l 753 201 l 892 0 m 540 873 q 440 839 476 873 q 405 755 405 804 q 423 686 405 722 q 477 597 441 649 q 595 695 552 648 q 639 790 639 743 q 613 850 639 826 q 540 873 587 873 m 326 73 q 452 108 387 73 q 604 212 517 142 l 438 455 l 401 429 q 284 339 323 372 q 220 266 245 306 q 194 182 194 227 q 326 73 194 73 z "},"¶":{"ha":858,"x_min":127,"x_max":873,"o":"m 531 1017 q 270 949 380 1017 q 132 736 160 880 q 127 679 127 705 q 194 523 127 582 q 373 462 262 465 l 286 0 l 399 0 l 578 917 l 740 917 l 563 0 l 674 0 l 873 1017 l 531 1017 z "},"©":{"ha":1188,"x_min":116,"x_max":1071,"o":"m 1071 406 q 1034 596 1071 509 q 931 748 997 684 q 777 843 865 809 q 590 877 689 877 q 407 843 493 877 q 257 748 321 809 q 154 596 191 684 q 116 406 116 509 q 154 216 116 304 q 257 66 191 128 q 407 -30 321 3 q 590 -64 493 -64 q 777 -30 689 -64 q 931 66 865 3 q 1034 216 997 128 q 1071 406 1071 304 m 983 406 q 953 257 983 326 q 870 135 924 188 q 745 56 816 83 q 595 28 674 28 q 443 56 514 28 q 319 135 372 83 q 236 257 266 188 q 207 406 207 326 q 236 556 207 486 q 319 681 266 627 q 443 760 372 733 q 595 788 514 788 q 745 760 674 788 q 870 681 816 733 q 953 556 924 627 q 983 406 983 486 m 613 161 q 747 189 679 161 l 720 262 q 637 245 674 245 q 515 289 552 245 q 477 415 477 333 q 627 573 477 573 q 726 556 675 573 l 752 628 q 623 656 684 656 q 384 399 384 656 q 444 225 384 288 q 613 161 505 161 z "},"®":{"ha":957,"x_min":122,"x_max":835,"o":"m 835 703 q 808 844 835 780 q 731 957 781 908 q 618 1026 682 1002 q 479 1050 554 1050 q 338 1026 403 1050 q 226 957 273 1002 q 148 844 175 908 q 122 703 122 780 q 148 561 122 625 q 226 450 175 497 q 338 378 273 403 q 479 354 403 354 q 618 378 554 354 q 731 450 682 403 q 808 561 781 497 q 835 703 835 625 m 759 703 q 682 499 759 573 q 479 425 606 425 q 276 499 352 425 q 200 703 200 573 q 278 906 200 828 q 479 977 352 977 q 681 906 606 977 q 759 703 759 828 m 623 778 q 589 859 623 828 q 500 891 554 891 l 352 891 l 352 521 l 415 521 l 415 661 l 491 661 l 557 521 l 625 521 l 550 674 q 623 778 623 701 m 564 776 q 540 727 564 743 q 481 712 516 712 l 415 712 l 415 833 l 498 833 q 547 818 530 833 q 564 776 564 802 z "},"§":{"ha":707,"x_min":38,"x_max":698,"o":"m 516 859 q 378 831 432 859 q 323 753 323 802 q 347 707 323 726 q 429 665 372 689 q 491 635 477 642 q 602 563 569 597 q 635 477 635 530 q 630 432 635 458 q 594 358 622 392 q 521 300 566 323 q 566 201 566 262 q 561 155 566 181 q 472 34 547 83 q 286 -16 398 -16 q 38 36 161 -16 l 82 123 q 283 80 198 80 q 403 108 351 80 q 455 189 455 135 q 430 237 455 219 q 321 293 405 255 l 260 321 q 174 378 208 345 q 141 469 141 410 q 257 642 141 589 q 210 747 210 686 q 214 783 210 769 q 314 913 231 873 q 509 953 398 953 q 698 913 613 953 l 658 828 q 516 859 587 859 m 524 465 q 497 515 524 497 q 378 576 470 533 q 287 540 321 566 q 253 476 253 514 q 282 424 253 444 q 377 377 311 403 l 411 361 q 493 398 462 370 q 524 465 524 427 z "},"™":{"ha":962,"x_min":49,"x_max":865,"o":"m 391 891 l 391 955 l 49 955 l 49 891 l 179 891 l 179 575 l 259 575 l 259 891 l 391 891 m 790 575 l 865 575 l 865 955 l 762 955 l 660 757 l 557 955 l 455 955 l 455 575 l 533 575 l 533 863 l 634 665 l 688 665 l 790 863 l 790 575 z "},"°":{"ha":406,"x_min":85,"x_max":446,"o":"m 224 479 q 345 513 295 479 q 421 596 396 547 q 446 691 446 646 q 410 798 446 759 q 307 837 373 837 q 186 803 236 837 q 110 720 135 769 q 85 625 85 670 q 122 518 85 557 q 224 479 158 479 m 238 563 q 170 634 170 563 q 207 716 170 679 q 295 753 245 753 q 363 682 363 753 q 326 600 363 637 q 238 563 288 563 z "},"℮":{"ha":806,"x_min":69,"x_max":736,"o":"m 69 453 q 168 215 69 306 q 273 149 214 172 q 401 127 333 127 q 684 217 559 127 l 660 253 q 401 172 542 172 q 267 208 328 172 q 181 280 222 234 l 181 444 l 727 444 l 736 453 q 639 736 736 635 q 532 806 594 783 q 401 830 470 830 q 165 736 253 830 q 69 453 69 635 m 181 661 q 401 788 248 788 q 622 661 554 788 l 623 486 l 181 486 l 181 661 z "}}}
